<svg width="134" height="60" viewBox="0 0 134 60" fill="none" xmlns="http://www.w3.org/2000/svg">
<path d="M4.48828 25.5781C2.27914 25.5781 0.488281 27.369 0.488281 29.5781C0.488281 31.7873 2.27914 33.5781 4.48828 33.5781V25.5781ZM132.383 32.4066C133.945 30.8445 133.945 28.3118 132.383 26.7497L106.927 1.29385C105.365 -0.268244 102.833 -0.268244 101.27 1.29385C99.7083 2.85595 99.7083 5.38861 101.27 6.95071L123.898 29.5781L101.27 52.2055C99.7083 53.7676 99.7083 56.3003 101.27 57.8624C102.833 59.4245 105.365 59.4245 106.927 57.8624L132.383 32.4066ZM4.48828 33.5781H129.555V25.5781H4.48828V33.5781Z" fill="white"/>
</svg>
