<svg width="38" height="34" viewBox="0 0 38 34" fill="none" xmlns="http://www.w3.org/2000/svg">
<path d="M21.6016 2.81006C21.6016 1.42935 20.4823 0.310059 19.1016 0.310059C17.7209 0.310059 16.6016 1.42935 16.6016 2.81006H21.6016ZM17.3338 32.9575C18.3101 33.9338 19.893 33.9338 20.8693 32.9575L36.7792 17.0476C37.7555 16.0713 37.7555 14.4883 36.7792 13.512C35.8029 12.5357 34.22 12.5357 33.2437 13.512L19.1016 27.6542L4.95943 13.512C3.98312 12.5357 2.4002 12.5357 1.42389 13.512C0.447582 14.4883 0.447582 16.0713 1.42389 17.0476L17.3338 32.9575ZM16.6016 2.81006V31.1897H21.6016V2.81006H16.6016Z" fill="white"/>
</svg>
