<svg width="134" height="60" viewBox="0 0 134 60" fill="none" xmlns="http://www.w3.org/2000/svg">
<path d="M129.555 25.5781C131.764 25.5781 133.555 27.369 133.555 29.5781C133.555 31.7873 131.764 33.5781 129.555 33.5781V25.5781ZM1.65985 32.4066C0.0977631 30.8445 0.0977631 28.3118 1.65985 26.7497L27.1157 1.29385C28.6778 -0.268244 31.2105 -0.268244 32.7726 1.29385C34.3346 2.85595 34.3346 5.38861 32.7726 6.95071L10.1451 29.5781L32.7726 52.2055C34.3346 53.7676 34.3346 56.3003 32.7726 57.8624C31.2105 59.4245 28.6778 59.4245 27.1157 57.8624L1.65985 32.4066ZM129.555 33.5781H4.48828V25.5781H129.555V33.5781Z" fill="white"/>
</svg>
