<svg width="255" height="186" viewBox="0 0 255 186" fill="none" xmlns="http://www.w3.org/2000/svg">
<path d="M21.1896 82.6068C21.2533 82.6068 21.3171 82.6227 21.3808 82.6227C21.2534 81.4152 21.1896 80.1918 21.1896 78.9526C21.1896 58.7117 37.6446 42.2838 57.9545 42.2838C59.4837 42.2838 60.997 42.395 62.4784 42.5697C72.0678 18.1503 95.8821 0.848633 123.758 0.848633C153.1 0.848633 177.95 20.0092 186.44 46.4781C189.244 45.4454 192.27 44.8576 195.44 44.8576C209.235 44.8576 220.497 55.5341 221.453 69.0545C221.485 69.0545 221.517 69.0545 221.548 69.0545C239.198 69.0387 253.519 83.3217 253.519 100.941C253.519 118.561 239.198 132.844 221.532 132.844C221.437 132.844 221.341 132.828 221.246 132.828C219.255 148.541 205.842 160.711 189.546 160.711C189.435 160.711 189.323 160.695 189.212 160.695C176.946 175.693 158.277 185.273 137.346 185.273C118.247 185.273 101.027 177.282 88.8414 164.476C83.2343 167.002 77.0059 168.416 70.443 168.416C45.673 168.416 25.6021 148.398 25.6021 123.692C25.6021 123.533 25.618 123.375 25.618 123.2C24.1843 123.518 22.7188 123.692 21.1896 123.692C9.8161 123.692 0.608978 114.493 0.608978 103.165C0.608978 91.8375 9.83203 82.6068 21.1896 82.6068Z" fill="white" stroke="#5159FF" stroke-miterlimit="10"/>
</svg>
