<svg width="65" height="64" viewBox="0 0 65 64" fill="none" xmlns="http://www.w3.org/2000/svg">
<ellipse cx="49.6488" cy="6.76367" rx="6.69617" ry="6.76367" fill="white"/>
<path d="M42.8113 17.2114C42.893 16.7307 43.3095 16.3789 43.7972 16.3789H55.5004C55.9881 16.3789 56.4047 16.7308 56.4863 17.2117L64.2221 62.8327C64.3256 63.4431 63.8553 64 63.2362 63.9999L36.0484 63.9982C35.4292 63.9982 34.9589 63.4412 35.0625 62.8307L42.8113 17.2114Z" fill="white"/>
<ellipse cx="12.2089" cy="6.76367" rx="6.69617" ry="6.76367" fill="white"/>
<path fill-rule="evenodd" clip-rule="evenodd" d="M23.9975 17.3789C23.9975 16.8266 23.5498 16.3789 22.9975 16.3789H1.41992C0.867637 16.3789 0.419922 16.8266 0.419922 17.3789V37.1663C0.419922 37.7186 0.867638 38.1663 1.41992 38.1663H4.51263C5.06491 38.1663 5.51263 38.614 5.51263 39.1663V63C5.51263 63.5523 5.96034 64 6.51263 64H17.905C18.4572 64 18.905 63.5523 18.905 63V39.1663C18.905 38.614 19.3527 38.1663 19.905 38.1663H22.9975C23.5498 38.1663 23.9975 37.7186 23.9975 37.1663V17.3789Z" fill="white"/>
<path d="M30.0137 6.76367L30.0016 57.2363" stroke="white" stroke-width="5" stroke-linecap="round" stroke-linejoin="round"/>
</svg>
