<svg width="70" height="70" viewBox="0 0 70 70" fill="none" xmlns="http://www.w3.org/2000/svg">
<rect x="28.719" y="3" width="37.9556" height="64" rx="5" stroke="white" stroke-width="5"/>
<path d="M2.67456 32.5C1.29385 32.5 0.174561 33.6193 0.174561 35C0.17456 36.3807 1.29385 37.5 2.67456 37.5L2.67456 32.5ZM55.5004 36.7678C56.4767 35.7915 56.4767 34.2085 55.5004 33.2322L39.5905 17.3223C38.6142 16.346 37.0312 16.346 36.0549 17.3223C35.0786 18.2986 35.0786 19.8816 36.0549 20.8579L50.1971 35L36.0549 49.1421C35.0786 50.1184 35.0786 51.7014 36.0549 52.6777C37.0312 53.654 38.6142 53.654 39.5905 52.6777L55.5004 36.7678ZM2.67456 37.5L53.7326 37.5L53.7326 32.5L2.67456 32.5L2.67456 37.5Z" fill="white"/>
</svg>
