<svg width="69" height="70" viewBox="0 0 69 70" fill="none" xmlns="http://www.w3.org/2000/svg">
<rect x="29.4496" y="3" width="37.0504" height="64" rx="5" stroke="white" stroke-width="5"/>
<path d="M53.5579 32.5C54.9386 32.5 56.0579 33.6193 56.0579 35C56.0579 36.3807 54.9386 37.5 53.5579 37.5L53.5579 32.5ZM0.732055 36.7678C-0.244256 35.7915 -0.244256 34.2085 0.732054 33.2322L16.642 17.3223C17.6183 16.346 19.2012 16.346 20.1775 17.3223C21.1538 18.2986 21.1538 19.8816 20.1775 20.8579L6.03536 35L20.1775 49.1421C21.1538 50.1184 21.1538 51.7014 20.1775 52.6777C19.2012 53.654 17.6183 53.654 16.642 52.6777L0.732055 36.7678ZM53.5579 37.5L2.49982 37.5L2.49982 32.5L53.5579 32.5L53.5579 37.5Z" fill="white"/>
</svg>
