<svg width="65" height="64" viewBox="0 0 65 64" fill="none" xmlns="http://www.w3.org/2000/svg">
<path d="M58.7801 61.3267L54.8857 17.9563C54.7794 16.7719 53.7867 15.8647 52.5977 15.8647H44.5666V12.2426C44.5666 5.49201 39.0749 0 32.3246 0C25.5747 0 20.0836 5.49201 20.0836 12.2426V15.8647H12.047C10.858 15.8647 9.8653 16.7719 9.75901 17.9563L5.84927 61.4973C5.79169 62.1399 6.0067 62.7767 6.44194 63.2527C6.87717 63.7286 7.4925 63.9997 8.13723 63.9997H56.5078C56.5096 63.9997 56.512 63.9997 56.5139 63.9997C57.7828 63.9997 58.811 62.9712 58.811 61.7025C58.8107 61.5748 58.8003 61.4489 58.7801 61.3267ZM24.6779 12.2426C24.6779 8.02531 28.1083 4.59429 32.3249 4.59429C36.5419 4.59429 39.9726 8.02531 39.9726 12.2426V15.8647H24.6779V12.2426ZM10.65 59.4057L14.1472 20.459H20.0836V24.5669C20.0836 25.8355 21.1118 26.864 22.3808 26.864C23.6497 26.864 24.6779 25.8355 24.6779 24.5669V20.459H39.9726V24.5669C39.9726 25.8355 41.0008 26.864 42.2697 26.864C43.5387 26.864 44.5669 25.8355 44.5669 24.5669V20.459H50.4978L53.995 59.4057H10.65V59.4057Z" fill="white"/>
</svg>
