<svg width="64" height="67" viewBox="0 0 64 67" fill="none" xmlns="http://www.w3.org/2000/svg">
<path d="M13.5 19C13.5 20.3807 14.6193 21.5 16 21.5C17.3807 21.5 18.5 20.3807 18.5 19H13.5ZM45.5 19C45.5 26.4558 39.4558 32.5 32 32.5V37.5C42.2173 37.5 50.5 29.2173 50.5 19H45.5ZM18.5 19C18.5 11.5442 24.5442 5.5 32 5.5V0.5C21.7827 0.5 13.5 8.78273 13.5 19H18.5ZM32 5.5C39.4558 5.5 45.5 11.5442 45.5 19H50.5C50.5 8.78273 42.2173 0.5 32 0.5V5.5Z" fill="white"/>
<path d="M32.7278 35V50.8599" stroke="white" stroke-width="5" stroke-linecap="round" stroke-linejoin="round"/>
<circle cx="32.728" cy="62.6662" r="4.33417" fill="white"/>
</svg>
