<svg width="65" height="65" viewBox="0 0 65 65" fill="none" xmlns="http://www.w3.org/2000/svg">
<g clip-path="url(#clip0)">
<path d="M39.7404 12.6354C42.2006 10.648 42.7576 8.52352 42.7915 7.09115C42.8742 3.60652 40.1226 1.05651 39.8085 0.777385C39.0305 0.0853835 37.8387 0.155134 37.1466 0.93326C36.4546 1.71139 36.5243 2.90301 37.3025 3.59514C37.3201 3.61089 39.0633 5.24189 39.0216 7.00177C38.9993 7.9394 38.4593 8.82265 37.3707 9.70203C34.9105 11.6894 34.3535 13.8139 34.3196 15.2463C34.2367 18.7309 36.9885 21.2809 37.3025 21.5602C37.6626 21.8804 38.1121 22.0382 38.5597 22.0382C39.0792 22.0382 39.5963 21.8257 39.9681 21.4075C40.6601 20.6294 40.5941 19.441 39.816 18.749C39.3211 18.299 38.0463 16.8062 38.0897 15.3215C38.1171 14.3892 38.657 13.5104 39.7404 12.6354Z" fill="white"/>
<path d="M27.7771 12.6354C30.2373 10.648 30.7943 8.52352 30.8282 7.09115C30.911 3.60652 28.1593 1.05651 27.8452 0.777385C27.0673 0.0853835 25.8754 0.155134 25.1833 0.93326C24.4913 1.71139 24.5611 2.90301 25.3392 3.59514C25.3568 3.61089 27.1001 5.24189 27.0583 7.00177C27.0361 7.9394 26.4961 8.82265 25.4074 9.70203C22.9472 11.6894 22.3902 13.8139 22.3563 15.2463C22.2736 18.7309 25.0252 21.2809 25.3392 21.5602C25.6993 21.8804 26.1488 22.0382 26.5965 22.0382C27.116 22.0382 27.6331 21.8257 28.0048 21.4075C28.6968 20.6294 28.6308 19.441 27.8527 18.749C27.3578 18.299 26.0831 16.8062 26.1264 15.3215C26.1538 14.3892 26.6937 13.5104 27.7771 12.6354Z" fill="white"/>
<path d="M54.7697 31.069H52.5382V29.6863C52.5382 28.645 51.6941 27.8008 50.6527 27.8008H2.53089C1.48964 27.8008 0.645386 28.6449 0.645386 29.6863V39.6373C0.645386 48.4302 5.51227 56.1618 12.819 60.5296H2.53201C1.49076 60.5296 0.646511 61.3737 0.646511 62.4151C0.646511 63.4565 1.49051 64.3006 2.53201 64.3006H50.6529C51.6941 64.3006 52.5384 63.4565 52.5384 62.4151C52.5384 61.3737 51.6942 60.5296 50.6529 60.5296H40.3647C44.5197 58.0458 47.8856 54.4747 50.0161 50.2384H54.7699C60.0549 50.2384 64.3546 45.9387 64.3546 40.6537C64.3546 35.3687 60.0548 31.069 54.7697 31.069ZM48.7674 39.6373C48.7672 51.1573 38.8193 60.5296 26.5918 60.5296C14.3643 60.5296 4.41639 51.1573 4.41639 39.6373V31.5718H48.7672V39.6373H48.7674ZM54.7697 46.4676H51.5252C52.1841 44.2977 52.5382 42.0061 52.5382 39.6373V34.8398H54.7697C57.9755 34.8398 60.5836 37.4479 60.5836 40.6537C60.5836 43.8594 57.9755 46.4676 54.7697 46.4676Z" fill="white"/>
<path d="M15.8139 12.6354C18.2742 10.648 18.8312 8.52352 18.8651 7.09115C18.9478 3.60652 16.1962 1.05651 15.8821 0.777385C15.1041 0.0853835 13.9123 0.155134 13.2202 0.93326C12.5282 1.71126 12.5979 2.90301 13.3761 3.59514C13.3937 3.61089 15.1369 5.24189 15.0952 7.00177C15.0729 7.9394 14.5329 8.82265 13.4443 9.70203C10.9841 11.6894 10.4271 13.8139 10.3932 15.2463C10.3106 18.7308 13.0622 21.2808 13.3762 21.56C13.7354 21.8796 14.1828 22.0367 14.6286 22.0367C15.1482 22.0367 15.6656 21.8231 16.0382 21.4042C16.7302 20.626 16.6604 19.4344 15.8823 18.7423C15.8647 18.7265 14.1214 17.0955 14.1632 15.3357C14.1852 14.398 14.7252 13.5147 15.8139 12.6354Z" fill="white"/>
</g>
<defs>
<clipPath id="clip0">
<rect width="64" height="64" fill="white" transform="translate(0.5 0.300781)"/>
</clipPath>
</defs>
</svg>
