<svg width="65" height="68" viewBox="0 0 65 68" fill="none" xmlns="http://www.w3.org/2000/svg">
<mask id="path-1-inside-1" fill="white">
<path fill-rule="evenodd" clip-rule="evenodd" d="M11.2945 67.5522C5.30405 67.0974 0.584961 62.0927 0.584961 55.9857C0.584961 49.5791 5.77854 44.3855 12.1851 44.3855C12.2275 44.3855 12.2698 44.3858 12.3121 44.3862C12.2282 43.6689 12.1851 42.9391 12.1851 42.1993C12.1851 31.9124 20.5243 23.5732 30.8112 23.5732C38.3288 23.5732 44.8062 28.0269 47.7489 34.4396C47.8361 34.4382 47.9235 34.4375 48.011 34.4375C57.1646 34.4375 64.5851 41.858 64.5851 51.0115C64.5851 60.1651 57.1646 67.5855 48.011 67.5855C47.9845 67.5855 47.958 67.5855 47.9315 67.5854H12.2972C12.2599 67.5857 12.2225 67.5859 12.1851 67.5859C12.1477 67.5859 12.1104 67.5857 12.0731 67.5854H11.2945V67.5522Z"/>
</mask>
<path d="M11.2945 67.5522H16.2945V62.9174L11.673 62.5666L11.2945 67.5522ZM12.3121 44.3862L12.2584 49.3859L17.9381 49.4469L17.2783 43.8054L12.3121 44.3862ZM47.7489 34.4396L43.2045 36.5249L44.5649 39.4896L47.8264 39.439L47.7489 34.4396ZM47.9315 67.5854L47.9552 62.5854L47.9434 62.5854H47.9315V67.5854ZM12.2972 67.5854V62.5854H12.2734L12.2497 62.5856L12.2972 67.5854ZM12.0731 67.5854L12.1206 62.5856L12.0968 62.5854H12.0731V67.5854ZM11.2945 67.5854H6.29452V72.5854H11.2945V67.5854ZM11.673 62.5666C8.26972 62.3082 5.58496 59.4581 5.58496 55.9857H-4.41504C-4.41504 64.7272 2.33839 71.8866 10.916 72.5379L11.673 62.5666ZM5.58496 55.9857C5.58496 52.3405 8.53996 49.3855 12.1851 49.3855V39.3855C3.01711 39.3855 -4.41504 46.8177 -4.41504 55.9857H5.58496ZM12.1851 49.3855C12.2095 49.3855 12.234 49.3857 12.2584 49.3859L12.3658 39.3865C12.3057 39.3859 12.2455 39.3855 12.1851 39.3855V49.3855ZM17.2783 43.8054C17.2169 43.2805 17.1851 42.7446 17.1851 42.1993H7.1851C7.1851 43.1337 7.23958 44.0574 7.34597 44.967L17.2783 43.8054ZM17.1851 42.1993C17.1851 34.6738 23.2857 28.5732 30.8112 28.5732V18.5732C17.7628 18.5732 7.1851 29.151 7.1851 42.1993H17.1851ZM30.8112 28.5732C36.3031 28.5732 41.0466 31.8225 43.2045 36.5249L52.2932 32.3542C48.5657 24.2312 40.3544 18.5732 30.8112 18.5732V28.5732ZM47.8264 39.439C47.8878 39.438 47.9494 39.4375 48.011 39.4375V29.4375C47.8976 29.4375 47.7844 29.4384 47.6713 29.4402L47.8264 39.439ZM48.011 39.4375C54.4032 39.4375 59.5851 44.6194 59.5851 51.0115H69.5851C69.5851 39.0966 59.926 29.4375 48.011 29.4375V39.4375ZM59.5851 51.0115C59.5851 57.4037 54.4032 62.5855 48.011 62.5855V72.5855C59.926 72.5855 69.5851 62.9265 69.5851 51.0115H59.5851ZM48.011 62.5855C47.9922 62.5855 47.9736 62.5855 47.9552 62.5854L47.9077 72.5853C47.9424 72.5855 47.9768 72.5855 48.011 72.5855V62.5855ZM47.9315 62.5854H12.2972V72.5854H47.9315V62.5854ZM12.2497 62.5856C12.2284 62.5858 12.2069 62.5859 12.1851 62.5859V72.5859C12.2382 72.5859 12.2914 72.5856 12.3447 72.5851L12.2497 62.5856ZM12.1851 62.5859C12.1634 62.5859 12.1419 62.5858 12.1206 62.5856L12.0255 72.5851C12.0789 72.5856 12.1321 72.5859 12.1851 72.5859V62.5859ZM12.0731 62.5854H11.2945V72.5854H12.0731V62.5854ZM16.2945 67.5854V67.5522H6.29452V67.5854H16.2945Z" fill="white" mask="url(#path-1-inside-1)"/>
<path d="M28.3015 54.0576C28.3015 55.4383 29.4208 56.5576 30.8015 56.5576C32.1822 56.5576 33.3015 55.4383 33.3015 54.0576L28.3015 54.0576ZM32.5693 1.23181C31.593 0.2555 30.0101 0.2555 29.0337 1.23181L13.1238 17.1417C12.1475 18.118 12.1475 19.7009 13.1238 20.6772C14.1002 21.6536 15.6831 21.6536 16.6594 20.6772L30.8015 6.53511L44.9436 20.6772C45.92 21.6536 47.5029 21.6536 48.4792 20.6772C49.4555 19.7009 49.4555 18.118 48.4792 17.1417L32.5693 1.23181ZM33.3015 54.0576L33.3015 2.99958L28.3015 2.99958L28.3015 54.0576L33.3015 54.0576Z" fill="white"/>
</svg>
