<svg width="65" height="64" viewBox="0 0 65 64" fill="none" xmlns="http://www.w3.org/2000/svg">
<g clip-path="url(#clip0)">
<path d="M38.6392 58.2927C38.1115 58.4242 37.5734 58.541 37.0394 58.6394C35.6433 58.899 34.7203 60.2417 34.9785 61.6391C35.106 62.3265 35.4965 62.8991 36.0265 63.2729C36.5729 63.6574 37.2682 63.8311 37.9767 63.6993C38.6127 63.5812 39.2537 63.4424 39.8826 63.2854C41.2613 62.9423 42.1012 61.5457 41.7572 60.1677C41.4141 58.7885 40.0187 57.9493 38.6392 58.2927Z" fill="white"/>
<path d="M57.6655 23.8071C57.8457 24.3503 58.1898 24.7937 58.6244 25.1C59.2688 25.5539 60.112 25.7066 60.9167 25.4405C62.2657 24.9926 62.9966 23.5379 62.5504 22.1895C62.347 21.5748 62.1214 20.9582 61.8811 20.3578C61.3533 19.0385 59.8568 18.3961 58.5368 18.9239C57.2181 19.4513 56.5755 20.9483 57.1036 22.2681C57.3056 22.7727 57.4948 23.2906 57.6655 23.8071Z" fill="white"/>
<path d="M46.9996 54.6191C46.5457 54.9187 46.0773 55.2087 45.6054 55.4805C44.3742 56.1906 43.9525 57.7644 44.6624 58.995C44.8552 59.3297 45.1119 59.6033 45.4075 59.8124C46.2012 60.3709 47.2791 60.4545 48.1765 59.9375C48.7376 59.6139 49.2954 59.2697 49.8359 58.9123C51.021 58.1293 51.3472 56.5331 50.5639 55.3474C49.7806 54.1614 48.185 53.8356 46.9996 54.6191Z" fill="white"/>
<path d="M64.1501 30.9934C64.0941 29.5733 62.898 28.468 61.4775 28.5235C60.0589 28.5795 58.9528 29.776 59.0085 31.1955C59.0298 31.7382 59.0353 32.2891 59.0228 32.8312C59.0028 33.7218 59.4384 34.5156 60.1153 34.9927C60.5185 35.2766 61.0079 35.4485 61.5385 35.4606C62.9585 35.4921 64.1353 34.3658 64.1669 32.945C64.181 32.2972 64.1757 31.6408 64.1501 30.9934Z" fill="white"/>
<path d="M57.2454 47.8515C56.1067 46.9972 54.4957 47.2291 53.6429 48.3658C53.3163 48.801 52.9724 49.231 52.6202 49.6449C51.6998 50.7263 51.8298 52.3505 52.9111 53.2716C52.9728 53.3238 53.0351 53.3718 53.0997 53.417C54.1748 54.1749 55.6688 54.0007 56.538 52.9807C56.9586 52.4868 57.3686 51.9733 57.7589 51.4534C58.6118 50.3167 58.381 48.7046 57.2454 47.8515Z" fill="white"/>
<path d="M61.0274 38.5501C59.6716 38.125 58.2278 38.8798 57.8029 40.2356C57.6403 40.7536 57.4601 41.274 57.2656 41.7837C56.8384 42.9058 57.2477 44.1404 58.1859 44.802C58.3581 44.9229 58.5476 45.0254 58.7536 45.1033C60.081 45.6098 61.5675 44.9438 62.0735 43.6158C62.3045 43.0098 62.5189 42.3906 62.7127 41.7748C63.1371 40.4187 62.383 38.9753 61.0274 38.5501Z" fill="white"/>
<path d="M27.4143 58.6626C25.114 58.2496 22.9074 57.5463 20.8151 56.5654C20.7903 56.5525 20.7681 56.5378 20.7421 56.5259C20.2491 56.2938 19.7568 56.0452 19.2797 55.7855C19.2781 55.7836 19.275 55.7823 19.2724 55.7812C18.397 55.2992 17.5427 54.7658 16.7127 54.1815C4.60993 45.656 1.69994 28.8734 10.226 16.7708C12.08 14.1401 14.3236 11.9454 16.8248 10.2058C16.8556 10.1844 16.8865 10.1631 16.917 10.1415C25.731 4.06834 37.6991 3.65906 47.0582 9.89974L45.0481 12.8041C44.4893 13.6125 44.8331 14.2016 45.8114 14.1135L54.5429 13.3318C55.5224 13.2438 56.1082 12.3965 55.8448 11.4505L53.5001 3.00255C53.2376 2.05548 52.5655 1.94212 52.0061 2.75037L49.9913 5.6616C43.123 1.05104 34.8852 -0.707033 26.7086 0.710818C25.8851 0.853346 25.0732 1.02779 24.2723 1.23085C24.2661 1.23195 24.2612 1.23264 24.2562 1.23374C24.2253 1.24131 24.1939 1.25135 24.1638 1.25974C17.113 3.07037 10.9614 7.18263 6.57176 13.0499C6.53475 13.0938 6.49664 13.1368 6.4617 13.1845C6.31573 13.3811 6.17086 13.5822 6.02902 13.7834C5.79707 14.113 5.56842 14.4509 5.34968 14.7888C5.3223 14.8295 5.30139 14.8709 5.27745 14.912C1.65509 20.5252 -0.0921125 27.0147 0.207526 33.6213C0.208214 33.643 0.206976 33.6649 0.207526 33.6872C0.236555 34.3326 0.287733 34.9869 0.357208 35.631C0.360923 35.6725 0.37014 35.7119 0.377157 35.7534C0.448971 36.4011 0.539083 37.0504 0.652032 37.6994C1.79996 44.322 4.92402 50.2814 9.60529 54.9184C9.61616 54.9292 9.62744 54.9411 9.63845 54.9523C9.6423 54.9566 9.64656 54.9588 9.65028 54.9628C10.908 56.2033 12.276 57.3507 13.7491 58.3881C17.6039 61.1044 21.8964 62.8999 26.5063 63.7272C27.905 63.9785 29.2411 63.0474 29.4921 61.6494C29.7429 60.2504 28.8126 58.9131 27.4143 58.6626Z" fill="white"/>
<path d="M30.5957 11.4463C29.4451 11.4463 28.5132 12.379 28.5132 13.5279V34.267L47.4807 44.0721C47.786 44.2302 48.1128 44.3046 48.4345 44.3046C49.1879 44.3046 49.9155 43.8944 50.2854 43.1786C50.813 42.1569 50.4138 40.9018 49.3922 40.3742L32.6758 31.732V13.5279C32.6757 12.379 31.7448 11.4463 30.5957 11.4463Z" fill="white"/>
</g>
<defs>
<clipPath id="clip0">
<rect width="64" height="64" fill="white" transform="translate(0.174561)"/>
</clipPath>
</defs>
</svg>
