<svg width="65" height="68" viewBox="0 0 65 68" fill="none" xmlns="http://www.w3.org/2000/svg">
<mask id="path-1-inside-1" fill="white">
<path fill-rule="evenodd" clip-rule="evenodd" d="M11.0095 43.979C5.01897 43.5242 0.299805 38.5195 0.299805 32.4125C0.299805 26.0059 5.49338 20.8123 11.9 20.8123C11.9424 20.8123 11.9847 20.8125 12.0269 20.813C11.943 20.0957 11.8999 19.3659 11.8999 18.6261C11.8999 8.33917 20.2391 0 30.526 0C38.0437 0 44.5213 4.45381 47.4639 10.8668C47.551 10.8654 47.6384 10.8647 47.7259 10.8647C56.8794 10.8647 64.2999 18.2852 64.2999 27.4387C64.2999 36.5923 56.8794 44.0127 47.7259 44.0127C47.6644 44.0127 47.6029 44.0124 47.5416 44.0117H12.0475C11.9984 44.0124 11.9492 44.0127 11.9 44.0127C11.8507 44.0127 11.8015 44.0124 11.7524 44.0117H11.0095V43.979Z"/>
</mask>
<path d="M11.0095 43.979H16.0095V39.3442L11.388 38.9933L11.0095 43.979ZM12.0269 20.813L11.9732 25.8127L17.6529 25.8737L16.9931 20.2322L12.0269 20.813ZM47.4639 10.8668L42.9194 12.952L44.2798 15.9167L47.5414 15.8662L47.4639 10.8668ZM47.5416 44.0117L47.596 39.012L47.5688 39.0117H47.5416V44.0117ZM12.0475 44.0117V39.0117H12.0163L11.985 39.0121L12.0475 44.0117ZM11.7524 44.0117L11.8149 39.0121L11.7837 39.0117H11.7524V44.0117ZM11.0095 44.0117H6.0095V49.0117H11.0095V44.0117ZM11.388 38.9933C7.9846 38.735 5.2998 35.8849 5.2998 32.4125H-4.7002C-4.7002 41.154 2.05333 48.3135 10.631 48.9646L11.388 38.9933ZM5.2998 32.4125C5.2998 28.7673 8.2548 25.8123 11.9 25.8123V15.8123C2.73196 15.8123 -4.7002 23.2445 -4.7002 32.4125H5.2998ZM11.9 25.8123C11.9243 25.8123 11.9488 25.8124 11.9732 25.8127L12.0806 15.8133C12.0206 15.8126 11.9604 15.8123 11.9 15.8123V25.8123ZM16.9931 20.2322C16.9317 19.7072 16.8999 19.1714 16.8999 18.6261H6.89991C6.89991 19.5604 6.9544 20.4841 7.06079 21.3938L16.9931 20.2322ZM16.8999 18.6261C16.8999 11.1006 23.0005 5 30.526 5V-5C17.4777 -5 6.89991 5.57775 6.89991 18.6261H16.8999ZM30.526 5C36.018 5 40.7616 8.24937 42.9194 12.952L52.0083 8.78154C48.2809 0.658255 40.0695 -5 30.526 -5V5ZM47.5414 15.8662C47.6027 15.8652 47.6642 15.8647 47.7259 15.8647V5.86474C47.6125 5.86474 47.4993 5.86562 47.3864 5.86737L47.5414 15.8662ZM47.7259 15.8647C54.118 15.8647 59.2999 21.0466 59.2999 27.4387H69.2999C69.2999 15.5237 59.6409 5.86474 47.7259 5.86474V15.8647ZM59.2999 27.4387C59.2999 33.8309 54.118 39.0127 47.7259 39.0127V49.0127C59.6409 49.0127 69.2999 39.3537 69.2999 27.4387H59.2999ZM47.7259 39.0127C47.6826 39.0127 47.6393 39.0125 47.596 39.012L47.4872 49.0114C47.5666 49.0123 47.6462 49.0127 47.7259 49.0127V39.0127ZM47.5416 39.0117H12.0475V49.0117H47.5416V39.0117ZM11.985 39.0121C11.9569 39.0125 11.9286 39.0127 11.9 39.0127V49.0127C11.9699 49.0127 12.0399 49.0122 12.1101 49.0113L11.985 39.0121ZM11.9 39.0127C11.8714 39.0127 11.843 39.0125 11.8149 39.0121L11.6899 49.0113C11.76 49.0122 11.8301 49.0127 11.9 49.0127V39.0127ZM11.7524 39.0117H11.0095V49.0117H11.7524V39.0117ZM16.0095 44.0117V43.979H6.0095V44.0117H16.0095Z" fill="white" mask="url(#path-1-inside-1)"/>
<path d="M29.7998 13.5273C29.7998 12.1466 30.9191 11.0273 32.2998 11.0273C33.6805 11.0273 34.7998 12.1466 34.7998 13.5273L29.7998 13.5273ZM34.0676 66.3532C33.0913 67.3295 31.5083 67.3295 30.532 66.3532L14.6221 50.4432C13.6458 49.4669 13.6458 47.884 14.6221 46.9077C15.5984 45.9314 17.1814 45.9314 18.1577 46.9077L32.2998 61.0498L46.4419 46.9077C47.4182 45.9314 49.0012 45.9314 49.9775 46.9077C50.9538 47.884 50.9538 49.4669 49.9775 50.4432L34.0676 66.3532ZM34.7998 13.5273L34.7998 64.5854L29.7998 64.5854L29.7998 13.5273L34.7998 13.5273Z" fill="white"/>
</svg>
