<svg width="487" height="61" viewBox="0 0 487 61" fill="none" xmlns="http://www.w3.org/2000/svg">
<path d="M1.03049 48.501H0.0304885V49.501H1.03049V48.501ZM9.27149 48.501V49.501H10.2715V48.501H9.27149ZM9.27149 28.736V27.736H8.27149V28.736H9.27149ZM31.6495 28.736H32.6495V27.736H31.6495V28.736ZM31.6495 48.501H30.6495V49.501H31.6495V48.501ZM39.8905 48.501V49.501H40.8905V48.501H39.8905ZM39.8905 1.60097H40.8905V0.600973H39.8905V1.60097ZM31.6495 1.60097V0.600973H30.6495V1.60097H31.6495ZM31.6495 21.098V22.098H32.6495V21.098H31.6495ZM9.27149 21.098H8.27149V22.098H9.27149V21.098ZM9.27149 1.60097H10.2715V0.600973H9.27149V1.60097ZM1.03049 1.60097V0.600973H0.0304885V1.60097H1.03049ZM1.03049 49.501H9.27149V47.501H1.03049V49.501ZM10.2715 48.501V28.736H8.27149V48.501H10.2715ZM9.27149 29.736H31.6495V27.736H9.27149V29.736ZM30.6495 28.736V48.501H32.6495V28.736H30.6495ZM31.6495 49.501H39.8905V47.501H31.6495V49.501ZM40.8905 48.501V1.60097H38.8905V48.501H40.8905ZM39.8905 0.600973H31.6495V2.60097H39.8905V0.600973ZM30.6495 1.60097V21.098H32.6495V1.60097H30.6495ZM31.6495 20.098H9.27149V22.098H31.6495V20.098ZM10.2715 21.098V1.60097H8.27149V21.098H10.2715ZM9.27149 0.600973H1.03049V2.60097H9.27149V0.600973ZM0.0304885 1.60097V48.501H2.03049V1.60097H0.0304885ZM80.6778 48.501V49.501H81.6778V48.501H80.6778ZM51.6668 15.537L51.2577 14.6245L50.4268 14.997L50.7201 15.8591L51.6668 15.537ZM53.8778 22.036L52.9311 22.3581L53.2754 23.3703L54.2624 22.9591L53.8778 22.036ZM72.7048 28.066L72.4025 29.0192L73.7048 29.4321V28.066H72.7048ZM72.6378 44.146H73.6378V41.3937L71.871 43.504L72.6378 44.146ZM72.6378 48.501H71.6378V49.501H72.6378V48.501ZM72.8388 33.694H73.8388V33.0088L73.1998 32.7614L72.8388 33.694ZM81.6778 48.501V27.53H79.6778V48.501H81.6778ZM81.6778 27.53C81.6778 22.6335 80.3558 18.6056 77.5289 15.8063C74.7033 13.0082 70.5269 11.589 65.1338 11.589V13.589C70.1927 13.589 73.7883 14.9168 76.1217 17.2274C78.4538 19.5368 79.6778 22.9794 79.6778 27.53H81.6778ZM65.1338 11.589C59.1985 11.589 55.2393 12.8396 51.2577 14.6245L52.0758 16.4495C55.8663 14.7503 59.545 13.589 65.1338 13.589V11.589ZM50.7201 15.8591L52.9311 22.3581L54.8245 21.7139L52.6135 15.2149L50.7201 15.8591ZM54.2624 22.9591C57.4032 21.6504 60.2164 20.825 63.9948 20.825V18.825C59.8672 18.825 56.7844 19.7416 53.4932 21.1129L54.2624 22.9591ZM63.9948 20.825C66.6654 20.825 68.5744 21.462 69.8042 22.531C71.0115 23.5806 71.7048 25.1693 71.7048 27.396H73.7048C73.7048 24.7317 72.8571 22.5349 71.1164 21.0217C69.3982 19.528 66.9522 18.825 63.9948 18.825V20.825ZM71.7048 27.396V28.066H73.7048V27.396H71.7048ZM73.007 27.1127C70.1766 26.2153 67.3273 25.592 62.9228 25.592V27.592C67.0942 27.592 69.739 28.1747 72.4025 29.0192L73.007 27.1127ZM62.9228 25.592C58.6686 25.592 54.8468 26.558 52.063 28.6482C49.24 30.7677 47.5848 33.9709 47.5848 38.183H49.5848C49.5848 34.5561 50.9781 31.9637 53.2638 30.2475C55.5888 28.5019 58.936 27.592 62.9228 27.592V25.592ZM47.5848 38.183C47.5848 42.1025 49.195 45.1533 51.7435 47.2032C54.2677 49.2335 57.6523 50.238 61.1808 50.238V48.238C58.0093 48.238 55.0958 47.3329 52.997 45.6448C50.9225 43.9761 49.5848 41.4994 49.5848 38.183H47.5848ZM61.1808 50.238C66.8549 50.238 70.8145 47.8816 73.4045 44.7879L71.871 43.504C69.6371 46.1724 66.2267 48.238 61.1808 48.238V50.238ZM71.6378 44.146V48.501H73.6378V44.146H71.6378ZM72.6378 49.501H80.6778V47.501H72.6378V49.501ZM71.8388 35.704C71.8388 39.3566 68.512 42.141 63.4588 42.141V44.141C69.1255 44.141 73.8388 40.8953 73.8388 35.704H71.8388ZM63.4588 42.141C61.6984 42.141 60.2119 41.7067 59.1945 40.9731C58.2073 40.2612 57.6248 39.2484 57.6248 37.915H55.6248C55.6248 39.9315 56.5498 41.5317 58.0248 42.5953C59.4697 43.6372 61.4001 44.141 63.4588 44.141V42.141ZM57.6248 37.915C57.6248 36.4653 58.2195 35.3664 59.3383 34.5914C60.5013 33.7856 62.3017 33.287 64.7318 33.287V31.287C62.0699 31.287 59.8167 31.8268 58.1993 32.9473C56.5376 34.0985 55.6248 35.8137 55.6248 37.915H57.6248ZM64.7318 33.287C67.7625 33.287 70.5206 33.8689 72.4778 34.6265L73.1998 32.7614C71.003 31.911 67.9991 31.287 64.7318 31.287V33.287ZM71.8388 33.694V35.704H73.8388V33.694H71.8388ZM90.32 48.501H89.32V49.501H90.32V48.501ZM140.704 48.501V49.501H141.704V48.501H140.704ZM140.704 13.125H141.704V12.125H140.704V13.125ZM132.597 13.125V12.125H131.597V13.125H132.597ZM132.597 41.533V42.533H133.597V41.533H132.597ZM119.532 41.533H118.532V42.533H119.532V41.533ZM119.532 13.125H120.532V12.125H119.532V13.125ZM111.492 13.125V12.125H110.492V13.125H111.492ZM111.492 41.533V42.533H112.492V41.533H111.492ZM98.427 41.533H97.427V42.533H98.427V41.533ZM98.427 13.125H99.427V12.125H98.427V13.125ZM90.32 13.125V12.125H89.32V13.125H90.32ZM90.32 49.501H140.704V47.501H90.32V49.501ZM141.704 48.501V13.125H139.704V48.501H141.704ZM140.704 12.125H132.597V14.125H140.704V12.125ZM131.597 13.125V41.533H133.597V13.125H131.597ZM132.597 40.533H119.532V42.533H132.597V40.533ZM120.532 41.533V13.125H118.532V41.533H120.532ZM119.532 12.125H111.492V14.125H119.532V12.125ZM110.492 13.125V41.533H112.492V13.125H110.492ZM111.492 40.533H98.427V42.533H111.492V40.533ZM99.427 41.533V13.125H97.427V41.533H99.427ZM98.427 12.125H90.32V14.125H98.427V12.125ZM89.32 13.125V48.501H91.32V13.125H89.32ZM180.589 48.501V49.501H181.589V48.501H180.589ZM151.578 15.537L151.169 14.6245L150.338 14.997L150.631 15.8591L151.578 15.537ZM153.789 22.036L152.842 22.3581L153.187 23.3703L154.174 22.9591L153.789 22.036ZM172.616 28.066L172.314 29.0192L173.616 29.4321V28.066H172.616ZM172.549 44.146H173.549V41.3937L171.782 43.504L172.549 44.146ZM172.549 48.501H171.549V49.501H172.549V48.501ZM172.75 33.694H173.75V33.0088L173.111 32.7614L172.75 33.694ZM181.589 48.501V27.53H179.589V48.501H181.589ZM181.589 27.53C181.589 22.6335 180.267 18.6056 177.44 15.8063C174.614 13.0082 170.438 11.589 165.045 11.589V13.589C170.104 13.589 173.699 14.9168 176.033 17.2274C178.365 19.5368 179.589 22.9794 179.589 27.53H181.589ZM165.045 11.589C159.11 11.589 155.15 12.8396 151.169 14.6245L151.987 16.4495C155.777 14.7503 159.456 13.589 165.045 13.589V11.589ZM150.631 15.8591L152.842 22.3581L154.736 21.7139L152.525 15.2149L150.631 15.8591ZM154.174 22.9591C157.314 21.6504 160.128 20.825 163.906 20.825V18.825C159.778 18.825 156.695 19.7416 153.404 21.1129L154.174 22.9591ZM163.906 20.825C166.577 20.825 168.486 21.462 169.715 22.531C170.923 23.5806 171.616 25.1693 171.616 27.396H173.616C173.616 24.7317 172.768 22.5349 171.027 21.0217C169.309 19.528 166.863 18.825 163.906 18.825V20.825ZM171.616 27.396V28.066H173.616V27.396H171.616ZM172.918 27.1127C170.088 26.2153 167.238 25.592 162.834 25.592V27.592C167.005 27.592 169.65 28.1747 172.314 29.0192L172.918 27.1127ZM162.834 25.592C158.58 25.592 154.758 26.558 151.974 28.6482C149.151 30.7677 147.496 33.9709 147.496 38.183H149.496C149.496 34.5561 150.889 31.9637 153.175 30.2475C155.5 28.5019 158.847 27.592 162.834 27.592V25.592ZM147.496 38.183C147.496 42.1025 149.106 45.1533 151.655 47.2032C154.179 49.2335 157.563 50.238 161.092 50.238V48.238C157.92 48.238 155.007 47.3329 152.908 45.6448C150.834 43.9761 149.496 41.4994 149.496 38.183H147.496ZM161.092 50.238C166.766 50.238 170.726 47.8816 173.316 44.7879L171.782 43.504C169.548 46.1724 166.138 48.238 161.092 48.238V50.238ZM171.549 44.146V48.501H173.549V44.146H171.549ZM172.549 49.501H180.589V47.501H172.549V49.501ZM171.75 35.704C171.75 39.3566 168.423 42.141 163.37 42.141V44.141C169.037 44.141 173.75 40.8953 173.75 35.704H171.75ZM163.37 42.141C161.61 42.141 160.123 41.7067 159.106 40.9731C158.118 40.2612 157.536 39.2484 157.536 37.915H155.536C155.536 39.9315 156.461 41.5317 157.936 42.5953C159.381 43.6372 161.311 44.141 163.37 44.141V42.141ZM157.536 37.915C157.536 36.4653 158.131 35.3664 159.249 34.5914C160.412 33.7856 162.213 33.287 164.643 33.287V31.287C161.981 31.287 159.728 31.8268 158.11 32.9473C156.449 34.0985 155.536 35.8137 155.536 37.915H157.536ZM164.643 33.287C167.674 33.287 170.432 33.8689 172.389 34.6265L173.111 32.7614C170.914 31.911 167.91 31.287 164.643 31.287V33.287ZM171.75 33.694V35.704H173.75V33.694H171.75ZM210.318 48.501H209.318V49.501H210.318V48.501ZM217.956 48.501V49.501H218.471L218.77 49.0816L217.956 48.501ZM234.773 24.917H235.773V21.7922L233.959 24.3364L234.773 24.917ZM234.773 48.501H233.773V49.501H234.773V48.501ZM242.612 48.501V49.501H243.612V48.501H242.612ZM242.612 13.125H243.612V12.125H242.612V13.125ZM234.974 13.125V12.125H234.458L234.159 12.545L234.974 13.125ZM218.224 36.843H217.224V40.0028L219.042 37.4183L218.224 36.843ZM218.224 13.125H219.224V12.125H218.224V13.125ZM210.318 13.125V12.125H209.318V13.125H210.318ZM210.318 49.501H217.956V47.501H210.318V49.501ZM218.77 49.0816L235.587 25.4976L233.959 24.3364L217.142 47.9204L218.77 49.0816ZM233.773 24.917V48.501H235.773V24.917H233.773ZM234.773 49.501H242.612V47.501H234.773V49.501ZM243.612 48.501V13.125H241.612V48.501H243.612ZM242.612 12.125H234.974V14.125H242.612V12.125ZM234.159 12.545C228.529 20.4537 222.967 28.362 217.406 36.2677L219.042 37.4183C224.603 29.5119 230.163 21.6082 235.789 13.7049L234.159 12.545ZM219.224 36.843V13.125H217.224V36.843H219.224ZM218.224 12.125H210.318V14.125H218.224V12.125ZM209.318 13.125V48.501H211.318V13.125H209.318ZM283.602 42.672L284.347 43.3395L284.983 42.6296L284.304 41.96L283.602 42.672ZM278.711 37.848L279.413 37.136L278.697 36.4295L277.995 37.1501L278.711 37.848ZM278.309 23.912L277.583 24.6002L278.318 25.3743L279.043 24.5914L278.309 23.912ZM283.334 18.485L284.068 19.1644L284.69 18.4918L284.074 17.813L283.334 18.485ZM269.13 50.305C272.721 50.305 275.625 49.5885 278.098 48.3382C280.565 47.0914 282.554 45.3392 284.347 43.3395L282.857 42.0044C281.166 43.8907 279.369 45.4551 277.196 46.5532C275.03 47.648 272.44 48.305 269.13 48.305V50.305ZM284.304 41.96L279.413 37.136L278.009 38.5599L282.9 43.3839L284.304 41.96ZM277.995 37.1501C275.549 39.6606 272.977 41.27 269.532 41.27V43.27C273.725 43.27 276.781 41.2614 279.427 38.5458L277.995 37.1501ZM269.532 41.27C263.943 41.27 259.946 36.7203 259.946 30.88H257.946C257.946 37.6356 262.659 43.27 269.532 43.27V41.27ZM259.946 30.88V30.746H257.946V30.88H259.946ZM259.946 30.746C259.946 25.0162 263.897 20.49 269.13 20.49V18.49C262.571 18.49 257.946 24.1477 257.946 30.746H259.946ZM269.13 20.49C272.837 20.49 275.206 22.094 277.583 24.6002L279.034 23.2237C276.454 20.504 273.597 18.49 269.13 18.49V20.49ZM279.043 24.5914L284.068 19.1644L282.6 17.8056L277.575 23.2326L279.043 24.5914ZM284.074 17.813C280.624 14.0099 276.21 11.388 269.197 11.388V13.388C275.584 13.388 279.478 15.7241 282.593 19.157L284.074 17.813ZM269.197 11.388C258.03 11.388 249.839 20.3065 249.839 30.88H251.839C251.839 21.3535 259.192 13.388 269.197 13.388V11.388ZM249.839 30.88V31.014H251.839V30.88H249.839ZM249.839 31.014C249.839 41.5994 258.042 50.305 269.13 50.305V48.305C259.18 48.305 251.839 40.5286 251.839 31.014H249.839ZM298.302 48.501H297.302V49.501H298.302V48.501ZM306.476 48.501V49.501H307.476V48.501H306.476ZM306.476 20.093V19.093H305.476V20.093H306.476ZM317.866 20.093V21.093H318.866V20.093H317.866ZM317.866 13.125H318.866V12.125H317.866V13.125ZM286.912 13.125V12.125H285.912V13.125H286.912ZM286.912 20.093H285.912V21.093H286.912V20.093ZM298.302 20.093H299.302V19.093H298.302V20.093ZM298.302 49.501H306.476V47.501H298.302V49.501ZM307.476 48.501V20.093H305.476V48.501H307.476ZM306.476 21.093H317.866V19.093H306.476V21.093ZM318.866 20.093V13.125H316.866V20.093H318.866ZM317.866 12.125H286.912V14.125H317.866V12.125ZM285.912 13.125V20.093H287.912V13.125H285.912ZM286.912 21.093H298.302V19.093H286.912V21.093ZM297.302 20.093V48.501H299.302V20.093H297.302ZM341.114 50.305C352.58 50.305 361.075 41.4893 361.075 30.88H359.075C359.075 40.3707 351.489 48.305 341.114 48.305V50.305ZM361.075 30.88C361.075 20.0743 352.652 11.388 341.248 11.388V13.388C351.552 13.388 359.075 21.1836 359.075 30.88H361.075ZM341.248 11.388C329.844 11.388 321.354 20.2083 321.354 30.88H323.354C323.354 21.3176 330.944 13.388 341.248 13.388V11.388ZM321.354 30.88C321.354 41.6186 329.777 50.305 341.114 50.305V48.305C330.876 48.305 323.354 40.5093 323.354 30.88H321.354ZM341.248 41.27C335.579 41.27 331.461 36.5725 331.461 30.88H329.461C329.461 37.5154 334.32 43.27 341.248 43.27V41.27ZM331.461 30.88C331.461 25.0308 335.265 20.49 341.114 20.49V18.49C333.964 18.49 329.461 24.1332 329.461 30.88H331.461ZM341.114 20.49C346.856 20.49 350.968 25.1287 350.968 30.88H352.968C352.968 24.1693 348.101 18.49 341.114 18.49V20.49ZM350.968 30.88C350.968 36.6617 347.164 41.27 341.248 41.27V43.27C348.464 43.27 352.968 37.5602 352.968 30.88H350.968ZM368.331 59.221H367.331V60.221H368.331V59.221ZM376.438 59.221V60.221H377.438V59.221H376.438ZM376.438 43.007L377.236 42.4044L375.438 40.0232V43.007H376.438ZM376.438 19.021H375.438V22.1601L377.254 19.5994L376.438 19.021ZM376.438 13.125H377.438V12.125H376.438V13.125ZM368.331 13.125V12.125H367.331V13.125H368.331ZM368.331 60.221H376.438V58.221H368.331V60.221ZM377.438 59.221V43.007H375.438V59.221H377.438ZM375.64 43.6096C378.243 47.057 382.194 50.238 388.431 50.238V48.238C383.009 48.238 379.591 45.5229 377.236 42.4044L375.64 43.6096ZM388.431 50.238C397.443 50.238 405.913 43.1393 405.913 30.88H403.913C403.913 42.0706 396.303 48.238 388.431 48.238V50.238ZM405.913 30.88C405.913 18.4891 397.378 11.388 388.431 11.388V13.388C396.233 13.388 403.913 19.5528 403.913 30.88H405.913ZM388.431 11.388C382.312 11.388 378.356 14.5867 375.622 18.4425L377.254 19.5994C379.745 16.0852 383.16 13.388 388.431 13.388V11.388ZM377.438 19.021V13.125H375.438V19.021H377.438ZM376.438 12.125H368.331V14.125H376.438V12.125ZM367.331 13.125V59.221H369.331V13.125H367.331ZM386.555 41.203C381.653 41.203 377.237 37.2029 377.237 30.88H375.237C375.237 38.225 380.468 43.203 386.555 43.203V41.203ZM377.237 30.88C377.237 24.4778 381.665 20.423 386.555 20.423V18.423C380.457 18.423 375.237 23.4801 375.237 30.88H377.237ZM386.555 20.423C391.432 20.423 395.672 24.397 395.672 30.746H397.672C397.672 23.427 392.666 18.423 386.555 18.423V20.423ZM395.672 30.746C395.672 37.3674 391.494 41.203 386.555 41.203V43.203C392.737 43.203 397.672 38.3285 397.672 30.746H395.672ZM413.216 48.501H412.216V49.501H413.216V48.501ZM420.854 48.501V49.501H421.369L421.668 49.0816L420.854 48.501ZM437.671 24.917H438.671V21.7922L436.856 24.3364L437.671 24.917ZM437.671 48.501H436.671V49.501H437.671V48.501ZM445.51 48.501V49.501H446.51V48.501H445.51ZM445.51 13.125H446.51V12.125H445.51V13.125ZM437.872 13.125V12.125H437.356L437.057 12.545L437.872 13.125ZM421.122 36.843H420.122V40.0028L421.939 37.4183L421.122 36.843ZM421.122 13.125H422.122V12.125H421.122V13.125ZM413.216 13.125V12.125H412.216V13.125H413.216ZM413.216 49.501H420.854V47.501H413.216V49.501ZM421.668 49.0816L438.485 25.4976L436.856 24.3364L420.039 47.9204L421.668 49.0816ZM436.671 24.917V48.501H438.671V24.917H436.671ZM437.671 49.501H445.51V47.501H437.671V49.501ZM446.51 48.501V13.125H444.51V48.501H446.51ZM445.51 12.125H437.872V14.125H445.51V12.125ZM437.057 12.545C431.427 20.4537 425.864 28.362 420.304 36.2677L421.939 37.4183C427.501 29.5119 433.06 21.6082 438.686 13.7049L437.057 12.545ZM422.122 36.843V13.125H420.122V36.843H422.122ZM421.122 12.125H413.216V14.125H421.122V12.125ZM412.216 13.125V48.501H414.216V13.125H412.216ZM452.463 48.501L451.659 47.9075L450.484 49.501H452.463V48.501ZM461.977 48.501V49.501H462.497L462.796 49.0757L461.977 48.501ZM470.352 36.575V35.575H469.833L469.534 36.0003L470.352 36.575ZM477.588 36.575H478.588V35.575H477.588V36.575ZM477.588 48.501H476.588V49.501H477.588V48.501ZM485.695 48.501V49.501H486.695V48.501H485.695ZM485.695 13.125H486.695V12.125H485.695V13.125ZM462.245 35.235L463.05 35.8285L463.889 34.6914L462.538 34.2786L462.245 35.235ZM477.588 19.691H478.588V18.691H477.588V19.691ZM477.588 30.478V31.478H478.588V30.478H477.588ZM452.463 49.501H461.977V47.501H452.463V49.501ZM462.796 49.0757L471.171 37.1497L469.534 36.0003L461.159 47.9263L462.796 49.0757ZM470.352 37.575H477.588V35.575H470.352V37.575ZM476.588 36.575V48.501H478.588V36.575H476.588ZM477.588 49.501H485.695V47.501H477.588V49.501ZM486.695 48.501V13.125H484.695V48.501H486.695ZM485.695 12.125H467.94V14.125H485.695V12.125ZM467.94 12.125C463.317 12.125 459.579 13.3421 456.981 15.5642C454.366 17.8003 453.004 20.9708 453.004 24.649H455.004C455.004 21.4932 456.155 18.9017 458.281 17.0842C460.422 15.2529 463.652 14.125 467.94 14.125V12.125ZM453.004 24.649C453.004 27.6471 453.93 30.1537 455.544 32.1108C457.15 34.0583 459.393 35.409 461.953 36.1913L462.538 34.2786C460.274 33.587 458.396 32.4252 457.087 30.8384C455.787 29.2613 455.004 27.2119 455.004 24.649H453.004ZM461.441 34.6415L451.659 47.9075L453.268 49.0945L463.05 35.8285L461.441 34.6415ZM469.079 29.478C467.15 29.478 465.642 29.0097 464.643 28.2498C463.673 27.5125 463.111 26.4525 463.111 25.051H461.111C461.111 27.0665 461.957 28.7199 463.432 29.8419C464.878 30.9412 466.855 31.478 469.079 31.478V29.478ZM463.111 25.051C463.111 23.6641 463.638 22.6246 464.566 21.9053C465.526 21.1619 467.01 20.691 469.012 20.691V18.691C466.727 18.691 464.76 19.2251 463.341 20.3242C461.892 21.4474 461.111 23.0878 461.111 25.051H463.111ZM469.012 20.691H477.588V18.691H469.012V20.691ZM476.588 19.691V30.478H478.588V19.691H476.588ZM477.588 29.478H469.079V31.478H477.588V29.478Z" fill="white"/>
</svg>
