<svg xmlns="http://www.w3.org/2000/svg" xmlns:xlink="http://www.w3.org/1999/xlink" viewBox="0 0 404.34 96.23"><defs><style>.cls-1{opacity:0.47;}.cls-2{fill:url(#linear-gradient);}.cls-3{fill:url(#linear-gradient-2);}.cls-4{fill:url(#linear-gradient-3);}.cls-5{fill:url(#linear-gradient-4);}.cls-6{fill:url(#linear-gradient-5);}.cls-7{fill:url(#linear-gradient-6);}.cls-8{fill:url(#linear-gradient-7);}.cls-9{fill:url(#linear-gradient-8);}.cls-10{fill:url(#linear-gradient-9);}.cls-11{fill:url(#linear-gradient-10);}.cls-12{fill:url(#linear-gradient-11);}.cls-13{fill:url(#linear-gradient-12);}.cls-14{fill:url(#linear-gradient-13);}.cls-15{fill:url(#linear-gradient-14);}.cls-16{fill:url(#linear-gradient-15);}.cls-17{fill:url(#linear-gradient-16);}.cls-18{fill:url(#linear-gradient-17);}.cls-19{fill:url(#linear-gradient-18);}.cls-20{fill:url(#linear-gradient-19);}.cls-21{fill:url(#linear-gradient-20);}.cls-22{fill:url(#linear-gradient-21);}.cls-23{fill:url(#linear-gradient-22);}.cls-24{fill:url(#linear-gradient-23);}.cls-25{fill:url(#linear-gradient-24);}.cls-26{fill:url(#linear-gradient-25);}.cls-27{fill:url(#linear-gradient-26);}.cls-28{fill:url(#linear-gradient-27);}.cls-29{fill:url(#linear-gradient-28);}.cls-30{fill:url(#linear-gradient-29);}.cls-31{fill:url(#linear-gradient-30);}.cls-32{fill:url(#linear-gradient-31);}.cls-33{fill:url(#linear-gradient-32);}.cls-34{fill:url(#linear-gradient-33);}.cls-35{fill:url(#linear-gradient-34);}.cls-36{fill:url(#linear-gradient-35);}.cls-37{fill:url(#linear-gradient-36);}.cls-38{fill:url(#linear-gradient-37);}.cls-39{fill:url(#linear-gradient-38);}.cls-40{fill:url(#linear-gradient-39);}.cls-41{fill:url(#linear-gradient-40);}.cls-42{fill:url(#linear-gradient-41);}.cls-43{fill:url(#linear-gradient-42);}.cls-44{fill:url(#linear-gradient-43);}.cls-45{fill:url(#linear-gradient-44);}.cls-46{fill:url(#linear-gradient-45);}.cls-47{fill:url(#linear-gradient-46);}.cls-48{fill:url(#linear-gradient-47);}.cls-49{fill:url(#linear-gradient-48);}.cls-50{fill:url(#linear-gradient-49);}.cls-51{fill:url(#linear-gradient-50);}.cls-52{fill:url(#linear-gradient-51);}.cls-53{fill:url(#linear-gradient-52);}.cls-54{fill:url(#linear-gradient-53);}.cls-55{fill:url(#linear-gradient-54);}.cls-56{fill:url(#linear-gradient-55);}.cls-57{fill:url(#linear-gradient-56);}.cls-58{fill:url(#linear-gradient-57);}.cls-59{fill:url(#linear-gradient-58);}.cls-60{fill:url(#linear-gradient-59);}.cls-61{fill:url(#linear-gradient-60);}.cls-62{fill:url(#linear-gradient-61);}.cls-63{fill:url(#linear-gradient-62);}.cls-64{fill:url(#linear-gradient-63);}.cls-65{fill:url(#linear-gradient-64);}.cls-66{fill:url(#linear-gradient-65);}.cls-67{fill:url(#linear-gradient-66);}.cls-68{fill:url(#linear-gradient-67);}.cls-69{fill:url(#linear-gradient-68);}.cls-70{fill:url(#linear-gradient-69);}.cls-71{fill:url(#linear-gradient-70);}.cls-72{fill:url(#linear-gradient-71);}.cls-73{fill:url(#linear-gradient-72);}.cls-74{fill:url(#linear-gradient-73);}.cls-75{fill:url(#linear-gradient-74);}.cls-76{fill:url(#linear-gradient-75);}.cls-77{fill:url(#linear-gradient-76);}.cls-78{fill:url(#linear-gradient-77);}.cls-79{fill:url(#linear-gradient-78);}.cls-80{fill:url(#linear-gradient-79);}.cls-81{fill:url(#linear-gradient-80);}.cls-82{fill:url(#linear-gradient-81);}.cls-83{fill:url(#linear-gradient-82);}.cls-84{fill:url(#linear-gradient-83);}.cls-85{fill:url(#linear-gradient-84);}.cls-86{fill:url(#linear-gradient-85);}.cls-87{fill:url(#linear-gradient-86);}.cls-88{fill:url(#linear-gradient-87);}.cls-89{fill:url(#linear-gradient-88);}.cls-90{fill:url(#linear-gradient-89);}.cls-91{fill:url(#linear-gradient-90);}.cls-92{fill:url(#linear-gradient-91);}.cls-93{fill:url(#linear-gradient-92);}.cls-94{fill:url(#linear-gradient-93);}.cls-95{fill:url(#linear-gradient-94);}.cls-96{fill:url(#linear-gradient-95);}.cls-97{fill:url(#linear-gradient-96);}.cls-98{fill:url(#linear-gradient-97);}.cls-99{fill:url(#linear-gradient-98);}.cls-100{fill:url(#linear-gradient-99);}.cls-101{fill:url(#linear-gradient-100);}.cls-102{fill:url(#linear-gradient-101);}.cls-103{fill:url(#linear-gradient-102);}.cls-104{fill:url(#linear-gradient-103);}.cls-105{fill:url(#linear-gradient-104);}.cls-106{fill:url(#linear-gradient-105);}.cls-107{fill:url(#linear-gradient-106);}.cls-108{fill:url(#linear-gradient-107);}.cls-109{fill:url(#linear-gradient-108);}.cls-110{fill:url(#linear-gradient-109);}.cls-111{fill:url(#linear-gradient-110);}.cls-112{fill:url(#linear-gradient-111);}.cls-113{fill:url(#linear-gradient-112);}.cls-114{fill:url(#linear-gradient-113);}.cls-115{fill:url(#linear-gradient-114);}.cls-116{fill:url(#linear-gradient-115);}.cls-117{fill:url(#linear-gradient-116);}.cls-118{fill:url(#linear-gradient-117);}.cls-119{fill:url(#linear-gradient-118);}.cls-120{fill:url(#linear-gradient-119);}.cls-121{fill:url(#linear-gradient-120);}.cls-122{fill:url(#linear-gradient-121);}.cls-123{fill:url(#linear-gradient-122);}.cls-124{fill:url(#linear-gradient-123);}.cls-125{fill:url(#linear-gradient-124);}.cls-126{fill:url(#linear-gradient-125);}.cls-127{fill:url(#linear-gradient-126);}.cls-128{fill:url(#linear-gradient-127);}.cls-129{fill:url(#linear-gradient-128);}.cls-130{fill:url(#linear-gradient-129);}.cls-131{fill:url(#linear-gradient-130);}.cls-132{fill:url(#linear-gradient-131);}.cls-133{fill:url(#linear-gradient-132);}.cls-134{fill:url(#linear-gradient-133);}.cls-135{fill:url(#linear-gradient-134);}.cls-136{fill:url(#linear-gradient-135);}.cls-137{fill:url(#linear-gradient-136);}.cls-138{fill:url(#linear-gradient-137);}.cls-139{fill:url(#linear-gradient-138);}.cls-140{fill:url(#linear-gradient-139);}.cls-141{fill:#fff;}</style><linearGradient id="linear-gradient" x1="4" y1="31.74" x2="8.03" y2="31.74" gradientUnits="userSpaceOnUse"><stop offset="0" stop-color="#fff" stop-opacity="0.7"/><stop offset="0.2" stop-color="#fff" stop-opacity="0.73"/><stop offset="0.48" stop-color="#fff" stop-opacity="0.8"/><stop offset="0.8" stop-color="#fff" stop-opacity="0.91"/><stop offset="1" stop-color="#fff"/></linearGradient><linearGradient id="linear-gradient-2" x1="4.22" y1="27.27" x2="8.25" y2="27.27" xlink:href="#linear-gradient"/><linearGradient id="linear-gradient-3" x1="4.45" y1="22.79" x2="8.47" y2="22.79" xlink:href="#linear-gradient"/><linearGradient id="linear-gradient-4" x1="4.67" y1="18.32" x2="8.7" y2="18.32" xlink:href="#linear-gradient"/><linearGradient id="linear-gradient-5" x1="4.89" y1="13.84" x2="8.92" y2="13.84" xlink:href="#linear-gradient"/><linearGradient id="linear-gradient-6" x1="8.25" y1="36.22" x2="12.28" y2="36.22" xlink:href="#linear-gradient"/><linearGradient id="linear-gradient-7" x1="9.59" y1="9.37" x2="13.62" y2="9.37" xlink:href="#linear-gradient"/><linearGradient id="linear-gradient-8" x1="12.73" y1="36.22" x2="16.75" y2="36.22" xlink:href="#linear-gradient"/><linearGradient id="linear-gradient-9" x1="14.07" y1="9.37" x2="18.09" y2="9.37" xlink:href="#linear-gradient"/><linearGradient id="linear-gradient-10" x1="17.2" y1="36.22" x2="21.23" y2="36.22" xlink:href="#linear-gradient"/><linearGradient id="linear-gradient-11" x1="18.54" y1="9.37" x2="22.57" y2="9.37" xlink:href="#linear-gradient"/><linearGradient id="linear-gradient-12" x1="21.9" y1="31.74" x2="25.92" y2="31.74" xlink:href="#linear-gradient"/><linearGradient id="linear-gradient-13" x1="22.12" y1="27.27" x2="26.15" y2="27.27" xlink:href="#linear-gradient"/><linearGradient id="linear-gradient-14" x1="22.35" y1="22.79" x2="26.37" y2="22.79" xlink:href="#linear-gradient"/><linearGradient id="linear-gradient-15" x1="22.57" y1="18.32" x2="26.6" y2="18.32" xlink:href="#linear-gradient"/><linearGradient id="linear-gradient-16" x1="22.79" y1="13.84" x2="26.82" y2="13.84" xlink:href="#linear-gradient"/><linearGradient id="linear-gradient-17" x1="30.62" y1="36.22" x2="34.65" y2="36.22" xlink:href="#linear-gradient"/><linearGradient id="linear-gradient-18" x1="30.85" y1="31.74" x2="34.87" y2="31.74" xlink:href="#linear-gradient"/><linearGradient id="linear-gradient-19" x1="31.07" y1="27.27" x2="35.1" y2="27.27" xlink:href="#linear-gradient"/><linearGradient id="linear-gradient-20" x1="31.29" y1="22.79" x2="35.32" y2="22.79" xlink:href="#linear-gradient"/><linearGradient id="linear-gradient-21" x1="31.52" y1="18.32" x2="35.54" y2="18.32" xlink:href="#linear-gradient"/><linearGradient id="linear-gradient-22" x1="31.74" y1="13.84" x2="35.77" y2="13.84" xlink:href="#linear-gradient"/><linearGradient id="linear-gradient-23" x1="31.96" y1="9.37" x2="35.99" y2="9.37" xlink:href="#linear-gradient"/><linearGradient id="linear-gradient-24" x1="35.1" y1="36.22" x2="39.12" y2="36.22" xlink:href="#linear-gradient"/><linearGradient id="linear-gradient-25" x1="35.77" y1="22.79" x2="39.79" y2="22.79" xlink:href="#linear-gradient"/><linearGradient id="linear-gradient-26" x1="36.44" y1="9.37" x2="40.47" y2="9.37" xlink:href="#linear-gradient"/><linearGradient id="linear-gradient-27" x1="39.57" y1="36.22" x2="43.6" y2="36.22" xlink:href="#linear-gradient"/><linearGradient id="linear-gradient-28" x1="40.24" y1="22.79" x2="44.27" y2="22.79" xlink:href="#linear-gradient"/><linearGradient id="linear-gradient-29" x1="40.91" y1="9.37" x2="44.94" y2="9.37" xlink:href="#linear-gradient"/><linearGradient id="linear-gradient-30" x1="44.05" y1="36.22" x2="48.07" y2="36.22" xlink:href="#linear-gradient"/><linearGradient id="linear-gradient-31" x1="44.72" y1="22.79" x2="48.74" y2="22.79" xlink:href="#linear-gradient"/><linearGradient id="linear-gradient-32" x1="45.39" y1="9.37" x2="49.42" y2="9.37" xlink:href="#linear-gradient"/><linearGradient id="linear-gradient-33" x1="48.74" y1="31.74" x2="52.77" y2="31.74" xlink:href="#linear-gradient"/><linearGradient id="linear-gradient-34" x1="48.97" y1="27.27" x2="52.99" y2="27.27" xlink:href="#linear-gradient"/><linearGradient id="linear-gradient-35" x1="49.42" y1="18.32" x2="53.44" y2="18.32" xlink:href="#linear-gradient"/><linearGradient id="linear-gradient-36" x1="49.64" y1="13.84" x2="53.67" y2="13.84" xlink:href="#linear-gradient"/><linearGradient id="linear-gradient-37" x1="57.47" y1="36.22" x2="61.5" y2="36.22" xlink:href="#linear-gradient"/><linearGradient id="linear-gradient-38" x1="57.69" y1="31.74" x2="61.72" y2="31.74" xlink:href="#linear-gradient"/><linearGradient id="linear-gradient-39" x1="57.92" y1="27.27" x2="61.94" y2="27.27" xlink:href="#linear-gradient"/><linearGradient id="linear-gradient-40" x1="58.14" y1="22.79" x2="62.17" y2="22.79" xlink:href="#linear-gradient"/><linearGradient id="linear-gradient-41" x1="58.36" y1="18.32" x2="62.39" y2="18.32" xlink:href="#linear-gradient"/><linearGradient id="linear-gradient-42" x1="58.59" y1="13.84" x2="62.61" y2="13.84" xlink:href="#linear-gradient"/><linearGradient id="linear-gradient-43" x1="58.81" y1="9.37" x2="62.84" y2="9.37" xlink:href="#linear-gradient"/><linearGradient id="linear-gradient-44" x1="61.94" y1="36.22" x2="65.97" y2="36.22" xlink:href="#linear-gradient"/><linearGradient id="linear-gradient-45" x1="66.42" y1="36.22" x2="70.44" y2="36.22" xlink:href="#linear-gradient"/><linearGradient id="linear-gradient-46" x1="70.89" y1="36.22" x2="74.92" y2="36.22" xlink:href="#linear-gradient"/><linearGradient id="linear-gradient-47" x1="75.37" y1="36.22" x2="79.39" y2="36.22" xlink:href="#linear-gradient"/><linearGradient id="linear-gradient-48" x1="84.32" y1="36.22" x2="88.34" y2="36.22" xlink:href="#linear-gradient"/><linearGradient id="linear-gradient-49" x1="84.54" y1="31.74" x2="88.57" y2="31.74" xlink:href="#linear-gradient"/><linearGradient id="linear-gradient-50" x1="84.76" y1="27.27" x2="88.79" y2="27.27" xlink:href="#linear-gradient"/><linearGradient id="linear-gradient-51" x1="84.99" y1="22.79" x2="89.01" y2="22.79" xlink:href="#linear-gradient"/><linearGradient id="linear-gradient-52" x1="85.21" y1="18.32" x2="89.24" y2="18.32" xlink:href="#linear-gradient"/><linearGradient id="linear-gradient-53" x1="85.43" y1="13.84" x2="89.46" y2="13.84" xlink:href="#linear-gradient"/><linearGradient id="linear-gradient-54" x1="89.46" y1="22.79" x2="93.49" y2="22.79" xlink:href="#linear-gradient"/><linearGradient id="linear-gradient-55" x1="90.13" y1="9.37" x2="94.16" y2="9.37" xlink:href="#linear-gradient"/><linearGradient id="linear-gradient-56" x1="93.94" y1="22.79" x2="97.96" y2="22.79" xlink:href="#linear-gradient"/><linearGradient id="linear-gradient-57" x1="94.61" y1="9.37" x2="98.63" y2="9.37" xlink:href="#linear-gradient"/><linearGradient id="linear-gradient-58" x1="98.41" y1="22.79" x2="102.44" y2="22.79" xlink:href="#linear-gradient"/><linearGradient id="linear-gradient-59" x1="99.08" y1="9.37" x2="103.11" y2="9.37" xlink:href="#linear-gradient"/><linearGradient id="linear-gradient-60" x1="102.21" y1="36.22" x2="106.24" y2="36.22" xlink:href="#linear-gradient"/><linearGradient id="linear-gradient-61" x1="102.44" y1="31.74" x2="106.46" y2="31.74" xlink:href="#linear-gradient"/><linearGradient id="linear-gradient-62" x1="102.66" y1="27.27" x2="106.69" y2="27.27" xlink:href="#linear-gradient"/><linearGradient id="linear-gradient-63" x1="102.88" y1="22.79" x2="106.91" y2="22.79" xlink:href="#linear-gradient"/><linearGradient id="linear-gradient-64" x1="103.11" y1="18.32" x2="107.13" y2="18.32" xlink:href="#linear-gradient"/><linearGradient id="linear-gradient-65" x1="103.33" y1="13.84" x2="107.36" y2="13.84" xlink:href="#linear-gradient"/><linearGradient id="linear-gradient-66" x1="111.16" y1="36.22" x2="115.19" y2="36.22" xlink:href="#linear-gradient"/><linearGradient id="linear-gradient-67" x1="111.39" y1="31.74" x2="115.41" y2="31.74" xlink:href="#linear-gradient"/><linearGradient id="linear-gradient-68" x1="111.61" y1="27.27" x2="115.64" y2="27.27" xlink:href="#linear-gradient"/><linearGradient id="linear-gradient-69" x1="111.83" y1="22.79" x2="115.86" y2="22.79" xlink:href="#linear-gradient"/><linearGradient id="linear-gradient-70" x1="112.06" y1="18.32" x2="116.08" y2="18.32" xlink:href="#linear-gradient"/><linearGradient id="linear-gradient-71" x1="112.28" y1="13.84" x2="116.31" y2="13.84" xlink:href="#linear-gradient"/><linearGradient id="linear-gradient-72" x1="112.5" y1="9.37" x2="116.53" y2="9.37" xlink:href="#linear-gradient"/><linearGradient id="linear-gradient-73" x1="116.31" y1="22.79" x2="120.33" y2="22.79" xlink:href="#linear-gradient"/><linearGradient id="linear-gradient-74" x1="120.56" y1="27.27" x2="124.58" y2="27.27" xlink:href="#linear-gradient"/><linearGradient id="linear-gradient-75" x1="121.01" y1="18.32" x2="125.03" y2="18.32" xlink:href="#linear-gradient"/><linearGradient id="linear-gradient-76" x1="124.81" y1="31.74" x2="128.84" y2="31.74" xlink:href="#linear-gradient"/><linearGradient id="linear-gradient-77" x1="125.7" y1="13.84" x2="129.73" y2="13.84" xlink:href="#linear-gradient"/><linearGradient id="linear-gradient-78" x1="129.06" y1="36.22" x2="133.09" y2="36.22" xlink:href="#linear-gradient"/><linearGradient id="linear-gradient-79" x1="130.4" y1="9.37" x2="134.43" y2="9.37" xlink:href="#linear-gradient"/><linearGradient id="linear-gradient-80" x1="138.23" y1="31.74" x2="142.26" y2="31.74" xlink:href="#linear-gradient"/><linearGradient id="linear-gradient-81" x1="138.46" y1="27.27" x2="142.48" y2="27.27" xlink:href="#linear-gradient"/><linearGradient id="linear-gradient-82" x1="138.68" y1="22.79" x2="142.71" y2="22.79" xlink:href="#linear-gradient"/><linearGradient id="linear-gradient-83" x1="138.9" y1="18.32" x2="142.93" y2="18.32" xlink:href="#linear-gradient"/><linearGradient id="linear-gradient-84" x1="139.13" y1="13.84" x2="143.15" y2="13.84" xlink:href="#linear-gradient"/><linearGradient id="linear-gradient-85" x1="142.48" y1="36.22" x2="146.51" y2="36.22" xlink:href="#linear-gradient"/><linearGradient id="linear-gradient-86" x1="143.82" y1="9.37" x2="147.85" y2="9.37" xlink:href="#linear-gradient"/><linearGradient id="linear-gradient-87" x1="146.96" y1="36.22" x2="150.98" y2="36.22" xlink:href="#linear-gradient"/><linearGradient id="linear-gradient-88" x1="148.3" y1="9.37" x2="152.33" y2="9.37" xlink:href="#linear-gradient"/><linearGradient id="linear-gradient-89" x1="151.43" y1="36.22" x2="155.46" y2="36.22" xlink:href="#linear-gradient"/><linearGradient id="linear-gradient-90" x1="152.77" y1="9.37" x2="156.8" y2="9.37" xlink:href="#linear-gradient"/><linearGradient id="linear-gradient-91" x1="156.13" y1="31.74" x2="160.16" y2="31.74" xlink:href="#linear-gradient"/><linearGradient id="linear-gradient-92" x1="156.35" y1="27.27" x2="160.38" y2="27.27" xlink:href="#linear-gradient"/><linearGradient id="linear-gradient-93" x1="156.58" y1="22.79" x2="160.6" y2="22.79" xlink:href="#linear-gradient"/><linearGradient id="linear-gradient-94" x1="156.8" y1="18.32" x2="160.83" y2="18.32" xlink:href="#linear-gradient"/><linearGradient id="linear-gradient-95" x1="157.02" y1="13.84" x2="161.05" y2="13.84" xlink:href="#linear-gradient"/><linearGradient id="linear-gradient-96" x1="165.3" y1="27.27" x2="169.33" y2="27.27" xlink:href="#linear-gradient"/><linearGradient id="linear-gradient-97" x1="165.53" y1="22.79" x2="169.55" y2="22.79" xlink:href="#linear-gradient"/><linearGradient id="linear-gradient-98" x1="165.75" y1="18.32" x2="169.78" y2="18.32" xlink:href="#linear-gradient"/><linearGradient id="linear-gradient-99" x1="165.97" y1="13.84" x2="170" y2="13.84" xlink:href="#linear-gradient"/><linearGradient id="linear-gradient-100" x1="166.2" y1="9.37" x2="170.22" y2="9.37" xlink:href="#linear-gradient"/><linearGradient id="linear-gradient-101" x1="169.55" y1="31.74" x2="173.58" y2="31.74" xlink:href="#linear-gradient"/><linearGradient id="linear-gradient-102" x1="173.8" y1="36.22" x2="177.83" y2="36.22" xlink:href="#linear-gradient"/><linearGradient id="linear-gradient-103" x1="178.5" y1="31.74" x2="182.53" y2="31.74" xlink:href="#linear-gradient"/><linearGradient id="linear-gradient-104" x1="183.2" y1="27.27" x2="187.23" y2="27.27" xlink:href="#linear-gradient"/><linearGradient id="linear-gradient-105" x1="183.42" y1="22.79" x2="187.45" y2="22.79" xlink:href="#linear-gradient"/><linearGradient id="linear-gradient-106" x1="183.65" y1="18.32" x2="187.67" y2="18.32" xlink:href="#linear-gradient"/><linearGradient id="linear-gradient-107" x1="183.87" y1="13.84" x2="187.9" y2="13.84" xlink:href="#linear-gradient"/><linearGradient id="linear-gradient-108" x1="184.09" y1="9.37" x2="188.12" y2="9.37" xlink:href="#linear-gradient"/><linearGradient id="linear-gradient-109" x1="191.92" y1="31.74" x2="195.95" y2="31.74" xlink:href="#linear-gradient"/><linearGradient id="linear-gradient-110" x1="192.15" y1="27.27" x2="196.17" y2="27.27" xlink:href="#linear-gradient"/><linearGradient id="linear-gradient-111" x1="192.37" y1="22.79" x2="196.4" y2="22.79" xlink:href="#linear-gradient"/><linearGradient id="linear-gradient-112" x1="192.6" y1="18.32" x2="196.62" y2="18.32" xlink:href="#linear-gradient"/><linearGradient id="linear-gradient-113" x1="192.82" y1="13.84" x2="196.85" y2="13.84" xlink:href="#linear-gradient"/><linearGradient id="linear-gradient-114" x1="196.17" y1="36.22" x2="200.2" y2="36.22" xlink:href="#linear-gradient"/><linearGradient id="linear-gradient-115" x1="197.52" y1="9.37" x2="201.54" y2="9.37" xlink:href="#linear-gradient"/><linearGradient id="linear-gradient-116" x1="200.65" y1="36.22" x2="204.68" y2="36.22" xlink:href="#linear-gradient"/><linearGradient id="linear-gradient-117" x1="201.99" y1="9.37" x2="206.02" y2="9.37" xlink:href="#linear-gradient"/><linearGradient id="linear-gradient-118" x1="205.12" y1="36.22" x2="209.15" y2="36.22" xlink:href="#linear-gradient"/><linearGradient id="linear-gradient-119" x1="206.47" y1="9.37" x2="210.49" y2="9.37" xlink:href="#linear-gradient"/><linearGradient id="linear-gradient-120" x1="209.82" y1="31.74" x2="213.85" y2="31.74" xlink:href="#linear-gradient"/><linearGradient id="linear-gradient-121" x1="210.05" y1="27.27" x2="214.07" y2="27.27" xlink:href="#linear-gradient"/><linearGradient id="linear-gradient-122" x1="210.27" y1="22.79" x2="214.3" y2="22.79" xlink:href="#linear-gradient"/><linearGradient id="linear-gradient-123" x1="210.49" y1="18.32" x2="214.52" y2="18.32" xlink:href="#linear-gradient"/><linearGradient id="linear-gradient-124" x1="210.72" y1="13.84" x2="214.74" y2="13.84" xlink:href="#linear-gradient"/><linearGradient id="linear-gradient-125" x1="218.55" y1="36.22" x2="222.57" y2="36.22" xlink:href="#linear-gradient"/><linearGradient id="linear-gradient-126" x1="219.44" y1="18.32" x2="223.47" y2="18.32" xlink:href="#linear-gradient"/><linearGradient id="linear-gradient-127" x1="219.67" y1="13.84" x2="223.69" y2="13.84" xlink:href="#linear-gradient"/><linearGradient id="linear-gradient-128" x1="223.02" y1="36.22" x2="227.05" y2="36.22" xlink:href="#linear-gradient"/><linearGradient id="linear-gradient-129" x1="223.69" y1="22.79" x2="227.72" y2="22.79" xlink:href="#linear-gradient"/><linearGradient id="linear-gradient-130" x1="224.36" y1="9.37" x2="228.39" y2="9.37" xlink:href="#linear-gradient"/><linearGradient id="linear-gradient-131" x1="227.5" y1="36.22" x2="231.52" y2="36.22" xlink:href="#linear-gradient"/><linearGradient id="linear-gradient-132" x1="228.17" y1="22.79" x2="232.19" y2="22.79" xlink:href="#linear-gradient"/><linearGradient id="linear-gradient-133" x1="228.84" y1="9.37" x2="232.87" y2="9.37" xlink:href="#linear-gradient"/><linearGradient id="linear-gradient-134" x1="231.97" y1="36.22" x2="236" y2="36.22" xlink:href="#linear-gradient"/><linearGradient id="linear-gradient-135" x1="232.64" y1="22.79" x2="236.67" y2="22.79" xlink:href="#linear-gradient"/><linearGradient id="linear-gradient-136" x1="233.31" y1="9.37" x2="237.34" y2="9.37" xlink:href="#linear-gradient"/><linearGradient id="linear-gradient-137" x1="236.67" y1="31.74" x2="240.7" y2="31.74" xlink:href="#linear-gradient"/><linearGradient id="linear-gradient-138" x1="236.89" y1="27.27" x2="240.92" y2="27.27" xlink:href="#linear-gradient"/><linearGradient id="linear-gradient-139" x1="237.79" y1="9.37" x2="241.81" y2="9.37" xlink:href="#linear-gradient"/></defs><g id="Layer_5" data-name="Layer 5"><path class="cls-2" d="M4,31.74a2,2,0,0,1,2-2,2,2,0,0,1,1.44.58A2,2,0,0,1,8,31.74a2,2,0,0,1-2,2,2,2,0,0,1-1.43-.59A1.91,1.91,0,0,1,4,31.74Z"/><path class="cls-3" d="M4.22,27.27a2,2,0,0,1,2-2,2,2,0,0,1,1.43.59,1.91,1.91,0,0,1,.58,1.43,2,2,0,0,1-2,2A2,2,0,0,1,4.8,28.7,2,2,0,0,1,4.22,27.27Z"/><path class="cls-4" d="M4.45,22.79a2,2,0,0,1,2-2,2,2,0,0,1,2,2,2,2,0,0,1-2,2,2,2,0,0,1-2-2Z"/><path class="cls-5" d="M4.67,18.32a1.91,1.91,0,0,1,.58-1.43,2,2,0,0,1,1.43-.59,2,2,0,1,1,0,4,2,2,0,0,1-2-2Z"/><path class="cls-6" d="M4.89,13.84a2,2,0,0,1,.59-1.43,1.91,1.91,0,0,1,1.43-.58,2,2,0,0,1,1.43,3.45,2,2,0,0,1-1.43.58,2,2,0,0,1-2-2Z"/><path class="cls-7" d="M8.25,36.22a2,2,0,0,1,.58-1.44,2,2,0,0,1,2.87,2.87,2.07,2.07,0,0,1-2.87,0A2,2,0,0,1,8.25,36.22Z"/><path class="cls-8" d="M9.59,9.37a2,2,0,0,1,2-2,2,2,0,0,1,2,2,2,2,0,0,1-2,2,2,2,0,0,1-2-2Z"/><path class="cls-9" d="M12.73,36.22a2,2,0,1,1,3.44,1.43,2,2,0,0,1-3.44-1.43Z"/><path class="cls-10" d="M14.07,9.37a2,2,0,1,1,4,0,2,2,0,1,1-4,0Z"/><path class="cls-11" d="M17.2,36.22a2,2,0,0,1,.58-1.44,2,2,0,0,1,1.43-.58,2,2,0,0,1,1.43,3.45,1.91,1.91,0,0,1-1.43.58,2,2,0,0,1-2-2Z"/><path class="cls-12" d="M18.54,9.37a1.93,1.93,0,0,1,.58-1.43A2,2,0,0,1,22,10.8a2,2,0,0,1-3.45-1.43Z"/><path class="cls-13" d="M21.9,31.74a2,2,0,1,1,4,0,1.91,1.91,0,0,1-.58,1.43,2,2,0,0,1-2.86,0A1.91,1.91,0,0,1,21.9,31.74Z"/><path class="cls-14" d="M22.12,27.27a1.91,1.91,0,0,1,.58-1.43,2,2,0,0,1,3.45,1.43,2,2,0,0,1-.58,1.43,2,2,0,0,1-3.45-1.43Z"/><path class="cls-15" d="M22.35,22.79a2,2,0,0,1,.58-1.43,1.91,1.91,0,0,1,1.43-.58,2,2,0,0,1,1.43,3.45,2,2,0,0,1-1.43.58,2,2,0,0,1-2-2Z"/><path class="cls-16" d="M22.57,18.32a1.91,1.91,0,0,1,.58-1.43,2,2,0,0,1,1.43-.59A2,2,0,0,1,26,19.75a1.91,1.91,0,0,1-1.43.58,2,2,0,0,1-2-2Z"/><path class="cls-17" d="M22.79,13.84a2,2,0,0,1,.58-1.43,2,2,0,0,1,2.87,2.87,2,2,0,0,1-3.45-1.44Z"/><path class="cls-18" d="M30.62,36.22a2,2,0,0,1,3.45-1.44,2,2,0,0,1-2.87,2.87A2,2,0,0,1,30.62,36.22Z"/><path class="cls-19" d="M30.85,31.74a2,2,0,1,1,4,0,1.91,1.91,0,0,1-.58,1.43,2,2,0,0,1-2.86,0A1.91,1.91,0,0,1,30.85,31.74Z"/><path class="cls-20" d="M31.07,27.27a1.91,1.91,0,0,1,.58-1.43,2,2,0,0,1,1.43-.59,2,2,0,0,1,2,2,2,2,0,0,1-.59,1.43,1.91,1.91,0,0,1-1.43.58,2,2,0,0,1-2-2Z"/><path class="cls-21" d="M31.29,22.79a2,2,0,0,1,.59-1.43,1.91,1.91,0,0,1,1.43-.58,2,2,0,0,1,1.43,3.45,2,2,0,0,1-1.43.58,2,2,0,0,1-2-2Z"/><path class="cls-22" d="M31.52,18.32a1.91,1.91,0,0,1,.58-1.43,2,2,0,0,1,2.86,0,2,2,0,1,1-3.44,1.43Z"/><path class="cls-23" d="M31.74,13.84a2,2,0,0,1,.58-1.43,2.07,2.07,0,0,1,2.87,0,2,2,0,1,1-3.45,1.43Z"/><path class="cls-24" d="M32,9.37a1.94,1.94,0,0,1,.59-1.43A1.91,1.91,0,0,1,34,7.36a2,2,0,0,1,2,2,2,2,0,1,1-4,0Z"/><path class="cls-25" d="M35.1,36.22a2,2,0,1,1,3.44,1.43,2,2,0,0,1-3.44-1.43Z"/><path class="cls-26" d="M35.77,22.79a2,2,0,1,1,3.44,1.44,2,2,0,0,1-3.44-1.44Z"/><path class="cls-27" d="M36.44,9.37a2,2,0,1,1,3.44,1.43,1.91,1.91,0,0,1-1.43.58,2,2,0,0,1-2-2Z"/><path class="cls-28" d="M39.57,36.22a2,2,0,0,1,.58-1.44A2,2,0,0,1,43,37.65a2,2,0,0,1-3.45-1.43Z"/><path class="cls-29" d="M40.24,22.79a2,2,0,0,1,.58-1.43,2,2,0,0,1,2.87,2.87,2,2,0,0,1-3.45-1.44Z"/><path class="cls-30" d="M40.91,9.37a1.94,1.94,0,0,1,.59-1.43,1.91,1.91,0,0,1,1.43-.58,2,2,0,0,1,2,2,2,2,0,1,1-4,0Z"/><path class="cls-31" d="M44.05,36.22a2,2,0,1,1,3.44,1.43,2,2,0,0,1-3.44-1.43Z"/><path class="cls-32" d="M44.72,22.79a2,2,0,1,1,3.44,1.44,2,2,0,0,1-3.44-1.44Z"/><path class="cls-33" d="M45.39,9.37a2,2,0,1,1,3.44,1.43,2,2,0,0,1-3.44-1.43Z"/><path class="cls-34" d="M48.74,31.74a2,2,0,0,1,.59-1.43,1.91,1.91,0,0,1,1.43-.58,2,2,0,0,1,2,2,1.91,1.91,0,0,1-.58,1.43,2,2,0,0,1-1.43.59,2,2,0,0,1-2-2Z"/><path class="cls-35" d="M49,27.27a1.91,1.91,0,0,1,.58-1.43,2,2,0,0,1,2.86,0A1.91,1.91,0,0,1,53,27.27a2,2,0,1,1-4,0Z"/><path class="cls-36" d="M49.42,18.32a2,2,0,0,1,2-2,2,2,0,0,1,1.43.59,2.05,2.05,0,0,1,0,2.86,2,2,0,0,1-1.43.58,2,2,0,0,1-2-2Z"/><path class="cls-37" d="M49.64,13.84a2,2,0,0,1,2-2,1.91,1.91,0,0,1,1.43.58,2,2,0,0,1-1.43,3.45,2,2,0,0,1-1.43-.58A2,2,0,0,1,49.64,13.84Z"/><path class="cls-38" d="M57.47,36.22a2,2,0,0,1,.58-1.44,2,2,0,0,1,1.43-.58,2,2,0,0,1,1.43,3.45,1.91,1.91,0,0,1-1.43.58,2,2,0,0,1-2-2Z"/><path class="cls-39" d="M57.69,31.74a2,2,0,0,1,.58-1.43,2,2,0,0,1,3.45,1.43,1.91,1.91,0,0,1-.58,1.43,2,2,0,0,1-3.45-1.43Z"/><path class="cls-40" d="M57.92,27.27a2,2,0,0,1,2-2,1.94,1.94,0,0,1,1.43.59,1.91,1.91,0,0,1,.58,1.43,2,2,0,0,1-2,2,1.91,1.91,0,0,1-1.43-.58A2,2,0,0,1,57.92,27.27Z"/><path class="cls-41" d="M58.14,22.79a2,2,0,0,1,3.45-1.43,2,2,0,0,1-2.87,2.87A2,2,0,0,1,58.14,22.79Z"/><path class="cls-42" d="M58.36,18.32a2,2,0,0,1,2-2,2,2,0,0,1,1.43.59,2.05,2.05,0,0,1,0,2.86,2,2,0,0,1-1.43.58A1.91,1.91,0,0,1,59,19.75,1.94,1.94,0,0,1,58.36,18.32Z"/><path class="cls-43" d="M58.59,13.84A2,2,0,1,1,62,15.28a2,2,0,0,1-3.44-1.44Z"/><path class="cls-44" d="M58.81,9.37a2,2,0,0,1,2-2,2,2,0,0,1,1.44,3.44,2.07,2.07,0,0,1-2.87,0A1.93,1.93,0,0,1,58.81,9.37Z"/><path class="cls-45" d="M61.94,36.22a2,2,0,0,1,2-2,2,2,0,0,1,1.43.58A2,2,0,0,1,64,38.23a1.91,1.91,0,0,1-1.43-.58A2,2,0,0,1,61.94,36.22Z"/><path class="cls-46" d="M66.42,36.22a2,2,0,1,1,3.44,1.43,2.05,2.05,0,0,1-2.86,0A2,2,0,0,1,66.42,36.22Z"/><path class="cls-47" d="M70.89,36.22a2,2,0,1,1,3.45,1.43,2.07,2.07,0,0,1-2.87,0A2,2,0,0,1,70.89,36.22Z"/><path class="cls-48" d="M75.37,36.22a2,2,0,1,1,3.44,1.43,2,2,0,0,1-3.44-1.43Z"/><path class="cls-49" d="M84.32,36.22a2,2,0,1,1,3.44,1.43,2,2,0,0,1-3.44-1.43Z"/><path class="cls-50" d="M84.54,31.74a2,2,0,0,1,2-2,1.91,1.91,0,0,1,1.43.58,2,2,0,0,1,.59,1.43,2,2,0,0,1-2,2,2,2,0,0,1-1.43-.59A1.91,1.91,0,0,1,84.54,31.74Z"/><path class="cls-51" d="M84.76,27.27a2,2,0,0,1,3.45-1.43,1.91,1.91,0,0,1,.58,1.43,2,2,0,0,1-3.45,1.43A2,2,0,0,1,84.76,27.27Z"/><path class="cls-52" d="M85,22.79a2,2,0,1,1,3.44,1.44A2,2,0,0,1,85,22.79Z"/><path class="cls-53" d="M85.21,18.32a1.91,1.91,0,0,1,.58-1.43,2,2,0,1,1,0,2.86A1.93,1.93,0,0,1,85.21,18.32Z"/><path class="cls-54" d="M85.43,13.84A2,2,0,0,1,86,12.41a1.91,1.91,0,0,1,1.43-.58,2,2,0,0,1,1.43,3.45,2,2,0,0,1-1.43.58,2,2,0,0,1-2-2Z"/><path class="cls-55" d="M89.46,22.79a2,2,0,0,1,3.45-1.43A2,2,0,0,1,90,24.23,2,2,0,0,1,89.46,22.79Z"/><path class="cls-56" d="M90.13,9.37a2,2,0,0,1,2-2,2,2,0,0,1,1.43.58,2.05,2.05,0,0,1,0,2.86,2.07,2.07,0,0,1-2.87,0A2,2,0,0,1,90.13,9.37Z"/><path class="cls-57" d="M93.94,22.79a2,2,0,0,1,.58-1.43A1.91,1.91,0,0,1,96,20.78a2,2,0,0,1,1.43,3.45,2,2,0,0,1-1.43.58,2,2,0,0,1-2-2Z"/><path class="cls-58" d="M94.61,9.37a2,2,0,1,1,4,0,2,2,0,1,1-4,0Z"/><path class="cls-59" d="M98.41,22.79a2,2,0,0,1,3.45-1.43A2,2,0,0,1,99,24.23,2,2,0,0,1,98.41,22.79Z"/><path class="cls-60" d="M99.08,9.37a2,2,0,0,1,2-2,2,2,0,0,1,1.44,3.44,2.07,2.07,0,0,1-2.87,0A1.93,1.93,0,0,1,99.08,9.37Z"/><path class="cls-61" d="M102.21,36.22a2,2,0,0,1,3.45-1.44,2,2,0,0,1-2.87,2.87A2,2,0,0,1,102.21,36.22Z"/><path class="cls-62" d="M102.44,31.74a2,2,0,1,1,4,0,1.91,1.91,0,0,1-.58,1.43,2,2,0,0,1-2.86,0A1.91,1.91,0,0,1,102.44,31.74Z"/><path class="cls-63" d="M102.66,27.27a1.91,1.91,0,0,1,.58-1.43,2,2,0,0,1,3.45,1.43,2,2,0,0,1-.58,1.43,2,2,0,0,1-3.45-1.43Z"/><path class="cls-64" d="M102.88,22.79a2,2,0,0,1,.59-1.43,1.91,1.91,0,0,1,1.43-.58,2,2,0,0,1,1.43,3.45,2,2,0,0,1-1.43.58,2,2,0,0,1-2-2Z"/><path class="cls-65" d="M103.11,18.32a1.91,1.91,0,0,1,.58-1.43,2,2,0,0,1,2.86,0,2,2,0,1,1-3.44,1.43Z"/><path class="cls-66" d="M103.33,13.84a2,2,0,0,1,.58-1.43,2.07,2.07,0,0,1,2.87,0,2,2,0,1,1-3.45,1.43Z"/><path class="cls-67" d="M111.16,36.22a2,2,0,0,1,.58-1.44,2,2,0,0,1,2.87,2.87,2,2,0,0,1-3.45-1.43Z"/><path class="cls-68" d="M111.39,31.74a2,2,0,0,1,.58-1.43,1.91,1.91,0,0,1,1.43-.58,2,2,0,0,1,2,2,1.91,1.91,0,0,1-.58,1.43,2,2,0,0,1-1.43.59,2,2,0,0,1-2-2Z"/><path class="cls-69" d="M111.61,27.27a1.91,1.91,0,0,1,.58-1.43,2,2,0,0,1,1.43-.59,2,2,0,0,1,2,2,2,2,0,0,1-.59,1.43,1.91,1.91,0,0,1-1.43.58,2,2,0,0,1-2-2Z"/><path class="cls-70" d="M111.83,22.79a2,2,0,0,1,.58-1.43,2,2,0,0,1,2.87,2.87,2,2,0,0,1-3.45-1.44Z"/><path class="cls-71" d="M112.06,18.32a1.91,1.91,0,0,1,.58-1.43,2,2,0,0,1,2.86,0,2,2,0,1,1-3.44,1.43Z"/><path class="cls-72" d="M112.28,13.84a2,2,0,0,1,3.45-1.43,2,2,0,0,1-2.87,2.87A2,2,0,0,1,112.28,13.84Z"/><path class="cls-73" d="M112.5,9.37a1.94,1.94,0,0,1,.59-1.43,1.91,1.91,0,0,1,1.43-.58,2,2,0,0,1,2,2,2,2,0,1,1-4,0Z"/><path class="cls-74" d="M116.31,22.79a2,2,0,1,1,3.44,1.44,2,2,0,0,1-3.44-1.44Z"/><path class="cls-75" d="M120.56,27.27a1.91,1.91,0,0,1,.58-1.43,2,2,0,0,1,2.86,0,1.91,1.91,0,0,1,.58,1.43A2,2,0,0,1,124,28.7a2.05,2.05,0,0,1-2.86,0A2,2,0,0,1,120.56,27.27Z"/><path class="cls-76" d="M121,18.32a2,2,0,0,1,2-2,1.94,1.94,0,0,1,1.43.59A2,2,0,1,1,121,18.32Z"/><path class="cls-77" d="M124.81,31.74a2,2,0,0,1,2-2,1.91,1.91,0,0,1,1.43.58,2,2,0,0,1,.59,1.43,2,2,0,1,1-4,0Z"/><path class="cls-78" d="M125.7,13.84a2,2,0,0,1,.59-1.43,1.91,1.91,0,0,1,1.43-.58,2,2,0,0,1,1.43,3.45,2,2,0,0,1-1.43.58,2,2,0,0,1-2-2Z"/><path class="cls-79" d="M129.06,36.22a2,2,0,0,1,.58-1.44,2,2,0,0,1,2.87,2.87,2,2,0,0,1-3.45-1.43Z"/><path class="cls-80" d="M130.4,9.37a2,2,0,0,1,2-2,2,2,0,0,1,1.43.58,2.05,2.05,0,0,1,0,2.86,2.07,2.07,0,0,1-2.87,0A2,2,0,0,1,130.4,9.37Z"/><path class="cls-81" d="M138.23,31.74a2,2,0,0,1,.58-1.43,2.07,2.07,0,0,1,2.87,0,2,2,0,0,1,.58,1.43,2,2,0,1,1-4,0Z"/><path class="cls-82" d="M138.46,27.27a2,2,0,0,1,2-2,1.94,1.94,0,0,1,1.43.59,1.91,1.91,0,0,1,.58,1.43,2,2,0,0,1-2,2A1.91,1.91,0,0,1,139,28.7,2,2,0,0,1,138.46,27.27Z"/><path class="cls-83" d="M138.68,22.79a2,2,0,0,1,2-2,1.91,1.91,0,0,1,1.43.58,2,2,0,0,1-1.43,3.45,2,2,0,0,1-1.43-.58A2,2,0,0,1,138.68,22.79Z"/><path class="cls-84" d="M138.9,18.32a2,2,0,0,1,3.45-1.43,2.05,2.05,0,0,1,0,2.86,2.07,2.07,0,0,1-2.87,0A2,2,0,0,1,138.9,18.32Z"/><path class="cls-85" d="M139.13,13.84a2,2,0,1,1,3.44,1.44,2,2,0,0,1-3.44-1.44Z"/><path class="cls-86" d="M142.48,36.22a2,2,0,1,1,3.45,1.43,2.07,2.07,0,0,1-2.87,0A2,2,0,0,1,142.48,36.22Z"/><path class="cls-87" d="M143.82,9.37a1.94,1.94,0,0,1,.59-1.43,1.91,1.91,0,0,1,1.43-.58,2,2,0,0,1,2,2,2,2,0,1,1-4,0Z"/><path class="cls-88" d="M147,36.22a2,2,0,1,1,3.44,1.43A2,2,0,0,1,147,36.22Z"/><path class="cls-89" d="M148.3,9.37a2,2,0,1,1,3.44,1.43,1.91,1.91,0,0,1-1.43.58,2,2,0,0,1-2-2Z"/><path class="cls-90" d="M151.43,36.22a2,2,0,1,1,3.45,1.43,2.07,2.07,0,0,1-2.87,0A2,2,0,0,1,151.43,36.22Z"/><path class="cls-91" d="M152.77,9.37a1.94,1.94,0,0,1,.59-1.43,1.91,1.91,0,0,1,1.43-.58,2,2,0,0,1,2,2,2,2,0,1,1-4,0Z"/><path class="cls-92" d="M156.13,31.74a2,2,0,0,1,2-2,1.91,1.91,0,0,1,1.43.58,2,2,0,0,1,.59,1.43,2,2,0,0,1-2,2,2,2,0,0,1-1.43-.59A1.91,1.91,0,0,1,156.13,31.74Z"/><path class="cls-93" d="M156.35,27.27a2,2,0,0,1,3.45-1.43,1.91,1.91,0,0,1,.58,1.43,2,2,0,0,1-3.45,1.43A2,2,0,0,1,156.35,27.27Z"/><path class="cls-94" d="M156.58,22.79A2,2,0,1,1,160,24.23a2,2,0,0,1-3.44-1.44Z"/><path class="cls-95" d="M156.8,18.32a1.91,1.91,0,0,1,.58-1.43,2,2,0,1,1,0,2.86A1.93,1.93,0,0,1,156.8,18.32Z"/><path class="cls-96" d="M157,13.84a2,2,0,0,1,.59-1.43,1.91,1.91,0,0,1,1.43-.58,2,2,0,0,1,1.43,3.45,2,2,0,0,1-1.43.58,2,2,0,0,1-2-2Z"/><path class="cls-97" d="M165.3,27.27a2,2,0,1,1,4,0,2,2,0,0,1-.58,1.43,2.07,2.07,0,0,1-2.87,0A2,2,0,0,1,165.3,27.27Z"/><path class="cls-98" d="M165.53,22.79a2,2,0,0,1,.58-1.43,2.05,2.05,0,0,1,2.86,0,2.07,2.07,0,0,1,0,2.87,2,2,0,0,1-3.44-1.44Z"/><path class="cls-99" d="M165.75,18.32a1.91,1.91,0,0,1,.58-1.43,2,2,0,0,1,1.43-.59,2,2,0,0,1,1.43,3.45,1.91,1.91,0,0,1-1.43.58,2,2,0,0,1-2-2Z"/><path class="cls-100" d="M166,13.84a2,2,0,0,1,.58-1.43,2,2,0,0,1,2.87,2.87A2,2,0,0,1,166,13.84Z"/><path class="cls-101" d="M166.2,9.37a2,2,0,1,1,4,0,2,2,0,1,1-4,0Z"/><path class="cls-102" d="M169.55,31.74a2,2,0,0,1,.58-1.43,2,2,0,0,1,3.45,1.43,1.91,1.91,0,0,1-.58,1.43,2,2,0,0,1-3.45-1.43Z"/><path class="cls-103" d="M173.8,36.22a2,2,0,0,1,2-2,2,2,0,0,1,1.43.58,2,2,0,0,1-1.43,3.45,1.91,1.91,0,0,1-1.43-.58A2,2,0,0,1,173.8,36.22Z"/><path class="cls-104" d="M178.5,31.74A2,2,0,0,1,182,30.31a2,2,0,0,1,.58,1.43,2,2,0,0,1-3.45,1.43A1.91,1.91,0,0,1,178.5,31.74Z"/><path class="cls-105" d="M183.2,27.27a1.91,1.91,0,0,1,.58-1.43,2,2,0,0,1,3.45,1.43,2,2,0,0,1-.58,1.43,2,2,0,0,1-3.45-1.43Z"/><path class="cls-106" d="M183.42,22.79a2,2,0,0,1,.59-1.43,1.91,1.91,0,0,1,1.43-.58,2,2,0,0,1,1.43,3.45,2,2,0,0,1-1.43.58,2,2,0,0,1-2-2Z"/><path class="cls-107" d="M183.65,18.32a1.91,1.91,0,0,1,.58-1.43,2,2,0,0,1,2.86,0,2,2,0,1,1-3.44,1.43Z"/><path class="cls-108" d="M183.87,13.84a2,2,0,0,1,3.45-1.43,2,2,0,0,1-2.87,2.87A2,2,0,0,1,183.87,13.84Z"/><path class="cls-109" d="M184.09,9.37a1.94,1.94,0,0,1,.59-1.43,1.91,1.91,0,0,1,1.43-.58,2,2,0,0,1,2,2,2,2,0,1,1-4,0Z"/><path class="cls-110" d="M191.92,31.74a2,2,0,0,1,.59-1.43,1.91,1.91,0,0,1,1.43-.58,2,2,0,0,1,2,2,1.91,1.91,0,0,1-.58,1.43,2,2,0,0,1-1.43.59,2,2,0,0,1-2-2Z"/><path class="cls-111" d="M192.15,27.27a1.91,1.91,0,0,1,.58-1.43,2,2,0,0,1,2.86,0,1.91,1.91,0,0,1,.58,1.43,2,2,0,0,1-.58,1.43,2.05,2.05,0,0,1-2.86,0A2,2,0,0,1,192.15,27.27Z"/><path class="cls-112" d="M192.37,22.79a2,2,0,0,1,.58-1.43,2.07,2.07,0,0,1,2.87,0,2,2,0,1,1-3.45,1.43Z"/><path class="cls-113" d="M192.6,18.32a1.91,1.91,0,0,1,.58-1.43,2,2,0,0,1,2.86,0,2,2,0,1,1-3.44,1.43Z"/><path class="cls-114" d="M192.82,13.84a2,2,0,0,1,2-2,1.91,1.91,0,0,1,1.43.58,2,2,0,0,1-1.43,3.45,2,2,0,0,1-1.43-.58A2,2,0,0,1,192.82,13.84Z"/><path class="cls-115" d="M196.17,36.22a2,2,0,0,1,2-2,2,2,0,0,1,1.43.58,2,2,0,0,1-1.43,3.45,1.91,1.91,0,0,1-1.43-.58A2,2,0,0,1,196.17,36.22Z"/><path class="cls-116" d="M197.52,9.37a2,2,0,1,1,4,0,2,2,0,1,1-4,0Z"/><path class="cls-117" d="M200.65,36.22a2,2,0,0,1,.58-1.44,2,2,0,0,1,2.87,2.87,2,2,0,0,1-3.45-1.43Z"/><path class="cls-118" d="M202,9.37a2,2,0,0,1,2-2,2,2,0,0,1,1.43.58,2.05,2.05,0,0,1,0,2.86,2.07,2.07,0,0,1-2.87,0A2,2,0,0,1,202,9.37Z"/><path class="cls-119" d="M205.12,36.22a2,2,0,0,1,2-2,2,2,0,0,1,1.43.58,2,2,0,0,1-1.43,3.45,1.91,1.91,0,0,1-1.43-.58A2,2,0,0,1,205.12,36.22Z"/><path class="cls-120" d="M206.47,9.37a2,2,0,1,1,4,0,2,2,0,1,1-4,0Z"/><path class="cls-121" d="M209.82,31.74a2,2,0,0,1,.58-1.43,2.07,2.07,0,0,1,2.87,0,2,2,0,0,1,.58,1.43,2,2,0,1,1-4,0Z"/><path class="cls-122" d="M210.05,27.27a1.91,1.91,0,0,1,.58-1.43,2,2,0,0,1,2.86,0,1.91,1.91,0,0,1,.58,1.43,2,2,0,1,1-4,0Z"/><path class="cls-123" d="M210.27,22.79a2,2,0,0,1,2-2,1.91,1.91,0,0,1,1.43.58,2,2,0,0,1-1.43,3.45,2,2,0,0,1-1.43-.58A2,2,0,0,1,210.27,22.79Z"/><path class="cls-124" d="M210.49,18.32a2,2,0,0,1,2-2,2,2,0,0,1,1.43.59,2.05,2.05,0,0,1,0,2.86,2,2,0,0,1-1.43.58,1.91,1.91,0,0,1-1.43-.58A1.94,1.94,0,0,1,210.49,18.32Z"/><path class="cls-125" d="M210.72,13.84a2,2,0,1,1,3.44,1.44,2,2,0,0,1-3.44-1.44Z"/><path class="cls-126" d="M218.55,36.22A2,2,0,1,1,222,37.65a2,2,0,0,1-3.44-1.43Z"/><path class="cls-127" d="M219.44,18.32a2,2,0,1,1,.58,1.43A2,2,0,0,1,219.44,18.32Z"/><path class="cls-128" d="M219.67,13.84a2,2,0,0,1,.58-1.43,2.05,2.05,0,0,1,2.86,0,2.07,2.07,0,0,1,0,2.87,2,2,0,0,1-3.44-1.44Z"/><path class="cls-129" d="M223,36.22a2,2,0,1,1,3.45,1.43,2.07,2.07,0,0,1-2.87,0A2,2,0,0,1,223,36.22Z"/><path class="cls-130" d="M223.69,22.79a2,2,0,0,1,.58-1.43,2,2,0,0,1,2.87,2.87,2,2,0,0,1-3.45-1.44Z"/><path class="cls-131" d="M224.36,9.37A1.94,1.94,0,0,1,225,7.94a1.91,1.91,0,0,1,1.43-.58,2,2,0,0,1,2,2,2,2,0,1,1-4,0Z"/><path class="cls-132" d="M227.5,36.22a2,2,0,1,1,3.44,1.43,2,2,0,0,1-3.44-1.43Z"/><path class="cls-133" d="M228.17,22.79a2,2,0,1,1,3.44,1.44,2,2,0,0,1-3.44-1.44Z"/><path class="cls-134" d="M228.84,9.37a2,2,0,1,1,3.44,1.43,2,2,0,0,1-3.44-1.43Z"/><path class="cls-135" d="M232,36.22a2,2,0,0,1,.58-1.44,2,2,0,0,1,2.87,2.87A2,2,0,0,1,232,36.22Z"/><path class="cls-136" d="M232.64,22.79a2,2,0,0,1,.58-1.43,2.07,2.07,0,0,1,2.87,0,2,2,0,1,1-3.45,1.43Z"/><path class="cls-137" d="M233.31,9.37a2,2,0,0,1,2-2,2,2,0,0,1,2,2,2,2,0,0,1-2,2,2,2,0,0,1-2-2Z"/><path class="cls-138" d="M236.67,31.74a2,2,0,0,1,2-2,1.91,1.91,0,0,1,1.43.58,2,2,0,0,1,.59,1.43,2,2,0,0,1-2,2,2,2,0,0,1-1.43-.59A1.91,1.91,0,0,1,236.67,31.74Z"/><path class="cls-139" d="M236.89,27.27a2,2,0,0,1,3.45-1.43,1.91,1.91,0,0,1,.58,1.43,2,2,0,0,1-3.45,1.43A2,2,0,0,1,236.89,27.27Z"/><path class="cls-140" d="M237.79,9.37a2,2,0,1,1,4,0,2,2,0,1,1-4,0Z"/><path class="cls-141" d="M385.82,89.94A74.08,74.08,0,0,1,376,91.62,95.29,95.29,0,0,1,366,92a119,119,0,0,1-19.92-2,163.28,163.28,0,0,1-38-12.56,147.53,147.53,0,0,1-17.51-9.74,112.12,112.12,0,0,1-15.8-12.35A62.16,62.16,0,0,1,262.4,39.51a31.53,31.53,0,0,1-3.24-9.64,19.82,19.82,0,0,1,1.15-10.16l.52-1.19c.17-.4.42-.76.62-1.14a19.19,19.19,0,0,1,1.44-2.15,22.32,22.32,0,0,1,3.64-3.63,32.59,32.59,0,0,1,8.92-4.88,63.8,63.8,0,0,1,19.8-3.41,96,96,0,0,1,10,.2c3.34.22,6.67.6,10,1.1A148.37,148.37,0,0,1,334.82,9a164,164,0,0,1,36.73,15.81,120.79,120.79,0,0,1,16.18,11.79,89,89,0,0,1,7.19,7,69.53,69.53,0,0,1,6.21,7.81,72.9,72.9,0,0,0-6.46-7.57,93.12,93.12,0,0,0-7.4-6.65A118.25,118.25,0,0,0,370.82,26a162.31,162.31,0,0,0-36.4-15.68A147.56,147.56,0,0,0,315.05,6c-3.27-.5-6.56-.87-9.85-1.08a96.28,96.28,0,0,0-9.9-.21,62.47,62.47,0,0,0-19.36,3.33,31.32,31.32,0,0,0-8.52,4.65,18.41,18.41,0,0,0-5.79,7.53,18.35,18.35,0,0,0-1.06,9.43,30.07,30.07,0,0,0,3.1,9.19,60.59,60.59,0,0,0,12.1,15.45,110.32,110.32,0,0,0,15.6,12.19,144.49,144.49,0,0,0,17.34,9.64,161.78,161.78,0,0,0,37.62,12.45A120.75,120.75,0,0,0,366,91.22a91.74,91.74,0,0,0,9.95,0A74.61,74.61,0,0,0,385.82,89.94Z"/><path class="cls-141" d="M395.31,82a7,7,0,0,1-3.68,6.18s0,0,0,0c-.66.25-1.34.47-2,.69h-.06c-9.15,2.87-21.15,3.5-34.57,1.8,0,0,0,0,0,0-.45-.08-.9-.13-1.37-.19A154.64,154.64,0,0,1,320.74,82c-40.23-15.17-67.06-42.76-59.94-61.65,6.95-18.48,43.83-21.77,83.08-7.71C306-.59,270.4,3,264.09,20.75s19.39,43.31,57.47,56.83a147.78,147.78,0,0,0,28.54,7.1,4.92,4.92,0,0,1,4.8-3.79,5.08,5.08,0,0,1,1.42.2,7.93,7.93,0,0,1,7.74-6.22,8.44,8.44,0,0,1,2.37.35A11.15,11.15,0,0,1,387.79,75h.5a7.07,7.07,0,0,1,6.28,3.88A7,7,0,0,1,395.31,82Z"/><path class="cls-141" d="M401.15,51.46H99.48s309.67-.85,264.73-29.11C364.21,22.35,391.11,34.83,401.15,51.46Z"/></g></svg>