<svg xmlns="http://www.w3.org/2000/svg" viewBox="0 0 404.34 96.23"><defs><style>.cls-1{opacity:0.47;}.cls-2{fill:#4d78ff;}</style></defs><g id="Layer_5" data-name="Layer 5"><path class="cls-2" d="M4,31.74a2,2,0,0,1,2-2,2,2,0,0,1,1.44.58A2,2,0,0,1,8,31.74a2,2,0,0,1-2,2,2,2,0,0,1-1.43-.59A1.91,1.91,0,0,1,4,31.74Z"/><path class="cls-2" d="M4.22,27.27a2,2,0,0,1,2-2,2,2,0,0,1,1.43.59,1.91,1.91,0,0,1,.58,1.43,2,2,0,0,1-2,2A2,2,0,0,1,4.8,28.7,2,2,0,0,1,4.22,27.27Z"/><path class="cls-2" d="M4.45,22.79a2,2,0,0,1,2-2,2,2,0,0,1,2,2,2,2,0,0,1-2,2,2,2,0,0,1-2-2Z"/><path class="cls-2" d="M4.67,18.32a1.91,1.91,0,0,1,.58-1.43,2,2,0,0,1,1.43-.59,2,2,0,1,1,0,4,2,2,0,0,1-2-2Z"/><path class="cls-2" d="M4.89,13.84a2,2,0,0,1,.59-1.43,1.91,1.91,0,0,1,1.43-.58,2,2,0,0,1,1.43,3.45,2,2,0,0,1-1.43.58,2,2,0,0,1-2-2Z"/><path class="cls-2" d="M8.25,36.22a2,2,0,0,1,.58-1.44,2,2,0,0,1,2.87,2.87,2.07,2.07,0,0,1-2.87,0A2,2,0,0,1,8.25,36.22Z"/><path class="cls-2" d="M9.59,9.37a2,2,0,0,1,2-2,2,2,0,0,1,2,2,2,2,0,0,1-2,2,2,2,0,0,1-2-2Z"/><path class="cls-2" d="M12.73,36.22a2,2,0,1,1,3.44,1.43,2,2,0,0,1-3.44-1.43Z"/><path class="cls-2" d="M14.07,9.37a2,2,0,1,1,4,0,2,2,0,1,1-4,0Z"/><path class="cls-2" d="M17.2,36.22a2,2,0,0,1,.58-1.44,2,2,0,0,1,1.43-.58,2,2,0,0,1,1.43,3.45,1.91,1.91,0,0,1-1.43.58,2,2,0,0,1-2-2Z"/><path class="cls-2" d="M18.54,9.37a1.93,1.93,0,0,1,.58-1.43A2,2,0,0,1,22,10.8a2,2,0,0,1-3.45-1.43Z"/><path class="cls-2" d="M21.9,31.74a2,2,0,1,1,4,0,1.91,1.91,0,0,1-.58,1.43,2,2,0,0,1-2.86,0A1.91,1.91,0,0,1,21.9,31.74Z"/><path class="cls-2" d="M22.12,27.27a1.91,1.91,0,0,1,.58-1.43,2,2,0,0,1,3.45,1.43,2,2,0,0,1-.58,1.43,2,2,0,0,1-3.45-1.43Z"/><path class="cls-2" d="M22.35,22.79a2,2,0,0,1,.58-1.43,1.91,1.91,0,0,1,1.43-.58,2,2,0,0,1,1.43,3.45,2,2,0,0,1-1.43.58,2,2,0,0,1-2-2Z"/><path class="cls-2" d="M22.57,18.32a1.91,1.91,0,0,1,.58-1.43,2,2,0,0,1,1.43-.59A2,2,0,0,1,26,19.75a1.91,1.91,0,0,1-1.43.58,2,2,0,0,1-2-2Z"/><path class="cls-2" d="M22.79,13.84a2,2,0,0,1,.58-1.43,2,2,0,0,1,2.87,2.87,2,2,0,0,1-3.45-1.44Z"/><path class="cls-2" d="M30.62,36.22a2,2,0,0,1,3.45-1.44,2,2,0,0,1-2.87,2.87A2,2,0,0,1,30.62,36.22Z"/><path class="cls-2" d="M30.85,31.74a2,2,0,1,1,4,0,1.91,1.91,0,0,1-.58,1.43,2,2,0,0,1-2.86,0A1.91,1.91,0,0,1,30.85,31.74Z"/><path class="cls-2" d="M31.07,27.27a1.91,1.91,0,0,1,.58-1.43,2,2,0,0,1,1.43-.59,2,2,0,0,1,2,2,2,2,0,0,1-.59,1.43,1.91,1.91,0,0,1-1.43.58,2,2,0,0,1-2-2Z"/><path class="cls-2" d="M31.29,22.79a2,2,0,0,1,.59-1.43,1.91,1.91,0,0,1,1.43-.58,2,2,0,0,1,1.43,3.45,2,2,0,0,1-1.43.58,2,2,0,0,1-2-2Z"/><path class="cls-2" d="M31.52,18.32a1.91,1.91,0,0,1,.58-1.43,2,2,0,0,1,2.86,0,2,2,0,1,1-3.44,1.43Z"/><path class="cls-2" d="M31.74,13.84a2,2,0,0,1,.58-1.43,2.07,2.07,0,0,1,2.87,0,2,2,0,1,1-3.45,1.43Z"/><path class="cls-2" d="M32,9.37a1.94,1.94,0,0,1,.59-1.43A1.91,1.91,0,0,1,34,7.36a2,2,0,0,1,2,2,2,2,0,1,1-4,0Z"/><path class="cls-2" d="M35.1,36.22a2,2,0,1,1,3.44,1.43,2,2,0,0,1-3.44-1.43Z"/><path class="cls-2" d="M35.77,22.79a2,2,0,1,1,3.44,1.44,2,2,0,0,1-3.44-1.44Z"/><path class="cls-2" d="M36.44,9.37a2,2,0,1,1,3.44,1.43,1.91,1.91,0,0,1-1.43.58,2,2,0,0,1-2-2Z"/><path class="cls-2" d="M39.57,36.22a2,2,0,0,1,.58-1.44A2,2,0,0,1,43,37.65a2,2,0,0,1-3.45-1.43Z"/><path class="cls-2" d="M40.24,22.79a2,2,0,0,1,.58-1.43,2,2,0,0,1,2.87,2.87,2,2,0,0,1-3.45-1.44Z"/><path class="cls-2" d="M40.91,9.37a1.94,1.94,0,0,1,.59-1.43,1.91,1.91,0,0,1,1.43-.58,2,2,0,0,1,2,2,2,2,0,1,1-4,0Z"/><path class="cls-2" d="M44.05,36.22a2,2,0,1,1,3.44,1.43,2,2,0,0,1-3.44-1.43Z"/><path class="cls-2" d="M44.72,22.79a2,2,0,1,1,3.44,1.44,2,2,0,0,1-3.44-1.44Z"/><path class="cls-2" d="M45.39,9.37a2,2,0,1,1,3.44,1.43,2,2,0,0,1-3.44-1.43Z"/><path class="cls-2" d="M48.74,31.74a2,2,0,0,1,.59-1.43,1.91,1.91,0,0,1,1.43-.58,2,2,0,0,1,2,2,1.91,1.91,0,0,1-.58,1.43,2,2,0,0,1-1.43.59,2,2,0,0,1-2-2Z"/><path class="cls-2" d="M49,27.27a1.91,1.91,0,0,1,.58-1.43,2,2,0,0,1,2.86,0A1.91,1.91,0,0,1,53,27.27a2,2,0,1,1-4,0Z"/><path class="cls-2" d="M49.42,18.32a2,2,0,0,1,2-2,2,2,0,0,1,1.43.59,2.05,2.05,0,0,1,0,2.86,2,2,0,0,1-1.43.58,2,2,0,0,1-2-2Z"/><path class="cls-2" d="M49.64,13.84a2,2,0,0,1,2-2,1.91,1.91,0,0,1,1.43.58,2,2,0,0,1-1.43,3.45,2,2,0,0,1-1.43-.58A2,2,0,0,1,49.64,13.84Z"/><path class="cls-2" d="M57.47,36.22a2,2,0,0,1,.58-1.44,2,2,0,0,1,1.43-.58,2,2,0,0,1,1.43,3.45,1.91,1.91,0,0,1-1.43.58,2,2,0,0,1-2-2Z"/><path class="cls-2" d="M57.69,31.74a2,2,0,0,1,.58-1.43,2,2,0,0,1,3.45,1.43,1.91,1.91,0,0,1-.58,1.43,2,2,0,0,1-3.45-1.43Z"/><path class="cls-2" d="M57.92,27.27a2,2,0,0,1,2-2,1.94,1.94,0,0,1,1.43.59,1.91,1.91,0,0,1,.58,1.43,2,2,0,0,1-2,2,1.91,1.91,0,0,1-1.43-.58A2,2,0,0,1,57.92,27.27Z"/><path class="cls-2" d="M58.14,22.79a2,2,0,0,1,3.45-1.43,2,2,0,0,1-2.87,2.87A2,2,0,0,1,58.14,22.79Z"/><path class="cls-2" d="M58.36,18.32a2,2,0,0,1,2-2,2,2,0,0,1,1.43.59,2.05,2.05,0,0,1,0,2.86,2,2,0,0,1-1.43.58A1.91,1.91,0,0,1,59,19.75,1.94,1.94,0,0,1,58.36,18.32Z"/><path class="cls-2" d="M58.59,13.84A2,2,0,1,1,62,15.28a2,2,0,0,1-3.44-1.44Z"/><path class="cls-2" d="M58.81,9.37a2,2,0,0,1,2-2,2,2,0,0,1,1.44,3.44,2.07,2.07,0,0,1-2.87,0A1.93,1.93,0,0,1,58.81,9.37Z"/><path class="cls-2" d="M61.94,36.22a2,2,0,0,1,2-2,2,2,0,0,1,1.43.58A2,2,0,0,1,64,38.23a1.91,1.91,0,0,1-1.43-.58A2,2,0,0,1,61.94,36.22Z"/><path class="cls-2" d="M66.42,36.22a2,2,0,1,1,3.44,1.43,2.05,2.05,0,0,1-2.86,0A2,2,0,0,1,66.42,36.22Z"/><path class="cls-2" d="M70.89,36.22a2,2,0,1,1,3.45,1.43,2.07,2.07,0,0,1-2.87,0A2,2,0,0,1,70.89,36.22Z"/><path class="cls-2" d="M75.37,36.22a2,2,0,1,1,3.44,1.43,2,2,0,0,1-3.44-1.43Z"/><path class="cls-2" d="M84.32,36.22a2,2,0,1,1,3.44,1.43,2,2,0,0,1-3.44-1.43Z"/><path class="cls-2" d="M84.54,31.74a2,2,0,0,1,2-2,1.91,1.91,0,0,1,1.43.58,2,2,0,0,1,.59,1.43,2,2,0,0,1-2,2,2,2,0,0,1-1.43-.59A1.91,1.91,0,0,1,84.54,31.74Z"/><path class="cls-2" d="M84.76,27.27a2,2,0,0,1,3.45-1.43,1.91,1.91,0,0,1,.58,1.43,2,2,0,0,1-3.45,1.43A2,2,0,0,1,84.76,27.27Z"/><path class="cls-2" d="M85,22.79a2,2,0,1,1,3.44,1.44A2,2,0,0,1,85,22.79Z"/><path class="cls-2" d="M85.21,18.32a1.91,1.91,0,0,1,.58-1.43,2,2,0,1,1,0,2.86A1.93,1.93,0,0,1,85.21,18.32Z"/><path class="cls-2" d="M85.43,13.84A2,2,0,0,1,86,12.41a1.91,1.91,0,0,1,1.43-.58,2,2,0,0,1,1.43,3.45,2,2,0,0,1-1.43.58,2,2,0,0,1-2-2Z"/><path class="cls-2" d="M89.46,22.79a2,2,0,0,1,3.45-1.43A2,2,0,0,1,90,24.23,2,2,0,0,1,89.46,22.79Z"/><path class="cls-2" d="M90.13,9.37a2,2,0,0,1,2-2,2,2,0,0,1,1.43.58,2.05,2.05,0,0,1,0,2.86,2.07,2.07,0,0,1-2.87,0A2,2,0,0,1,90.13,9.37Z"/><path class="cls-2" d="M93.94,22.79a2,2,0,0,1,.58-1.43A1.91,1.91,0,0,1,96,20.78a2,2,0,0,1,1.43,3.45,2,2,0,0,1-1.43.58,2,2,0,0,1-2-2Z"/><path class="cls-2" d="M94.61,9.37a2,2,0,1,1,4,0,2,2,0,1,1-4,0Z"/><path class="cls-2" d="M98.41,22.79a2,2,0,0,1,3.45-1.43A2,2,0,0,1,99,24.23,2,2,0,0,1,98.41,22.79Z"/><path class="cls-2" d="M99.08,9.37a2,2,0,0,1,2-2,2,2,0,0,1,1.44,3.44,2.07,2.07,0,0,1-2.87,0A1.93,1.93,0,0,1,99.08,9.37Z"/><path class="cls-2" d="M102.21,36.22a2,2,0,0,1,3.45-1.44,2,2,0,0,1-2.87,2.87A2,2,0,0,1,102.21,36.22Z"/><path class="cls-2" d="M102.44,31.74a2,2,0,1,1,4,0,1.91,1.91,0,0,1-.58,1.43,2,2,0,0,1-2.86,0A1.91,1.91,0,0,1,102.44,31.74Z"/><path class="cls-2" d="M102.66,27.27a1.91,1.91,0,0,1,.58-1.43,2,2,0,0,1,3.45,1.43,2,2,0,0,1-.58,1.43,2,2,0,0,1-3.45-1.43Z"/><path class="cls-2" d="M102.88,22.79a2,2,0,0,1,.59-1.43,1.91,1.91,0,0,1,1.43-.58,2,2,0,0,1,1.43,3.45,2,2,0,0,1-1.43.58,2,2,0,0,1-2-2Z"/><path class="cls-2" d="M103.11,18.32a1.91,1.91,0,0,1,.58-1.43,2,2,0,0,1,2.86,0,2,2,0,1,1-3.44,1.43Z"/><path class="cls-2" d="M103.33,13.84a2,2,0,0,1,.58-1.43,2.07,2.07,0,0,1,2.87,0,2,2,0,1,1-3.45,1.43Z"/><path class="cls-2" d="M111.16,36.22a2,2,0,0,1,.58-1.44,2,2,0,0,1,2.87,2.87,2,2,0,0,1-3.45-1.43Z"/><path class="cls-2" d="M111.39,31.74a2,2,0,0,1,.58-1.43,1.91,1.91,0,0,1,1.43-.58,2,2,0,0,1,2,2,1.91,1.91,0,0,1-.58,1.43,2,2,0,0,1-1.43.59,2,2,0,0,1-2-2Z"/><path class="cls-2" d="M111.61,27.27a1.91,1.91,0,0,1,.58-1.43,2,2,0,0,1,1.43-.59,2,2,0,0,1,2,2,2,2,0,0,1-.59,1.43,1.91,1.91,0,0,1-1.43.58,2,2,0,0,1-2-2Z"/><path class="cls-2" d="M111.83,22.79a2,2,0,0,1,.58-1.43,2,2,0,0,1,2.87,2.87,2,2,0,0,1-3.45-1.44Z"/><path class="cls-2" d="M112.06,18.32a1.91,1.91,0,0,1,.58-1.43,2,2,0,0,1,2.86,0,2,2,0,1,1-3.44,1.43Z"/><path class="cls-2" d="M112.28,13.84a2,2,0,0,1,3.45-1.43,2,2,0,0,1-2.87,2.87A2,2,0,0,1,112.28,13.84Z"/><path class="cls-2" d="M112.5,9.37a1.94,1.94,0,0,1,.59-1.43,1.91,1.91,0,0,1,1.43-.58,2,2,0,0,1,2,2,2,2,0,1,1-4,0Z"/><path class="cls-2" d="M116.31,22.79a2,2,0,1,1,3.44,1.44,2,2,0,0,1-3.44-1.44Z"/><path class="cls-2" d="M120.56,27.27a1.91,1.91,0,0,1,.58-1.43,2,2,0,0,1,2.86,0,1.91,1.91,0,0,1,.58,1.43A2,2,0,0,1,124,28.7a2.05,2.05,0,0,1-2.86,0A2,2,0,0,1,120.56,27.27Z"/><path class="cls-2" d="M121,18.32a2,2,0,0,1,2-2,1.94,1.94,0,0,1,1.43.59A2,2,0,1,1,121,18.32Z"/><path class="cls-2" d="M124.81,31.74a2,2,0,0,1,2-2,1.91,1.91,0,0,1,1.43.58,2,2,0,0,1,.59,1.43,2,2,0,1,1-4,0Z"/><path class="cls-2" d="M125.7,13.84a2,2,0,0,1,.59-1.43,1.91,1.91,0,0,1,1.43-.58,2,2,0,0,1,1.43,3.45,2,2,0,0,1-1.43.58,2,2,0,0,1-2-2Z"/><path class="cls-2" d="M129.06,36.22a2,2,0,0,1,.58-1.44,2,2,0,0,1,2.87,2.87,2,2,0,0,1-3.45-1.43Z"/><path class="cls-2" d="M130.4,9.37a2,2,0,0,1,2-2,2,2,0,0,1,1.43.58,2.05,2.05,0,0,1,0,2.86,2.07,2.07,0,0,1-2.87,0A2,2,0,0,1,130.4,9.37Z"/><path class="cls-2" d="M138.23,31.74a2,2,0,0,1,.58-1.43,2.07,2.07,0,0,1,2.87,0,2,2,0,0,1,.58,1.43,2,2,0,1,1-4,0Z"/><path class="cls-2" d="M138.46,27.27a2,2,0,0,1,2-2,1.94,1.94,0,0,1,1.43.59,1.91,1.91,0,0,1,.58,1.43,2,2,0,0,1-2,2A1.91,1.91,0,0,1,139,28.7,2,2,0,0,1,138.46,27.27Z"/><path class="cls-2" d="M138.68,22.79a2,2,0,0,1,2-2,1.91,1.91,0,0,1,1.43.58,2,2,0,0,1-1.43,3.45,2,2,0,0,1-1.43-.58A2,2,0,0,1,138.68,22.79Z"/><path class="cls-2" d="M138.9,18.32a2,2,0,0,1,3.45-1.43,2.05,2.05,0,0,1,0,2.86,2.07,2.07,0,0,1-2.87,0A2,2,0,0,1,138.9,18.32Z"/><path class="cls-2" d="M139.13,13.84a2,2,0,1,1,3.44,1.44,2,2,0,0,1-3.44-1.44Z"/><path class="cls-2" d="M142.48,36.22a2,2,0,1,1,3.45,1.43,2.07,2.07,0,0,1-2.87,0A2,2,0,0,1,142.48,36.22Z"/><path class="cls-2" d="M143.82,9.37a1.94,1.94,0,0,1,.59-1.43,1.91,1.91,0,0,1,1.43-.58,2,2,0,0,1,2,2,2,2,0,1,1-4,0Z"/><path class="cls-2" d="M147,36.22a2,2,0,1,1,3.44,1.43A2,2,0,0,1,147,36.22Z"/><path class="cls-2" d="M148.3,9.37a2,2,0,1,1,3.44,1.43,1.91,1.91,0,0,1-1.43.58,2,2,0,0,1-2-2Z"/><path class="cls-2" d="M151.43,36.22a2,2,0,1,1,3.45,1.43,2.07,2.07,0,0,1-2.87,0A2,2,0,0,1,151.43,36.22Z"/><path class="cls-2" d="M152.77,9.37a1.94,1.94,0,0,1,.59-1.43,1.91,1.91,0,0,1,1.43-.58,2,2,0,0,1,2,2,2,2,0,1,1-4,0Z"/><path class="cls-2" d="M156.13,31.74a2,2,0,0,1,2-2,1.91,1.91,0,0,1,1.43.58,2,2,0,0,1,.59,1.43,2,2,0,0,1-2,2,2,2,0,0,1-1.43-.59A1.91,1.91,0,0,1,156.13,31.74Z"/><path class="cls-2" d="M156.35,27.27a2,2,0,0,1,3.45-1.43,1.91,1.91,0,0,1,.58,1.43,2,2,0,0,1-3.45,1.43A2,2,0,0,1,156.35,27.27Z"/><path class="cls-2" d="M156.58,22.79A2,2,0,1,1,160,24.23a2,2,0,0,1-3.44-1.44Z"/><path class="cls-2" d="M156.8,18.32a1.91,1.91,0,0,1,.58-1.43,2,2,0,1,1,0,2.86A1.93,1.93,0,0,1,156.8,18.32Z"/><path class="cls-2" d="M157,13.84a2,2,0,0,1,.59-1.43,1.91,1.91,0,0,1,1.43-.58,2,2,0,0,1,1.43,3.45,2,2,0,0,1-1.43.58,2,2,0,0,1-2-2Z"/><path class="cls-2" d="M165.3,27.27a2,2,0,1,1,4,0,2,2,0,0,1-.58,1.43,2.07,2.07,0,0,1-2.87,0A2,2,0,0,1,165.3,27.27Z"/><path class="cls-2" d="M165.53,22.79a2,2,0,0,1,.58-1.43,2.05,2.05,0,0,1,2.86,0,2.07,2.07,0,0,1,0,2.87,2,2,0,0,1-3.44-1.44Z"/><path class="cls-2" d="M165.75,18.32a1.91,1.91,0,0,1,.58-1.43,2,2,0,0,1,1.43-.59,2,2,0,0,1,1.43,3.45,1.91,1.91,0,0,1-1.43.58,2,2,0,0,1-2-2Z"/><path class="cls-2" d="M166,13.84a2,2,0,0,1,.58-1.43,2,2,0,0,1,2.87,2.87A2,2,0,0,1,166,13.84Z"/><path class="cls-2" d="M166.2,9.37a2,2,0,1,1,4,0,2,2,0,1,1-4,0Z"/><path class="cls-2" d="M169.55,31.74a2,2,0,0,1,.58-1.43,2,2,0,0,1,3.45,1.43,1.91,1.91,0,0,1-.58,1.43,2,2,0,0,1-3.45-1.43Z"/><path class="cls-2" d="M173.8,36.22a2,2,0,0,1,2-2,2,2,0,0,1,1.43.58,2,2,0,0,1-1.43,3.45,1.91,1.91,0,0,1-1.43-.58A2,2,0,0,1,173.8,36.22Z"/><path class="cls-2" d="M178.5,31.74A2,2,0,0,1,182,30.31a2,2,0,0,1,.58,1.43,2,2,0,0,1-3.45,1.43A1.91,1.91,0,0,1,178.5,31.74Z"/><path class="cls-2" d="M183.2,27.27a1.91,1.91,0,0,1,.58-1.43,2,2,0,0,1,3.45,1.43,2,2,0,0,1-.58,1.43,2,2,0,0,1-3.45-1.43Z"/><path class="cls-2" d="M183.42,22.79a2,2,0,0,1,.59-1.43,1.91,1.91,0,0,1,1.43-.58,2,2,0,0,1,1.43,3.45,2,2,0,0,1-1.43.58,2,2,0,0,1-2-2Z"/><path class="cls-2" d="M183.65,18.32a1.91,1.91,0,0,1,.58-1.43,2,2,0,0,1,2.86,0,2,2,0,1,1-3.44,1.43Z"/><path class="cls-2" d="M183.87,13.84a2,2,0,0,1,3.45-1.43,2,2,0,0,1-2.87,2.87A2,2,0,0,1,183.87,13.84Z"/><path class="cls-2" d="M184.09,9.37a1.94,1.94,0,0,1,.59-1.43,1.91,1.91,0,0,1,1.43-.58,2,2,0,0,1,2,2,2,2,0,1,1-4,0Z"/><path class="cls-2" d="M191.92,31.74a2,2,0,0,1,.59-1.43,1.91,1.91,0,0,1,1.43-.58,2,2,0,0,1,2,2,1.91,1.91,0,0,1-.58,1.43,2,2,0,0,1-1.43.59,2,2,0,0,1-2-2Z"/><path class="cls-2" d="M192.15,27.27a1.91,1.91,0,0,1,.58-1.43,2,2,0,0,1,2.86,0,1.91,1.91,0,0,1,.58,1.43,2,2,0,0,1-.58,1.43,2.05,2.05,0,0,1-2.86,0A2,2,0,0,1,192.15,27.27Z"/><path class="cls-2" d="M192.37,22.79a2,2,0,0,1,.58-1.43,2.07,2.07,0,0,1,2.87,0,2,2,0,1,1-3.45,1.43Z"/><path class="cls-2" d="M192.6,18.32a1.91,1.91,0,0,1,.58-1.43,2,2,0,0,1,2.86,0,2,2,0,1,1-3.44,1.43Z"/><path class="cls-2" d="M192.82,13.84a2,2,0,0,1,2-2,1.91,1.91,0,0,1,1.43.58,2,2,0,0,1-1.43,3.45,2,2,0,0,1-1.43-.58A2,2,0,0,1,192.82,13.84Z"/><path class="cls-2" d="M196.17,36.22a2,2,0,0,1,2-2,2,2,0,0,1,1.43.58,2,2,0,0,1-1.43,3.45,1.91,1.91,0,0,1-1.43-.58A2,2,0,0,1,196.17,36.22Z"/><path class="cls-2" d="M197.52,9.37a2,2,0,1,1,4,0,2,2,0,1,1-4,0Z"/><path class="cls-2" d="M200.65,36.22a2,2,0,0,1,.58-1.44,2,2,0,0,1,2.87,2.87,2,2,0,0,1-3.45-1.43Z"/><path class="cls-2" d="M202,9.37a2,2,0,0,1,2-2,2,2,0,0,1,1.43.58,2.05,2.05,0,0,1,0,2.86,2.07,2.07,0,0,1-2.87,0A2,2,0,0,1,202,9.37Z"/><path class="cls-2" d="M205.12,36.22a2,2,0,0,1,2-2,2,2,0,0,1,1.43.58,2,2,0,0,1-1.43,3.45,1.91,1.91,0,0,1-1.43-.58A2,2,0,0,1,205.12,36.22Z"/><path class="cls-2" d="M206.47,9.37a2,2,0,1,1,4,0,2,2,0,1,1-4,0Z"/><path class="cls-2" d="M209.82,31.74a2,2,0,0,1,.58-1.43,2.07,2.07,0,0,1,2.87,0,2,2,0,0,1,.58,1.43,2,2,0,1,1-4,0Z"/><path class="cls-2" d="M210.05,27.27a1.91,1.91,0,0,1,.58-1.43,2,2,0,0,1,2.86,0,1.91,1.91,0,0,1,.58,1.43,2,2,0,1,1-4,0Z"/><path class="cls-2" d="M210.27,22.79a2,2,0,0,1,2-2,1.91,1.91,0,0,1,1.43.58,2,2,0,0,1-1.43,3.45,2,2,0,0,1-1.43-.58A2,2,0,0,1,210.27,22.79Z"/><path class="cls-2" d="M210.49,18.32a2,2,0,0,1,2-2,2,2,0,0,1,1.43.59,2.05,2.05,0,0,1,0,2.86,2,2,0,0,1-1.43.58,1.91,1.91,0,0,1-1.43-.58A1.94,1.94,0,0,1,210.49,18.32Z"/><path class="cls-2" d="M210.72,13.84a2,2,0,1,1,3.44,1.44,2,2,0,0,1-3.44-1.44Z"/><path class="cls-2" d="M218.55,36.22A2,2,0,1,1,222,37.65a2,2,0,0,1-3.44-1.43Z"/><path class="cls-2" d="M219.44,18.32a2,2,0,1,1,.58,1.43A2,2,0,0,1,219.44,18.32Z"/><path class="cls-2" d="M219.67,13.84a2,2,0,0,1,.58-1.43,2.05,2.05,0,0,1,2.86,0,2.07,2.07,0,0,1,0,2.87,2,2,0,0,1-3.44-1.44Z"/><path class="cls-2" d="M223,36.22a2,2,0,1,1,3.45,1.43,2.07,2.07,0,0,1-2.87,0A2,2,0,0,1,223,36.22Z"/><path class="cls-2" d="M223.69,22.79a2,2,0,0,1,.58-1.43,2,2,0,0,1,2.87,2.87,2,2,0,0,1-3.45-1.44Z"/><path class="cls-2" d="M224.36,9.37A1.94,1.94,0,0,1,225,7.94a1.91,1.91,0,0,1,1.43-.58,2,2,0,0,1,2,2,2,2,0,1,1-4,0Z"/><path class="cls-2" d="M227.5,36.22a2,2,0,1,1,3.44,1.43,2,2,0,0,1-3.44-1.43Z"/><path class="cls-2" d="M228.17,22.79a2,2,0,1,1,3.44,1.44,2,2,0,0,1-3.44-1.44Z"/><path class="cls-2" d="M228.84,9.37a2,2,0,1,1,3.44,1.43,2,2,0,0,1-3.44-1.43Z"/><path class="cls-2" d="M232,36.22a2,2,0,0,1,.58-1.44,2,2,0,0,1,2.87,2.87A2,2,0,0,1,232,36.22Z"/><path class="cls-2" d="M232.64,22.79a2,2,0,0,1,.58-1.43,2.07,2.07,0,0,1,2.87,0,2,2,0,1,1-3.45,1.43Z"/><path class="cls-2" d="M233.31,9.37a2,2,0,0,1,2-2,2,2,0,0,1,2,2,2,2,0,0,1-2,2,2,2,0,0,1-2-2Z"/><path class="cls-2" d="M236.67,31.74a2,2,0,0,1,2-2,1.91,1.91,0,0,1,1.43.58,2,2,0,0,1,.59,1.43,2,2,0,0,1-2,2,2,2,0,0,1-1.43-.59A1.91,1.91,0,0,1,236.67,31.74Z"/><path class="cls-2" d="M236.89,27.27a2,2,0,0,1,3.45-1.43,1.91,1.91,0,0,1,.58,1.43,2,2,0,0,1-3.45,1.43A2,2,0,0,1,236.89,27.27Z"/><path class="cls-2" d="M237.79,9.37a2,2,0,1,1,4,0,2,2,0,1,1-4,0Z"/><path class="cls-2" d="M385.82,89.94A74.08,74.08,0,0,1,376,91.62,95.29,95.29,0,0,1,366,92a119,119,0,0,1-19.92-2,163.28,163.28,0,0,1-38-12.56,147.53,147.53,0,0,1-17.51-9.74,112.12,112.12,0,0,1-15.8-12.35A62.16,62.16,0,0,1,262.4,39.51a31.53,31.53,0,0,1-3.24-9.64,19.82,19.82,0,0,1,1.15-10.16l.52-1.19c.17-.4.42-.76.62-1.14a19.19,19.19,0,0,1,1.44-2.15,22.32,22.32,0,0,1,3.64-3.63,32.59,32.59,0,0,1,8.92-4.88,63.8,63.8,0,0,1,19.8-3.41,96,96,0,0,1,10,.2c3.34.22,6.67.6,10,1.1A148.37,148.37,0,0,1,334.82,9a164,164,0,0,1,36.73,15.81,120.79,120.79,0,0,1,16.18,11.79,89,89,0,0,1,7.19,7,69.53,69.53,0,0,1,6.21,7.81,72.9,72.9,0,0,0-6.46-7.57,93.12,93.12,0,0,0-7.4-6.65A118.25,118.25,0,0,0,370.82,26a162.31,162.31,0,0,0-36.4-15.68A147.56,147.56,0,0,0,315.05,6c-3.27-.5-6.56-.87-9.85-1.08a96.28,96.28,0,0,0-9.9-.21,62.47,62.47,0,0,0-19.36,3.33,31.32,31.32,0,0,0-8.52,4.65,18.41,18.41,0,0,0-5.79,7.53,18.35,18.35,0,0,0-1.06,9.43,30.07,30.07,0,0,0,3.1,9.19,60.59,60.59,0,0,0,12.1,15.45,110.32,110.32,0,0,0,15.6,12.19,144.49,144.49,0,0,0,17.34,9.64,161.78,161.78,0,0,0,37.62,12.45A120.75,120.75,0,0,0,366,91.22a91.74,91.74,0,0,0,9.95,0A74.61,74.61,0,0,0,385.82,89.94Z"/><path class="cls-2" d="M395.31,82a7,7,0,0,1-3.68,6.18s0,0,0,0c-.66.25-1.34.47-2,.69h-.06c-9.15,2.87-21.15,3.5-34.57,1.8,0,0,0,0,0,0-.45-.08-.9-.13-1.37-.19A154.64,154.64,0,0,1,320.74,82c-40.23-15.17-67.06-42.76-59.94-61.65,6.95-18.48,43.83-21.77,83.08-7.71C306-.59,270.4,3,264.09,20.75s19.39,43.31,57.47,56.83a147.78,147.78,0,0,0,28.54,7.1,4.92,4.92,0,0,1,4.8-3.79,5.08,5.08,0,0,1,1.42.2,7.93,7.93,0,0,1,7.74-6.22,8.44,8.44,0,0,1,2.37.35A11.15,11.15,0,0,1,387.79,75h.5a7.07,7.07,0,0,1,6.28,3.88A7,7,0,0,1,395.31,82Z"/><path class="cls-2" d="M401.15,51.46H99.48s309.67-.85,264.73-29.11C364.21,22.35,391.11,34.83,401.15,51.46Z"/></g></svg>