<svg width="284" height="50" viewBox="0 0 284 50" fill="none" xmlns="http://www.w3.org/2000/svg">
<path d="M0.530029 48.0147V48.5147H1.03003H9.27103H9.77103V48.0147V28.7497H31.149V48.0147V48.5147H31.649H39.89H40.39V48.0147V1.11475V0.614746H39.89H31.649H31.149V1.11475V20.1117H9.77103V1.11475V0.614746H9.27103H1.03003H0.530029V1.11475V48.0147ZM94.5305 48.0147V48.5147H95.0305H113.389C117.475 48.5147 120.857 47.5962 123.231 45.8643C125.622 44.1197 126.954 41.574 126.954 38.4338C126.954 35.8129 126.164 33.7797 124.782 32.245C123.663 31.0025 122.179 30.1133 120.478 29.4918C121.615 28.8688 122.677 28.0742 123.518 27.031C124.64 25.6399 125.346 23.8361 125.346 21.4827C125.346 18.6106 124.115 16.2523 121.955 14.6262C119.81 13.0104 116.78 12.1387 113.188 12.1387H95.0305H94.5305V12.6387V48.0147ZM209.777 42.5195L210.095 42.1645L209.755 41.8298L204.864 37.0058L204.506 36.6525L204.155 37.0128C201.659 39.5746 198.966 41.2837 195.334 41.2837C189.424 41.2837 185.248 36.4629 185.248 30.3937V30.2597C185.248 24.3129 189.368 19.5037 194.932 19.5037C198.829 19.5037 201.32 21.2102 203.748 23.7699L204.116 24.1569L204.478 23.7655L209.503 18.3385L209.814 18.0022L209.507 17.6628C206.139 13.9522 201.856 11.4017 194.999 11.4017C184.123 11.4017 176.141 20.082 176.141 30.3937V30.5277C176.141 40.8454 184.129 49.3187 194.932 49.3187C198.453 49.3187 201.278 48.6171 203.675 47.4057C206.069 46.1961 208.009 44.4909 209.777 42.5195ZM223.604 48.0147V48.5147H224.104H232.278H232.778V48.0147V20.1067H243.668H244.168V19.6067V12.6387V12.1387H243.668H212.714H212.214V12.6387V19.6067V20.1067H212.714H223.604V48.0147ZM249.599 48.0147V48.5147H250.099H257.737H257.994L258.144 48.305L274.054 25.9932V48.0147V48.5147H274.554H282.393H282.893V48.0147V12.6387V12.1387H282.393H274.755H274.497L274.348 12.3488C269.025 19.8253 263.763 27.3016 258.505 34.7768V12.6387V12.1387H258.005H250.099H249.599V12.6387V48.0147ZM67.8133 49.3187C79.0069 49.3187 87.2743 40.7234 87.2743 30.3937C87.2743 19.8654 79.0763 11.4017 67.9473 11.4017C56.8184 11.4017 48.5533 19.9994 48.5533 30.3937C48.5533 40.8551 56.7514 49.3187 67.8133 49.3187ZM67.9473 41.2837C61.9642 41.2837 57.6603 36.322 57.6603 30.3937C57.6603 24.3201 61.6395 19.5037 67.8133 19.5037C73.8672 19.5037 78.1673 24.4026 78.1673 30.3937C78.1673 36.4001 74.1883 41.2837 67.9473 41.2837ZM103.504 41.0827V33.2387H111.781C113.902 33.2387 115.393 33.6646 116.341 34.3359C117.266 34.9915 117.713 35.9081 117.713 37.0267C117.713 38.2621 117.252 39.2499 116.371 39.9416C115.475 40.6454 114.09 41.0827 112.183 41.0827H103.504ZM103.504 26.7447V19.3697H111.446C113.181 19.3697 114.338 19.7877 115.056 20.4046C115.763 21.0131 116.105 21.8687 116.105 22.8897C116.105 24.0324 115.688 24.9769 114.913 25.6429C114.131 26.3153 112.935 26.7447 111.312 26.7447H103.504ZM151.367 49.3187C162.561 49.3187 170.828 40.7234 170.828 30.3937C170.828 19.8654 162.63 11.4017 151.501 11.4017C140.372 11.4017 132.107 19.9994 132.107 30.3937C132.107 40.8551 140.305 49.3187 151.367 49.3187ZM151.501 41.2837C145.518 41.2837 141.214 36.322 141.214 30.3937C141.214 24.3201 145.193 19.5037 151.367 19.5037C157.421 19.5037 161.721 24.4026 161.721 30.3937C161.721 36.4001 157.742 41.2837 151.501 41.2837Z" stroke="white"/>
</svg>
