<svg width="265" height="52" viewBox="0 0 265 52" fill="none" xmlns="http://www.w3.org/2000/svg">
<path d="M26.2112 51.304C41.1829 51.304 51.8002 39.7868 51.8002 26.05H49.8002C49.8002 38.7112 40.0496 49.304 26.2112 49.304V51.304ZM51.8002 26.05C51.8002 12.1829 41.3206 0.795999 26.3452 0.795999V2.796C40.1799 2.796 49.8002 13.2511 49.8002 26.05H51.8002ZM26.3452 0.795999C11.3736 0.795999 0.756223 12.3132 0.756223 26.05H2.75622C2.75622 13.3888 12.5069 2.796 26.3452 2.796V0.795999ZM0.756223 26.05C0.756223 39.9171 11.2359 51.304 26.2112 51.304V49.304C12.3766 49.304 2.75622 38.8489 2.75622 26.05H0.756223ZM26.3452 41.733C17.6507 41.733 11.3992 34.6783 11.3992 26.05H9.39922C9.39922 35.6457 16.4137 43.733 26.3452 43.733V41.733ZM11.3992 26.05C11.3992 17.2814 17.5225 10.367 26.2112 10.367V8.367C16.274 8.367 9.39922 16.3266 9.39922 26.05H11.3992ZM26.2112 10.367C34.9057 10.367 41.1572 17.4217 41.1572 26.05H43.1572C43.1572 16.4543 36.1427 8.367 26.2112 8.367V10.367ZM41.1572 26.05C41.1572 34.8186 35.034 41.733 26.3452 41.733V43.733C36.2825 43.733 43.1572 35.7734 43.1572 26.05H41.1572ZM67.3901 49.5H66.3901V50.5H67.3901V49.5ZM75.564 49.5V50.5H76.564V49.5H75.564ZM75.564 21.092V20.092H74.564V21.092H75.564ZM86.9541 21.092V22.092H87.9541V21.092H86.9541ZM86.9541 14.124H87.9541V13.124H86.9541V14.124ZM56 14.124V13.124H55V14.124H56ZM56 21.092H55V22.092H56V21.092ZM67.3901 21.092H68.3901V20.092H67.3901V21.092ZM67.3901 50.5H75.564V48.5H67.3901V50.5ZM76.564 49.5V21.092H74.564V49.5H76.564ZM75.564 22.092H86.9541V20.092H75.564V22.092ZM87.9541 21.092V14.124H85.9541V21.092H87.9541ZM86.9541 13.124H56V15.124H86.9541V13.124ZM55 14.124V21.092H57V14.124H55ZM56 22.092H67.3901V20.092H56V22.092ZM66.3901 21.092V49.5H68.3901V21.092H66.3901ZM113.216 30.941L112.818 30.0239L110.48 31.0405L112.885 31.8846L113.216 30.941ZM91.1735 18.479L90.517 17.7247L89.8335 18.3196L90.3583 19.0582L91.1735 18.479ZM94.7915 23.571L93.9763 24.1502L94.6172 25.0522L95.45 24.3236L94.7915 23.571ZM100.084 28.596V27.596H99.0845V28.596H100.084ZM100.084 34.425H99.0845V35.425H100.084V34.425ZM93.7865 39.517L94.4346 38.7555L93.6045 38.049L92.9721 38.9367L93.7865 39.517ZM89.9675 44.877L89.1531 44.2967L88.6218 45.0423L89.3177 45.6371L89.9675 44.877ZM105.444 51.304C114.337 51.304 120.648 46.242 120.648 39.517H118.648C118.648 44.718 113.704 49.304 105.444 49.304V51.304ZM120.648 39.517C120.648 37.0348 119.932 34.9988 118.644 33.3966C117.367 31.8067 115.582 30.7111 113.548 29.9974L112.885 31.8846C114.67 32.5109 116.101 33.4253 117.085 34.6494C118.059 35.8612 118.648 37.4431 118.648 39.517H120.648ZM113.615 31.8581C115.262 31.142 116.809 30.1138 117.945 28.6362C119.092 27.1449 119.777 25.2526 119.777 22.901H117.777C117.777 24.8374 117.223 26.2951 116.36 27.4168C115.487 28.5522 114.253 29.4 112.818 30.0239L113.615 31.8581ZM119.777 22.901C119.777 19.7899 118.23 17.1272 115.68 15.2748C113.146 13.4331 109.627 12.387 105.578 12.387V14.387C109.302 14.387 112.383 15.3509 114.505 16.8927C116.612 18.4238 117.777 20.5181 117.777 22.901H119.777ZM105.578 12.387C99.5906 12.387 94.3283 14.4074 90.517 17.7247L91.83 19.2333C95.2546 16.2526 100.042 14.387 105.578 14.387V12.387ZM90.3583 19.0582L93.9763 24.1502L95.6067 22.9918L91.9887 17.8998L90.3583 19.0582ZM95.45 24.3236C97.9296 22.1539 101.373 20.953 104.841 20.953V18.953C100.939 18.953 97.0134 20.298 94.133 22.8184L95.45 24.3236ZM104.841 20.953C106.37 20.953 107.618 21.3216 108.451 21.8864C109.265 22.4379 109.67 23.1551 109.67 23.973H111.67C111.67 22.3789 110.836 21.0861 109.573 20.2306C108.33 19.3884 106.663 18.953 104.841 18.953V20.953ZM109.67 23.973C109.67 24.9827 109.228 25.8506 108.382 26.4932C107.517 27.1503 106.189 27.596 104.439 27.596V29.596C106.509 29.596 108.296 29.0702 109.592 28.0858C110.907 27.0869 111.67 25.6433 111.67 23.973H109.67ZM104.439 27.596H100.084V29.596H104.439V27.596ZM99.0845 28.596V34.425H101.084V28.596H99.0845ZM100.084 35.425H104.439V33.425H100.084V35.425ZM104.439 35.425C106.639 35.425 108.221 35.8583 109.218 36.4979C110.177 37.1134 110.608 37.9176 110.608 38.847H112.608C112.608 37.1634 111.766 35.7566 110.297 34.8144C108.866 33.8962 106.863 33.425 104.439 33.425V35.425ZM110.608 38.847C110.608 39.9387 110.063 40.8779 109.065 41.5801C108.051 42.2936 106.587 42.738 104.908 42.738V44.738C106.915 44.738 108.801 44.2108 110.216 43.2159C111.646 42.2096 112.608 40.7033 112.608 38.847H110.608ZM104.908 42.738C101.143 42.738 97.4165 41.2933 94.4346 38.7555L93.1384 40.2785C96.4544 43.1007 100.633 44.738 104.908 44.738V42.738ZM92.9721 38.9367L89.1531 44.2967L90.7819 45.4573L94.6009 40.0973L92.9721 38.9367ZM89.3177 45.6371C93.665 49.3533 98.9248 51.304 105.444 51.304V49.304C99.3682 49.304 94.578 47.5027 90.6173 44.1169L89.3177 45.6371ZM128.062 49.5H127.062V50.5H128.062V49.5ZM136.169 26.519H135.169V27.519H136.169V26.519ZM136.169 14.124H137.169V13.124H136.169V14.124ZM128.062 14.124V13.124H127.062V14.124H128.062ZM136.169 42.934H135.169V43.934H136.169V42.934ZM136.169 32.817V31.817H135.169V32.817H136.169ZM163.036 49.5H162.036V50.5H163.036V49.5ZM171.143 49.5V50.5H172.143V49.5H171.143ZM171.143 14.124H172.143V13.124H171.143V14.124ZM163.036 14.124V13.124H162.036V14.124H163.036ZM128.062 50.5H144.209V48.5H128.062V50.5ZM144.209 50.5C148.536 50.5 152.16 49.3304 154.716 47.0955C157.289 44.8467 158.676 41.6097 158.676 37.708H156.676C156.676 41.1093 155.484 43.7683 153.4 45.5897C151.3 47.4251 148.191 48.5 144.209 48.5V50.5ZM158.676 37.708C158.676 33.5543 157.014 30.4485 154.219 28.4155C151.469 26.4146 147.718 25.519 143.606 25.519V27.519C147.467 27.519 150.751 28.3654 153.043 30.0327C155.29 31.668 156.676 34.1567 156.676 37.708H158.676ZM143.606 25.519H136.169V27.519H143.606V25.519ZM137.169 26.519V14.124H135.169V26.519H137.169ZM136.169 13.124H128.062V15.124H136.169V13.124ZM127.062 14.124V49.5H129.062V14.124H127.062ZM137.169 42.934V32.817H135.169V42.934H137.169ZM136.169 33.817H143.003V31.817H136.169V33.817ZM143.003 33.817C144.961 33.817 146.363 34.2305 147.25 34.8859C148.094 35.5094 148.569 36.4209 148.569 37.708H150.569C150.569 35.8461 149.839 34.3121 148.438 33.2773C147.081 32.2745 145.2 31.817 143.003 31.817V33.817ZM148.569 37.708C148.569 39.1684 148.081 40.1646 147.26 40.8221C146.405 41.5077 145.052 41.934 143.137 41.934V43.934C145.309 43.934 147.172 43.4558 148.511 42.3827C149.885 41.2814 150.569 39.6646 150.569 37.708H148.569ZM143.137 41.934H136.169V43.934H143.137V41.934ZM163.036 50.5H171.143V48.5H163.036V50.5ZM172.143 49.5V14.124H170.143V49.5H172.143ZM171.143 13.124H163.036V15.124H171.143V13.124ZM162.036 14.124V49.5H164.036V14.124H162.036ZM181.322 49.5H180.322V50.5H181.322V49.5ZM205.442 31.075L205.036 30.1612L202.503 31.2871L205.171 32.0377L205.442 31.075ZM181.322 14.124V13.124H180.322V14.124H181.322ZM189.295 43.068H188.295V44.068H189.295V43.068ZM189.295 34.224V33.224H188.295V34.224H189.295ZM189.295 28.73H188.295V29.73H189.295V28.73ZM189.295 20.355V19.355H188.295V20.355H189.295ZM181.322 50.5H199.68V48.5H181.322V50.5ZM199.68 50.5C203.834 50.5 207.331 49.5674 209.817 47.7535C212.338 45.9142 213.745 43.218 213.745 39.919H211.745C211.745 42.583 210.64 44.6773 208.638 46.1378C206.602 47.6236 203.566 48.5 199.68 48.5V50.5ZM213.745 39.919C213.745 37.1898 212.919 35.0329 211.445 33.3957C209.987 31.7777 207.969 30.7471 205.713 30.1123L205.171 32.0377C207.203 32.6089 208.836 33.4878 209.958 34.7341C211.063 35.9611 211.745 37.6232 211.745 39.919H213.745ZM205.848 31.9888C207.439 31.2817 209.017 30.2953 210.199 28.8301C211.395 27.3461 212.137 25.4303 212.137 22.968H210.137C210.137 24.9947 209.539 26.4624 208.642 27.5746C207.73 28.7057 206.46 29.5283 205.036 30.1612L205.848 31.9888ZM212.137 22.968C212.137 19.9372 210.831 17.4317 208.548 15.7121C206.292 14.0132 203.146 13.124 199.479 13.124V15.124C202.847 15.124 205.53 15.9433 207.345 17.3097C209.131 18.6553 210.137 20.5718 210.137 22.968H212.137ZM199.479 13.124H181.322V15.124H199.479V13.124ZM180.322 14.124V49.5H182.322V14.124H180.322ZM190.295 43.068V34.224H188.295V43.068H190.295ZM189.295 35.224H198.072V33.224H189.295V35.224ZM198.072 35.224C200.137 35.224 201.512 35.6403 202.343 36.2291C203.13 36.7866 203.504 37.5477 203.504 38.512H205.504C205.504 36.9303 204.84 35.5474 203.499 34.5974C202.203 33.6787 200.362 33.224 198.072 33.224V35.224ZM203.504 38.512C203.504 39.6092 203.103 40.4457 202.354 41.0336C201.574 41.6455 200.313 42.068 198.474 42.068V44.068C200.588 44.068 202.341 43.586 203.589 42.6067C204.867 41.6033 205.504 40.1618 205.504 38.512H203.504ZM198.474 42.068H189.295V44.068H198.474V42.068ZM190.295 28.73V20.355H188.295V28.73H190.295ZM189.295 21.355H197.737V19.355H189.295V21.355ZM197.737 21.355C199.398 21.355 200.424 21.7555 201.021 22.2689C201.599 22.7658 201.896 23.4719 201.896 24.375H203.896C203.896 23.0001 203.423 21.6962 202.325 20.7526C201.247 19.8255 199.694 19.355 197.737 19.355V21.355ZM201.896 24.375C201.896 25.3872 201.532 26.1875 200.879 26.749C200.211 27.3233 199.142 27.73 197.603 27.73V29.73C199.481 29.73 201.058 29.2322 202.183 28.2655C203.322 27.2859 203.896 25.9088 203.896 24.375H201.896ZM197.603 27.73H189.295V29.73H197.603V27.73ZM220.842 49.5H219.842V50.5H220.842V49.5ZM228.949 26.519H227.949V27.519H228.949V26.519ZM228.949 14.124H229.949V13.124H228.949V14.124ZM220.842 14.124V13.124H219.842V14.124H220.842ZM228.949 42.934H227.949V43.934H228.949V42.934ZM228.949 32.817V31.817H227.949V32.817H228.949ZM255.816 49.5H254.816V50.5H255.816V49.5ZM263.923 49.5V50.5H264.923V49.5H263.923ZM263.923 14.124H264.923V13.124H263.923V14.124ZM255.816 14.124V13.124H254.816V14.124H255.816ZM220.842 50.5H236.989V48.5H220.842V50.5ZM236.989 50.5C241.315 50.5 244.939 49.3304 247.496 47.0955C250.068 44.8467 251.456 41.6097 251.456 37.708H249.456C249.456 41.1093 248.263 43.7683 246.179 45.5897C244.08 47.4251 240.97 48.5 236.989 48.5V50.5ZM251.456 37.708C251.456 33.5543 249.793 30.4485 246.999 28.4155C244.249 26.4146 240.498 25.519 236.386 25.519V27.519C240.246 27.519 243.53 28.3654 245.822 30.0327C248.07 31.668 249.456 34.1567 249.456 37.708H251.456ZM236.386 25.519H228.949V27.519H236.386V25.519ZM229.949 26.519V14.124H227.949V26.519H229.949ZM228.949 13.124H220.842V15.124H228.949V13.124ZM219.842 14.124V49.5H221.842V14.124H219.842ZM229.949 42.934V32.817H227.949V42.934H229.949ZM228.949 33.817H235.783V31.817H228.949V33.817ZM235.783 33.817C237.74 33.817 239.142 34.2305 240.029 34.8859C240.873 35.5094 241.349 36.4209 241.349 37.708H243.349C243.349 35.8461 242.618 34.3121 241.217 33.2773C239.86 32.2745 237.979 31.817 235.783 31.817V33.817ZM241.349 37.708C241.349 39.1684 240.86 40.1646 240.04 40.8221C239.184 41.5077 237.832 41.934 235.917 41.934V43.934C238.088 43.934 239.952 43.4558 241.291 42.3827C242.665 41.2814 243.349 39.6646 243.349 37.708H241.349ZM235.917 41.934H228.949V43.934H235.917V41.934ZM255.816 50.5H263.923V48.5H255.816V50.5ZM264.923 49.5V14.124H262.923V49.5H264.923ZM263.923 13.124H255.816V15.124H263.923V13.124ZM254.816 14.124V49.5H256.816V14.124H254.816Z" fill="white"/>
</svg>
