<svg width="289" height="59" viewBox="0 0 289 59" fill="none" xmlns="http://www.w3.org/2000/svg">
<path d="M1.32346 48.5293H0.323457V49.5293H1.32346V48.5293ZM9.56446 48.5293V49.5293H10.5645V48.5293H9.56446ZM9.56446 33.4543V32.4543H8.56446V33.4543H9.56446ZM1.32346 1.62929V0.629294H0.323457V1.62929H1.32346ZM9.56446 26.0173H8.56446V27.0173H9.56446V26.0173ZM9.56446 9.1333V8.1333H8.56446V9.1333H9.56446ZM1.32346 49.5293H9.56446V47.5293H1.32346V49.5293ZM10.5645 48.5293V33.4543H8.56446V48.5293H10.5645ZM9.56446 34.4543H18.8775V32.4543H9.56446V34.4543ZM18.8775 34.4543C24.2014 34.4543 29.1281 33.0381 32.7469 30.1769C36.3931 27.294 38.6375 22.9988 38.6375 17.4413H36.6375C36.6375 22.4028 34.6608 26.1141 31.5065 28.608C28.3249 31.1235 23.8715 32.4543 18.8775 32.4543V34.4543ZM38.6375 17.4413C38.6375 12.3969 36.8128 8.16096 33.4873 5.19601C30.1737 2.24155 25.4618 0.629294 19.8155 0.629294V2.62929C25.0902 2.62929 29.2893 4.13254 32.1563 6.68882C35.0117 9.23462 36.6375 12.9047 36.6375 17.4413H38.6375ZM19.8155 0.629294H1.32346V2.62929H19.8155V0.629294ZM0.323457 1.62929V48.5293H2.32346V1.62929H0.323457ZM10.5645 26.0173V9.1333H8.56446V26.0173H10.5645ZM9.56446 10.1333H19.1455V8.1333H9.56446V10.1333ZM19.1455 10.1333C22.0879 10.1333 24.3673 10.8227 25.8908 12.0414C27.382 13.2344 28.2625 15.024 28.2625 17.5083H30.2625C30.2625 14.4986 29.1664 12.1007 27.1402 10.4797C25.1461 8.88442 22.367 8.1333 19.1455 8.1333V10.1333ZM28.2625 17.5083C28.2625 19.7452 27.4064 21.589 25.8901 22.8877C24.3603 24.1979 22.0799 25.0173 19.1455 25.0173V27.0173C22.442 27.0173 25.2201 26.0947 27.1911 24.4067C29.1755 22.7071 30.2625 20.2964 30.2625 17.5083H28.2625ZM19.1455 25.0173H9.56446V27.0173H19.1455V25.0173ZM74.8204 48.5293V49.5293H75.8204V48.5293H74.8204ZM45.8094 15.5653L45.4003 14.6528L44.5694 15.0253L44.8627 15.8874L45.8094 15.5653ZM48.0204 22.0643L47.0737 22.3864L47.418 23.3986L48.405 22.9874L48.0204 22.0643ZM66.8474 28.0943L66.5451 29.0475L67.8474 29.4604V28.0943H66.8474ZM66.7804 44.1743H67.7804V41.4221L66.0136 43.5324L66.7804 44.1743ZM66.7804 48.5293H65.7804V49.5293H66.7804V48.5293ZM66.9814 33.7223H67.9814V33.0371L67.3424 32.7897L66.9814 33.7223ZM75.8204 48.5293V27.5583H73.8204V48.5293H75.8204ZM75.8204 27.5583C75.8204 22.6619 74.4984 18.6339 71.6715 15.8346C68.8459 13.0365 64.6694 11.6173 59.2764 11.6173V13.6173C64.3353 13.6173 67.9309 14.9451 70.2642 17.2557C72.5964 19.5651 73.8204 23.0077 73.8204 27.5583H75.8204ZM59.2764 11.6173C53.3411 11.6173 49.3819 12.8679 45.4003 14.6528L46.2184 16.4778C50.0089 14.7786 53.6876 13.6173 59.2764 13.6173V11.6173ZM44.8627 15.8874L47.0737 22.3864L48.9671 21.7422L46.7561 15.2432L44.8627 15.8874ZM48.405 22.9874C51.5458 21.6787 54.359 20.8533 58.1374 20.8533V18.8533C54.0097 18.8533 50.9269 19.7699 47.6357 21.1412L48.405 22.9874ZM58.1374 20.8533C60.808 20.8533 62.717 21.4903 63.9468 22.5594C65.1541 23.6089 65.8474 25.1976 65.8474 27.4243H67.8474C67.8474 24.76 66.9996 22.5632 65.2589 21.05C63.5407 19.5563 61.0948 18.8533 58.1374 18.8533V20.8533ZM65.8474 27.4243V28.0943H67.8474V27.4243H65.8474ZM67.1496 27.1411C64.3192 26.2436 61.4699 25.6203 57.0654 25.6203V27.6203C61.2368 27.6203 63.8816 28.203 66.5451 29.0475L67.1496 27.1411ZM57.0654 25.6203C52.8112 25.6203 48.9894 26.5864 46.2056 28.6765C43.3826 30.7961 41.7274 33.9992 41.7274 38.2113H43.7274C43.7274 34.5844 45.1207 31.992 47.4064 30.2759C49.7314 28.5302 53.0785 27.6203 57.0654 27.6203V25.6203ZM41.7274 38.2113C41.7274 42.1309 43.3376 45.1816 45.8861 47.2315C48.4103 49.2618 51.7949 50.2663 55.3234 50.2663V48.2663C52.1519 48.2663 49.2384 47.3612 47.1396 45.6731C45.0651 44.0045 43.7274 41.5277 43.7274 38.2113H41.7274ZM55.3234 50.2663C60.9975 50.2663 64.9571 47.9099 67.5471 44.8162L66.0136 43.5324C63.7796 46.2007 60.3692 48.2663 55.3234 48.2663V50.2663ZM65.7804 44.1743V48.5293H67.7804V44.1743H65.7804ZM66.7804 49.5293H74.8204V47.5293H66.7804V49.5293ZM65.9814 35.7323C65.9814 39.385 62.6546 42.1693 57.6014 42.1693V44.1693C63.2681 44.1693 67.9814 40.9236 67.9814 35.7323H65.9814ZM57.6014 42.1693C55.841 42.1693 54.3545 41.735 53.3371 41.0014C52.3499 40.2895 51.7674 39.2768 51.7674 37.9433H49.7674C49.7674 39.9598 50.6924 41.5601 52.1674 42.6237C53.6122 43.6656 55.5427 44.1693 57.6014 44.1693V42.1693ZM51.7674 37.9433C51.7674 36.4936 52.3621 35.3947 53.4808 34.6197C54.6439 33.8139 56.4443 33.3153 58.8744 33.3153V31.3153C56.2124 31.3153 53.9593 31.8552 52.3419 32.9757C50.6802 34.1269 49.7674 35.842 49.7674 37.9433H51.7674ZM58.8744 33.3153C61.905 33.3153 64.6632 33.8972 66.6204 34.6549L67.3424 32.7897C65.1455 31.9393 62.1417 31.3153 58.8744 31.3153V33.3153ZM65.9814 33.7223V35.7323H67.9814V33.7223H65.9814ZM104.295 29.9703L103.896 29.0532L101.558 30.0698L103.964 30.9139L104.295 29.9703ZM82.2516 17.5083L81.5951 16.754L80.9116 17.3489L81.4364 18.0875L82.2516 17.5083ZM85.8696 22.6003L85.0544 23.1795L85.6953 24.0815L86.5281 23.3529L85.8696 22.6003ZM91.1626 27.6253V26.6253H90.1626V27.6253H91.1626ZM91.1626 33.4543H90.1626V34.4543H91.1626V33.4543ZM84.8646 38.5463L85.5127 37.7848L84.6827 37.0783L84.0502 37.966L84.8646 38.5463ZM81.0456 43.9063L80.2312 43.326L79.7 44.0716L80.3958 44.6664L81.0456 43.9063ZM96.5226 50.3333C105.415 50.3333 111.727 45.2713 111.727 38.5463H109.727C109.727 43.7473 104.783 48.3333 96.5226 48.3333V50.3333ZM111.727 38.5463C111.727 36.0641 111.01 34.0281 109.722 32.4259C108.445 30.836 106.66 29.7404 104.626 29.0267L103.964 30.9139C105.748 31.5402 107.18 32.4546 108.163 33.6787C109.137 34.8905 109.727 36.4724 109.727 38.5463H111.727ZM104.693 30.8874C106.34 30.1713 107.887 29.1431 109.023 27.6655C110.171 26.1742 110.856 24.2819 110.856 21.9303H108.856C108.856 23.8667 108.301 25.3244 107.438 26.4461C106.565 27.5815 105.331 28.4293 103.896 29.0532L104.693 30.8874ZM110.856 21.9303C110.856 18.8192 109.308 16.1565 106.758 14.3041C104.224 12.4624 100.705 11.4163 96.6566 11.4163V13.4163C100.38 13.4163 103.461 14.3802 105.583 15.922C107.69 17.4531 108.856 19.5474 108.856 21.9303H110.856ZM96.6566 11.4163C90.6688 11.4163 85.4064 13.4367 81.5951 16.754L82.9081 18.2626C86.3328 15.2819 91.1205 13.4163 96.6566 13.4163V11.4163ZM81.4364 18.0875L85.0544 23.1795L86.6848 22.0211L83.0668 16.9291L81.4364 18.0875ZM86.5281 23.3529C89.0077 21.1832 92.4516 19.9823 95.9196 19.9823V17.9823C92.0176 17.9823 88.0915 19.3273 85.2111 21.8477L86.5281 23.3529ZM95.9196 19.9823C97.4478 19.9823 98.6957 20.3509 99.5295 20.9157C100.344 21.4672 100.749 22.1844 100.749 23.0023H102.749C102.749 21.4082 101.914 20.1154 100.651 19.2599C99.4081 18.4177 97.7414 17.9823 95.9196 17.9823V19.9823ZM100.749 23.0023C100.749 24.012 100.306 24.8799 99.4603 25.5225C98.5954 26.1796 97.2671 26.6253 95.5176 26.6253V28.6253C97.5871 28.6253 99.3744 28.0995 100.67 27.1151C101.985 26.1162 102.749 24.6726 102.749 23.0023H100.749ZM95.5176 26.6253H91.1626V28.6253H95.5176V26.6253ZM90.1626 27.6253V33.4543H92.1626V27.6253H90.1626ZM91.1626 34.4543H95.5176V32.4543H91.1626V34.4543ZM95.5176 34.4543C97.7174 34.4543 99.2986 34.8876 100.296 35.5272C101.256 36.1427 101.687 36.9469 101.687 37.8763H103.687C103.687 36.1927 102.845 34.7859 101.376 33.8437C99.9441 32.9255 97.9408 32.4543 95.5176 32.4543V34.4543ZM101.687 37.8763C101.687 38.968 101.141 39.9072 100.143 40.6094C99.1288 41.3229 97.6654 41.7673 95.9866 41.7673V43.7673C97.9928 43.7673 99.8794 43.2401 101.294 42.2452C102.724 41.2389 103.687 39.7326 103.687 37.8763H101.687ZM95.9866 41.7673C92.2216 41.7673 88.4946 40.3226 85.5127 37.7848L84.2165 39.3078C87.5326 42.13 91.7116 43.7673 95.9866 43.7673V41.7673ZM84.0502 37.966L80.2312 43.326L81.86 44.4866L85.679 39.1266L84.0502 37.966ZM80.3958 44.6664C84.7431 48.3826 90.0029 50.3333 96.5226 50.3333V48.3333C90.4463 48.3333 85.6561 46.532 81.6954 43.1462L80.3958 44.6664ZM115.053 57.0383H114.053V58.0383H115.053V57.0383ZM121.82 57.0383V58.0383H122.73L122.816 57.1324L121.82 57.0383ZM122.624 48.5293V47.5293H121.714L121.629 48.4352L122.624 48.5293ZM147.414 48.5293H148.414V47.5293H147.414V48.5293ZM147.414 57.0383H146.414V58.0383H147.414V57.0383ZM154.181 57.0383V58.0383H155.114L155.179 57.1074L154.181 57.0383ZM155.253 41.5613L156.251 41.6304L156.325 40.5613H155.253V41.5613ZM150.228 41.5613H149.228V42.5613H150.228V41.5613ZM150.228 13.1533H151.228V12.1533H150.228V13.1533ZM122.825 13.1533V12.1533H121.825V13.1533H122.825ZM118.872 41.5613V42.5613H119.49L119.767 42.0085L118.872 41.5613ZM115.053 41.5613V40.5613H114.053V41.5613H115.053ZM127.18 41.5613L126.278 41.1308L125.596 42.5613H127.18V41.5613ZM130.463 20.1213V19.1213H129.463V20.1213H130.463ZM142.121 20.1213H143.121V19.1213H142.121V20.1213ZM142.121 41.5613V42.5613H143.121V41.5613H142.121ZM115.053 58.0383H121.82V56.0383H115.053V58.0383ZM122.816 57.1324L123.62 48.6234L121.629 48.4352L120.825 56.9442L122.816 57.1324ZM122.624 49.5293H147.414V47.5293H122.624V49.5293ZM146.414 48.5293V57.0383H148.414V48.5293H146.414ZM147.414 58.0383H154.181V56.0383H147.414V58.0383ZM155.179 57.1074L156.251 41.6304L154.256 41.4922L153.184 56.9692L155.179 57.1074ZM155.253 40.5613H150.228V42.5613H155.253V40.5613ZM151.228 41.5613V13.1533H149.228V41.5613H151.228ZM150.228 12.1533H122.825V14.1533H150.228V12.1533ZM121.825 13.1533V17.5083H123.825V13.1533H121.825ZM121.825 17.5083C121.825 27.3962 120.816 35.4378 117.978 41.1141L119.767 42.0085C122.825 35.8927 123.825 27.4524 123.825 17.5083H121.825ZM118.872 40.5613H115.053V42.5613H118.872V40.5613ZM114.053 41.5613V57.0383H116.053V41.5613H114.053ZM128.083 41.9918C130.239 37.4706 131.463 31.3526 131.463 24.8113H129.463C129.463 31.134 128.275 36.942 126.278 41.1308L128.083 41.9918ZM131.463 24.8113V20.1213H129.463V24.8113H131.463ZM130.463 21.1213H142.121V19.1213H130.463V21.1213ZM141.121 20.1213V41.5613H143.121V20.1213H141.121ZM142.121 40.5613H127.18V42.5613H142.121V40.5613ZM192.683 42.7003L193.451 43.3405L194.072 42.5957L193.346 41.9523L192.683 42.7003ZM187.926 38.4793L188.589 37.7313L187.893 37.1135L187.227 37.7637L187.926 38.4793ZM168.161 33.7223V32.7223H166.998L167.172 33.8718L168.161 33.7223ZM194.157 33.7223V34.7223H195.004L195.143 33.8867L194.157 33.7223ZM168.094 28.3623L167.103 28.2293L166.951 29.3623H168.094V28.3623ZM186.251 28.3623V29.3623H187.359L187.246 28.2603L186.251 28.3623ZM178.211 50.3333C185.025 50.3333 189.923 47.5737 193.451 43.3405L191.915 42.0601C188.742 45.8669 184.394 48.3333 178.211 48.3333V50.3333ZM193.346 41.9523L188.589 37.7313L187.262 39.2273L192.019 43.4483L193.346 41.9523ZM187.227 37.7637C184.552 40.375 181.977 41.7003 178.345 41.7003V43.7003C182.619 43.7003 185.671 42.0776 188.624 39.1949L187.227 37.7637ZM178.345 41.7003C175.94 41.7003 173.851 40.9629 172.269 39.6118C170.69 38.2625 169.554 36.2463 169.15 33.5728L167.172 33.8718C167.639 36.9603 168.981 39.4331 170.97 41.1323C172.956 42.8296 175.523 43.7003 178.345 43.7003V41.7003ZM168.161 34.7223H194.157V32.7223H168.161V34.7223ZM195.143 33.8867C195.224 33.4005 195.291 31.9932 195.291 31.4443H193.291C193.291 31.9674 193.223 33.2401 193.17 33.5579L195.143 33.8867ZM195.291 31.4443C195.291 26.1777 193.819 21.1815 190.812 17.4807C187.785 13.7545 183.258 11.4163 177.34 11.4163V13.4163C182.678 13.4163 186.626 15.5001 189.26 18.7419C191.915 22.0091 193.291 26.5269 193.291 31.4443H195.291ZM177.34 11.4163C166.589 11.4163 159.054 20.2577 159.054 30.8413H161.054C161.054 21.1909 167.857 13.4163 177.34 13.4163V11.4163ZM159.054 30.8413C159.054 42.4534 167.412 50.3333 178.211 50.3333V48.3333C168.507 48.3333 161.054 41.3392 161.054 30.8413H159.054ZM169.085 28.4953C169.776 23.3417 172.959 20.0493 177.273 20.0493V18.0493C171.671 18.0493 167.885 22.3949 167.103 28.2293L169.085 28.4953ZM177.273 20.0493C179.673 20.0493 181.512 20.9536 182.827 22.415C184.161 23.8967 185.004 26.0086 185.256 28.4643L187.246 28.2603C186.961 25.49 185.996 22.9454 184.314 21.0771C182.614 19.1885 180.232 18.0493 177.273 18.0493V20.0493ZM186.251 27.3623H168.094V29.3623H186.251V27.3623ZM214.827 20.1213V19.1213H213.827V20.1213H214.827ZM225.882 20.1213H226.882V19.1213H225.882V20.1213ZM225.882 48.5293H224.882V49.5293H225.882V48.5293ZM233.989 48.5293V49.5293H234.989V48.5293H233.989ZM233.989 13.1533H234.989V12.1533H233.989V13.1533ZM207.256 13.1533V12.1533H206.256V13.1533H207.256ZM198.01 41.8293L198.253 40.8592L197.12 40.576L197.014 41.7388L198.01 41.8293ZM197.407 48.4623L196.411 48.3718L196.327 49.2961L197.243 49.4487L197.407 48.4623ZM202.164 49.9313C204.176 49.9313 206.114 49.7324 207.859 48.951C209.634 48.1561 211.127 46.7967 212.313 44.6292C214.634 40.3872 215.827 32.9473 215.827 20.1213H213.827C213.827 32.9563 212.609 39.9214 210.558 43.6692C209.558 45.4965 208.376 46.5282 207.041 47.1256C205.677 47.7366 204.072 47.9313 202.164 47.9313V49.9313ZM214.827 21.1213H225.882V19.1213H214.827V21.1213ZM224.882 20.1213V48.5293H226.882V20.1213H224.882ZM225.882 49.5293H233.989V47.5293H225.882V49.5293ZM234.989 48.5293V13.1533H232.989V48.5293H234.989ZM233.989 12.1533H207.256V14.1533H233.989V12.1533ZM206.256 13.1533C206.256 26.6343 205.547 33.7231 204.384 37.4261C203.808 39.261 203.163 40.1224 202.57 40.5534C201.989 40.9757 201.306 41.0973 200.355 41.0973V43.0973C201.448 43.0973 202.65 42.9676 203.746 42.1714C204.83 41.3838 205.654 40.0593 206.293 38.025C207.559 33.9895 208.256 26.6063 208.256 13.1533H206.256ZM200.355 41.0973C199.884 41.0973 198.695 40.9697 198.253 40.8592L197.768 42.7994C198.398 42.9569 199.754 43.0973 200.355 43.0973V41.0973ZM197.014 41.7388L196.411 48.3718L198.403 48.5528L199.006 41.9198L197.014 41.7388ZM197.243 49.4487C198.471 49.6533 200.811 49.9313 202.164 49.9313V47.9313C200.972 47.9313 198.756 47.6733 197.572 47.4759L197.243 49.4487ZM244.176 48.5293H243.176V49.5293H244.176V48.5293ZM252.283 25.5483H251.283V26.5483H252.283V25.5483ZM252.283 13.1533H253.283V12.1533H252.283V13.1533ZM244.176 13.1533V12.1533H243.176V13.1533H244.176ZM252.283 41.9633H251.283V42.9633H252.283V41.9633ZM252.283 31.8463V30.8463H251.283V31.8463H252.283ZM279.15 48.5293H278.15V49.5293H279.15V48.5293ZM287.257 48.5293V49.5293H288.257V48.5293H287.257ZM287.257 13.1533H288.257V12.1533H287.257V13.1533ZM279.15 13.1533V12.1533H278.15V13.1533H279.15ZM244.176 49.5293H260.323V47.5293H244.176V49.5293ZM260.323 49.5293C264.65 49.5293 268.274 48.3597 270.831 46.1248C273.403 43.876 274.79 40.639 274.79 36.7373H272.79C272.79 40.1386 271.598 42.7976 269.514 44.619C267.415 46.4544 264.305 47.5293 260.323 47.5293V49.5293ZM274.79 36.7373C274.79 32.5836 273.128 29.4778 270.334 27.4448C267.584 25.4439 263.833 24.5483 259.72 24.5483V26.5483C263.581 26.5483 266.865 27.3947 269.157 29.062C271.405 30.6973 272.79 33.186 272.79 36.7373H274.79ZM259.72 24.5483H252.283V26.5483H259.72V24.5483ZM253.283 25.5483V13.1533H251.283V25.5483H253.283ZM252.283 12.1533H244.176V14.1533H252.283V12.1533ZM243.176 13.1533V48.5293H245.176V13.1533H243.176ZM253.283 41.9633V31.8463H251.283V41.9633H253.283ZM252.283 32.8463H259.117V30.8463H252.283V32.8463ZM259.117 32.8463C261.075 32.8463 262.477 33.2598 263.364 33.9152C264.208 34.5387 264.683 35.4502 264.683 36.7373H266.683C266.683 34.8754 265.953 33.3414 264.552 32.3066C263.195 31.3038 261.314 30.8463 259.117 30.8463V32.8463ZM264.683 36.7373C264.683 38.1977 264.195 39.1939 263.375 39.8514C262.519 40.537 261.167 40.9633 259.251 40.9633V42.9633C261.423 42.9633 263.287 42.4851 264.626 41.412C265.999 40.3107 266.683 38.6939 266.683 36.7373H264.683ZM259.251 40.9633H252.283V42.9633H259.251V40.9633ZM279.15 49.5293H287.257V47.5293H279.15V49.5293ZM288.257 48.5293V13.1533H286.257V48.5293H288.257ZM287.257 12.1533H279.15V14.1533H287.257V12.1533ZM278.15 13.1533V48.5293H280.15V13.1533H278.15Z" fill="white"/>
</svg>
