<svg width="315" height="60" viewBox="0 0 315 60" fill="none" xmlns="http://www.w3.org/2000/svg">
<path d="M26.4085 51.304C41.3801 51.304 51.9975 39.7868 51.9975 26.05H49.9975C49.9975 38.7112 40.2468 49.304 26.4085 49.304V51.304ZM51.9975 26.05C51.9975 12.1829 41.5178 0.795999 26.5425 0.795999V2.796C40.3772 2.796 49.9975 13.2511 49.9975 26.05H51.9975ZM26.5425 0.795999C11.5708 0.795999 0.953489 12.3132 0.953489 26.05H2.95349C2.95349 13.3888 12.7041 2.796 26.5425 2.796V0.795999ZM0.953489 26.05C0.953489 39.9171 11.4332 51.304 26.4085 51.304V49.304C12.5738 49.304 2.95349 38.8489 2.95349 26.05H0.953489ZM26.5425 41.733C17.848 41.733 11.5965 34.6783 11.5965 26.05H9.59649C9.59649 35.6457 16.611 43.733 26.5425 43.733V41.733ZM11.5965 26.05C11.5965 17.2814 17.7198 10.367 26.4085 10.367V8.367C16.4712 8.367 9.59649 16.3266 9.59649 26.05H11.5965ZM26.4085 10.367C35.103 10.367 41.3545 17.4217 41.3545 26.05H43.3545C43.3545 16.4543 36.34 8.367 26.4085 8.367V10.367ZM41.3545 26.05C41.3545 34.8186 35.2312 41.733 26.5425 41.733V43.733C36.4798 43.733 43.3545 35.7734 43.3545 26.05H41.3545ZM99.9352 30.941L99.5365 30.0239L97.1984 31.0405L99.6041 31.8846L99.9352 30.941ZM77.8922 18.479L77.2357 17.7247L76.5522 18.3196L77.077 19.0582L77.8922 18.479ZM81.5102 23.571L80.6951 24.1502L81.336 25.0522L82.1687 24.3236L81.5102 23.571ZM86.8032 28.596V27.596H85.8032V28.596H86.8032ZM86.8032 34.425H85.8032V35.425H86.8032V34.425ZM80.5052 39.517L81.1534 38.7555L80.3233 38.049L79.6908 38.9367L80.5052 39.517ZM76.6862 44.877L75.8718 44.2967L75.3406 45.0423L76.0364 45.6371L76.6862 44.877ZM92.1632 51.304C101.055 51.304 107.367 46.242 107.367 39.517H105.367C105.367 44.718 100.423 49.304 92.1632 49.304V51.304ZM107.367 39.517C107.367 37.0348 106.65 34.9988 105.363 33.3966C104.085 31.8067 102.3 30.7111 100.266 29.9974L99.6041 31.8846C101.389 32.5109 102.82 33.4253 103.804 34.6494C104.778 35.8612 105.367 37.4431 105.367 39.517H107.367ZM100.334 31.8581C101.981 31.142 103.528 30.1138 104.664 28.6362C105.811 27.1449 106.496 25.2526 106.496 22.901H104.496C104.496 24.8374 103.942 26.2951 103.079 27.4168C102.205 28.5522 100.972 29.4 99.5365 30.0239L100.334 31.8581ZM106.496 22.901C106.496 19.7899 104.948 17.1272 102.399 15.2748C99.8645 13.4331 96.3459 12.387 92.2972 12.387V14.387C96.0206 14.387 99.1015 15.3509 101.223 16.8927C103.33 18.4238 104.496 20.5181 104.496 22.901H106.496ZM92.2972 12.387C86.3094 12.387 81.0471 14.4074 77.2357 17.7247L78.5488 19.2333C81.9734 16.2526 86.7611 14.387 92.2972 14.387V12.387ZM77.077 19.0582L80.6951 24.1502L82.3254 22.9918L78.7074 17.8998L77.077 19.0582ZM82.1687 24.3236C84.6483 22.1539 88.0922 20.953 91.5602 20.953V18.953C87.6582 18.953 83.7322 20.298 80.8517 22.8184L82.1687 24.3236ZM91.5602 20.953C93.0884 20.953 94.3363 21.3216 95.1701 21.8864C95.9842 22.4379 96.3892 23.1551 96.3892 23.973H98.3892C98.3892 22.3789 97.5547 21.0861 96.2918 20.2306C95.0487 19.3884 93.382 18.953 91.5602 18.953V20.953ZM96.3892 23.973C96.3892 24.9827 95.9468 25.8506 95.1009 26.4932C94.236 27.1503 92.9078 27.596 91.1582 27.596V29.596C93.2277 29.596 95.015 29.0702 96.3108 28.0858C97.6256 27.0869 98.3892 25.6433 98.3892 23.973H96.3892ZM91.1582 27.596H86.8032V29.596H91.1582V27.596ZM85.8032 28.596V34.425H87.8032V28.596H85.8032ZM86.8032 35.425H91.1582V33.425H86.8032V35.425ZM91.1582 35.425C93.3581 35.425 94.9393 35.8583 95.9365 36.4979C96.8962 37.1134 97.3272 37.9176 97.3272 38.847H99.3272C99.3272 37.1634 98.4852 35.7566 97.0162 34.8144C95.5847 33.8962 93.5814 33.425 91.1582 33.425V35.425ZM97.3272 38.847C97.3272 39.9387 96.782 40.8779 95.7838 41.5801C94.7694 42.2936 93.306 42.738 91.6272 42.738V44.738C93.6334 44.738 95.5201 44.2108 96.9345 43.2159C98.3649 42.2096 99.3272 40.7033 99.3272 38.847H97.3272ZM91.6272 42.738C87.8622 42.738 84.1353 41.2933 81.1534 38.7555L79.8571 40.2785C83.1732 43.1007 87.3522 44.738 91.6272 44.738V42.738ZM79.6908 38.9367L75.8718 44.2967L77.5006 45.4573L81.3196 40.0973L79.6908 38.9367ZM76.0364 45.6371C80.3837 49.3533 85.6435 51.304 92.1632 51.304V49.304C86.087 49.304 81.2967 47.5027 77.336 44.1169L76.0364 45.6371ZM110.694 58.009H109.694V59.009H110.694V58.009ZM117.461 58.009V59.009H118.371L118.457 58.1031L117.461 58.009ZM118.265 49.5V48.5H117.355L117.269 49.4059L118.265 49.5ZM143.055 49.5H144.055V48.5H143.055V49.5ZM143.055 58.009H142.055V59.009H143.055V58.009ZM149.822 58.009V59.009H150.755L150.82 58.0781L149.822 58.009ZM150.894 42.532L151.892 42.6011L151.966 41.532H150.894V42.532ZM145.869 42.532H144.869V43.532H145.869V42.532ZM145.869 14.124H146.869V13.124H145.869V14.124ZM118.466 14.124V13.124H117.466V14.124H118.466ZM114.513 42.532V43.532H115.131L115.407 42.9792L114.513 42.532ZM110.694 42.532V41.532H109.694V42.532H110.694ZM122.821 42.532L121.918 42.1015L121.236 43.532H122.821V42.532ZM126.104 21.092V20.092H125.104V21.092H126.104ZM137.762 21.092H138.762V20.092H137.762V21.092ZM137.762 42.532V43.532H138.762V42.532H137.762ZM110.694 59.009H117.461V57.009H110.694V59.009ZM118.457 58.1031L119.261 49.5941L117.269 49.4059L116.465 57.9149L118.457 58.1031ZM118.265 50.5H143.055V48.5H118.265V50.5ZM142.055 49.5V58.009H144.055V49.5H142.055ZM143.055 59.009H149.822V57.009H143.055V59.009ZM150.82 58.0781L151.892 42.6011L149.896 42.4629L148.824 57.9399L150.82 58.0781ZM150.894 41.532H145.869V43.532H150.894V41.532ZM146.869 42.532V14.124H144.869V42.532H146.869ZM145.869 13.124H118.466V15.124H145.869V13.124ZM117.466 14.124V18.479H119.466V14.124H117.466ZM117.466 18.479C117.466 28.3669 116.457 36.4086 113.619 42.0848L115.407 42.9792C118.465 36.8634 119.466 28.4231 119.466 18.479H117.466ZM114.513 41.532H110.694V43.532H114.513V41.532ZM109.694 42.532V58.009H111.694V42.532H109.694ZM123.724 42.9625C125.88 38.4413 127.104 32.3233 127.104 25.782H125.104C125.104 32.1047 123.916 37.9127 121.918 42.1015L123.724 42.9625ZM127.104 25.782V21.092H125.104V25.782H127.104ZM126.104 22.092H137.762V20.092H126.104V22.092ZM136.762 21.092V42.532H138.762V21.092H136.762ZM137.762 41.532H122.821V43.532H137.762V41.532ZM187.318 49.5V50.5H188.318V49.5H187.318ZM158.307 16.536L157.898 15.6235L157.067 15.996L157.361 16.8581L158.307 16.536ZM160.518 23.035L159.572 23.3571L159.916 24.3693L160.903 23.9581L160.518 23.035ZM179.345 29.065L179.043 30.0182L180.345 30.4311V29.065H179.345ZM179.278 45.145H180.278V42.3928L178.512 44.5031L179.278 45.145ZM179.278 49.5H178.278V50.5H179.278V49.5ZM179.479 34.693H180.479V34.0078L179.84 33.7604L179.479 34.693ZM188.318 49.5V28.529H186.318V49.5H188.318ZM188.318 28.529C188.318 23.6326 186.996 19.6047 184.17 16.8053C181.344 14.0072 177.167 12.588 171.774 12.588V14.588C176.833 14.588 180.429 15.9158 182.762 18.2264C185.094 20.5358 186.318 23.9784 186.318 28.529H188.318ZM171.774 12.588C165.839 12.588 161.88 13.8387 157.898 15.6235L158.716 17.4485C162.507 15.7493 166.186 14.588 171.774 14.588V12.588ZM157.361 16.8581L159.572 23.3571L161.465 22.7129L159.254 16.2139L157.361 16.8581ZM160.903 23.9581C164.044 22.6494 166.857 21.824 170.635 21.824V19.824C166.508 19.824 163.425 20.7406 160.134 22.1119L160.903 23.9581ZM170.635 21.824C173.306 21.824 175.215 22.461 176.445 23.5301C177.652 24.5796 178.345 26.1683 178.345 28.395H180.345C180.345 25.7307 179.498 23.5339 177.757 22.0207C176.039 20.527 173.593 19.824 170.635 19.824V21.824ZM178.345 28.395V29.065H180.345V28.395H178.345ZM179.648 28.1118C176.817 27.2143 173.968 26.591 169.563 26.591V28.591C173.735 28.591 176.38 29.1737 179.043 30.0182L179.648 28.1118ZM169.563 26.591C165.309 26.591 161.487 27.5571 158.704 29.6472C155.881 31.7668 154.225 34.9699 154.225 39.182H156.225C156.225 35.5551 157.619 32.9627 159.904 31.2466C162.229 29.5009 165.577 28.591 169.563 28.591V26.591ZM154.225 39.182C154.225 43.1016 155.836 46.1523 158.384 48.2022C160.908 50.2326 164.293 51.237 167.821 51.237V49.237C164.65 49.237 161.736 48.332 159.638 46.6438C157.563 44.9752 156.225 42.4984 156.225 39.182H154.225ZM167.821 51.237C173.496 51.237 177.455 48.8806 180.045 45.7869L178.512 44.5031C176.278 47.1714 172.867 49.237 167.821 49.237V51.237ZM178.278 45.145V49.5H180.278V45.145H178.278ZM179.278 50.5H187.318V48.5H179.278V50.5ZM178.479 36.703C178.479 40.3557 175.153 43.14 170.099 43.14V45.14C175.766 45.14 180.479 41.8943 180.479 36.703H178.479ZM170.099 43.14C168.339 43.14 166.853 42.7057 165.835 41.9721C164.848 41.2602 164.265 40.2475 164.265 38.914H162.265C162.265 40.9305 163.19 42.5308 164.665 43.5944C166.11 44.6363 168.041 45.14 170.099 45.14V43.14ZM164.265 38.914C164.265 37.4643 164.86 36.3654 165.979 35.5904C167.142 34.7846 168.942 34.286 171.372 34.286V32.286C168.71 32.286 166.457 32.8259 164.84 33.9464C163.178 35.0976 162.265 36.8127 162.265 38.914H164.265ZM171.372 34.286C174.403 34.286 177.161 34.868 179.118 35.6256L179.84 33.7604C177.644 32.91 174.64 32.286 171.372 32.286V34.286ZM178.479 34.693V36.703H180.479V34.693H178.479ZM196.961 49.5H195.961V50.5H196.961V49.5ZM205.068 49.5V50.5H206.068V49.5H205.068ZM205.068 35.229V34.229H204.068V35.229H205.068ZM220.679 35.229H221.679V34.229H220.679V35.229ZM220.679 49.5H219.679V50.5H220.679V49.5ZM228.786 49.5V50.5H229.786V49.5H228.786ZM228.786 14.124H229.786V13.124H228.786V14.124ZM220.679 14.124V13.124H219.679V14.124H220.679ZM220.679 28.462V29.462H221.679V28.462H220.679ZM205.068 28.462H204.068V29.462H205.068V28.462ZM205.068 14.124H206.068V13.124H205.068V14.124ZM196.961 14.124V13.124H195.961V14.124H196.961ZM196.961 50.5H205.068V48.5H196.961V50.5ZM206.068 49.5V35.229H204.068V49.5H206.068ZM205.068 36.229H220.679V34.229H205.068V36.229ZM219.679 35.229V49.5H221.679V35.229H219.679ZM220.679 50.5H228.786V48.5H220.679V50.5ZM229.786 49.5V14.124H227.786V49.5H229.786ZM228.786 13.124H220.679V15.124H228.786V13.124ZM219.679 14.124V28.462H221.679V14.124H219.679ZM220.679 27.462H205.068V29.462H220.679V27.462ZM206.068 28.462V14.124H204.068V28.462H206.068ZM205.068 13.124H196.961V15.124H205.068V13.124ZM195.961 14.124V49.5H197.961V14.124H195.961ZM238.967 49.5H237.967V50.5H238.967V49.5ZM246.605 49.5V50.5H247.12L247.419 50.0806L246.605 49.5ZM263.422 25.916H264.422V22.7912L262.607 25.3354L263.422 25.916ZM263.422 49.5H262.422V50.5H263.422V49.5ZM271.261 49.5V50.5H272.261V49.5H271.261ZM271.261 14.124H272.261V13.124H271.261V14.124ZM263.623 14.124V13.124H263.107L262.808 13.5441L263.623 14.124ZM246.873 37.842H245.873V41.0018L247.69 38.4173L246.873 37.842ZM246.873 14.124H247.873V13.124H246.873V14.124ZM238.967 14.124V13.124H237.967V14.124H238.967ZM238.967 50.5H246.605V48.5H238.967V50.5ZM247.419 50.0806L264.236 26.4966L262.607 25.3354L245.79 48.9194L247.419 50.0806ZM262.422 25.916V49.5H264.422V25.916H262.422ZM263.422 50.5H271.261V48.5H263.422V50.5ZM272.261 49.5V14.124H270.261V49.5H272.261ZM271.261 13.124H263.623V15.124H271.261V13.124ZM262.808 13.5441C257.178 21.4527 251.615 29.3611 246.055 37.2667L247.69 38.4173C253.252 30.5109 258.811 22.6072 264.437 14.7039L262.808 13.5441ZM247.873 37.842V14.124H245.873V37.842H247.873ZM246.873 13.124H238.967V15.124H246.873V13.124ZM237.967 14.124V49.5H239.967V14.124H237.967ZM281.43 49.5H280.43V50.5H281.43V49.5ZM289.068 49.5V50.5H289.583L289.883 50.0806L289.068 49.5ZM305.885 25.916H306.885V22.7912L305.071 25.3354L305.885 25.916ZM305.885 49.5H304.885V50.5H305.885V49.5ZM313.724 49.5V50.5H314.724V49.5H313.724ZM313.724 14.124H314.724V13.124H313.724V14.124ZM306.086 14.124V13.124H305.571L305.272 13.5441L306.086 14.124ZM289.336 37.842H288.336V41.0018L290.154 38.4173L289.336 37.842ZM289.336 14.124H290.336V13.124H289.336V14.124ZM281.43 14.124V13.124H280.43V14.124H281.43ZM281.43 50.5H289.068V48.5H281.43V50.5ZM289.883 50.0806L306.7 26.4966L305.071 25.3354L288.254 48.9194L289.883 50.0806ZM304.885 25.916V49.5H306.885V25.916H304.885ZM305.885 50.5H313.724V48.5H305.885V50.5ZM314.724 49.5V14.124H312.724V49.5H314.724ZM313.724 13.124H306.086V15.124H313.724V13.124ZM305.272 13.5441C299.642 21.4527 294.079 29.3611 288.518 37.2667L290.154 38.4173C295.716 30.5109 301.275 22.6072 306.901 14.7039L305.272 13.5441ZM290.336 37.842V14.124H288.336V37.842H290.336ZM289.336 13.124H281.43V15.124H289.336V13.124ZM280.43 14.124V49.5H282.43V14.124H280.43Z" fill="white"/>
</svg>
